<svg id="Artwork" xmlns="http://www.w3.org/2000/svg" width="1070" height="20" viewBox="0 0 1070 20">
  <title>african-hr</title>
  <g>
    <path d="M13.71427,12.57341a4.15069,4.15069,0,0,0-.87153.33846A47.9271,47.9271,0,0,0,9.417,16.58846,20.84752,20.84752,0,0,1,7.4654,19.03939c14.77037-.34513,13.88431-.37125,13.88431-.37125Z" fill="#a74624"/>
    <path d="M39.783,14.16024c-.50736-.61027-1.186-2.03629-2.33948-1.86637-.9512.14022-1.798,1.33146-2.33638,1.81071q-2.46263,2.19286-4.91938,4.38965a104.64807,104.64807,0,0,1,12.24461.21435c.23356-.171.40148-.387.295-.54988A43.41728,43.41728,0,0,0,39.783,14.16024Z" fill="#54754a"/>
    <path d="M62.88364,10.97339a3.08986,3.08986,0,0,0-1.20631.59115c-.87251.75716-6.56342,5.7133-6.71811,5.86344,4.05536.14445,4.44492.80819,12.152.07162.71789-.44092,1.43317-1.17538.907-1.69955C62.89442,10.69637,63.42651,10.55689,62.88364,10.97339Z" fill="#a74624"/>
    <path d="M88.11581,12.09066c-.78679-.6818-5.75752,4.40145-6.41761,5.13851a1.62878,1.62878,0,0,0-.40181.26766c8.92461.12923,2.35459.0953,11.69031-.49137A36.72674,36.72674,0,0,0,88.11581,12.09066Z" fill="#5b784a"/>
    <path d="M110.09836,12.0354c-1.292.09864-2.31369,1.30176-2.95476,1.814a55.70131,55.70131,0,0,0-4.48345,3.96614c2.9417-.46744,4.49038-.06494,14.16489-.01383-1.07317-1.2054-2.34193-2.33431-3.37493-3.575C112.84552,13.50049,111.796,11.90568,110.09836,12.0354Z" fill="#a74624"/>
    <path d="M134.41426,12.65487a.88176.88176,0,0,0-.64181.05233,2.73992,2.73992,0,0,0-1.05341.33178c-2.06119,1.65007-4.31161,3.21664-6.55427,4.80372,3.38383.06241,7.00048-.44532,13.41606.22534l.567-.01156c.60785-.01237,1.78184-.54655,1.323-.8693A69.03265,69.03265,0,0,0,134.41426,12.65487Z" fill="#54754a"/>
    <path d="M160.40065,11.74667c-2.74888,1.26936-3.5542,2.53133-4.23659,2.83439-1.22729.95451-2.45246,1.9095-3.6609,2.86881,11.567-.32535,5.0122-.33154,15.96314.04826.34907-.13232.62737-.32641.51642-.47322A14.37068,14.37068,0,0,0,160.40065,11.74667Z" fill="#a74624"/>
    <path d="M188.85126,13.26717c-.75879-.58748-1.82878-1.771-3.18587-1.3859a6.83751,6.83751,0,0,0-2.54038,1.925,17.52268,17.52268,0,0,0-2.78243,3.398,62.31418,62.31418,0,0,1,9.164.07479c.87325-.07528,1.74551-.13452,2.61655-.13233.2085-.16455.3325-.34969.23878-.4816A17.1834,17.1834,0,0,0,188.85126,13.26717Z" fill="#54754a"/>
    <path d="M212.11563,9.92155c-1.22109-.46541-3.29763,2.934-3.58,3.28353-.937,1.15967-1.88012,2.31795-2.80259,3.48185,4.49561.26327,3.6782-.30745,11.5285.2177.1316-.01563.26507-.03467.40156-.05852C218.13814,16.13184,214.44532,10.81006,212.11563,9.92155Z" fill="#a74624"/>
    <path d="M241.11344,11.684c-.62434-.54313-1.416-1.90413-2.95264-1.65136-1.3326.21915-2.30071,1.55672-2.92889,2.1027q-2.44057,2.12109-4.58761,4.32788c-.1827.18734-.12172.26986.0418.28621.05314.37858,4.00221-.64274,13.80709.04688.67887.04769,1.92763-.51424,1.47824-.89445C244.32118,14.50562,242.73054,13.0909,241.11344,11.684Z" fill="#54754a"/>
    <path d="M268.55055,10.42342c-.28743-.202-.97422.28345-.9254.57609-1.67131.86565-7.93953,5.87842-7.85455,6.36752-.017.01172-.03339.02563-.05021.03825,8.28925-.59766,12.35735.40543,15.69212.119.21364-.2163.32368-.46647.175-.64453A37.39229,37.39229,0,0,0,268.55055,10.42342Z" fill="#a74624"/>
    <path d="M295.56979,11.13461a36.12189,36.12189,0,0,0-7.202,5.70247c.05364.00374,4.85742.43563,4.91122.44051,4.953-.20524,5.89891.32674,9.6421.33024A33.943,33.943,0,0,0,295.56979,11.13461Z" fill="#54754a"/>
    <path d="M323.83215,11.61125a54.75454,54.75454,0,0,0-5.82242,5.54679c-.17486.2155-.5294.595-.04376.73365.25217.072,8.45538-.20305,12.20869-.049.635.026,1.98062-.64706,1.65865-1.02417C330.07041,14.754,327.13,13.00163,323.83215,11.61125Z" fill="#a74624"/>
    <path d="M353.41266,12.543c-.45-.34977-1.02362.33285-7.78157,6.04183,4.7233.15772,9.43075.45158,14.15494.60059.132-.12223.19633-.25252.10555-.3641A39.65644,39.65644,0,0,0,353.41266,12.543Z" fill="#54754a"/>
    <path d="M383.59833,12.51408c-.17666-.145-.76891.0909-.87324.15186-3.21567,1.8785-10.05746,6.79158-9.30316,6.777,3.44074-.06625,6.87975-.179,10.318-.273,1.58886-.04346,4.59284.2373,5.84365-.40389C390.88576,18.09839,389.79676,17.59872,383.59833,12.51408Z" fill="#a74624"/>
    <path d="M416.28308,14.75285c-.90378-.68978-2.71272-2.84334-4.591-2.73869-1.31986.07357-1.35325.35629-7.696,6.59139-.54164.15015-1.21211.75245-.5423.727q7.40259-.15393,14.80426-.35538c.50124-.01311,1.08484-.35694,1.12541-.63127C419.59622,16.90894,417.7125,15.84351,416.28308,14.75285Z" fill="#54754a"/>
    <path d="M439.62263,11.016c-1.21913.30306-2.37189,1.7264-3.17158,2.40414a69.0408,69.0408,0,0,0-5.31261,4.97762c-.28695.30078-.17421.43449.053.44019-.55748.836.36287-.35637,15.38721-.52979.45087-.00521,1.316-.59774.97855-.9423C440.93785,10.6058,441.211,10.62118,439.62263,11.016Z" fill="#a74624"/>
    <path d="M469.1696,10.86271c-.233-.2281-.85349.20972-.964.31-2.84431,2.57943-5.73792,5.13119-8.56819,7.71859l-.03323.015c5.04265.20484,10.14815.02246,15.17831.00448.28744-.18262.5076-.42594.389-.61841A39.12742,39.12742,0,0,0,469.1696,10.86271Z" fill="#54754a"/>
    <path d="M497.41163,11.11263c-.38687-.22461-1.20435.19735-1.38877.35441a41.35116,41.35116,0,0,0-7.07885,7.44841,74.72157,74.72157,0,0,0,10.70343.957c1.85351.05038,3.955-.23283,5.84666-.01652.47977-.19792.90827-.5271.74761-.77417A25.5539,25.5539,0,0,0,497.41163,11.11263Z" fill="#a74624"/>
    <path d="M25.53038,8.68465c.71365.77417,4.75872-3.68115,8.09782-6.09912a1.14567,1.14567,0,0,0,.50328-.88737c.34531-.3632.501-.7644-.05437-.79541-4.12247-.23079-8.36983.14128-12.5.241-.52989.01286-1.474.73608-1.27513,1.23918C21.22073,4.70736,23.75385,6.75781,25.53038,8.68465Z" fill="#f8b63b"/>
    <path d="M424.74376,9.4257a5.38115,5.38115,0,0,0,1.58575-.47689,57.50734,57.50734,0,0,0,4.3468-4.20426A24.45057,24.45057,0,0,1,433.15253,1.942c-18.74141.39469-17.30489.33659-17.61706.42448.775.574,1.45644,1.18831,2.05654,1.70556C419.80014,5.97534,422.38559,7.623,424.74376,9.4257Z" fill="#005574"/>
    <path d="M481.9885,9.002a4.63456,4.63456,0,0,0,1.73718-.775c1.25652-.99251,9.45222-7.48917,9.675-7.68595-5.84021-.18937-6.40129-1.05941-17.5004-.09391-1.0339.578-2.064,1.54077-1.30623,2.22778C481.973,9.36516,481.20669,9.54794,481.9885,9.002Z" fill="#005574"/>
    <path d="M453.59348,8.45451c1.12493.9104,8.23211-5.87785,9.176-6.86206a2.34857,2.34857,0,0,0,.57446-.35742c-12.76045-.17261-3.36661-.12728-16.71491.65609A50.87677,50.87677,0,0,0,453.59348,8.45451Z" fill="#f8b63b"/>
    <path d="M340.02574,10.3746a.70767.70767,0,0,0,.65961-.071,2.37321,2.37321,0,0,0,1.0828-.45011c2.11866-2.23828,4.43177-4.36336,6.737-6.51612-3.47812-.08471-7.19551.604-13.78995-.30574l-.58287.01571c-.62475.01684-1.83147.74137-1.35987,1.17919A72.19292,72.19292,0,0,0,340.02574,10.3746Z" fill="#f8b63b"/>
    <path d="M397.6469,9.69841c2.74888-1.62769,3.5542-3.24585,4.23658-3.63444,1.2273-1.224,2.45239-2.44849,3.66082-3.67855-11.567.41715-5.01211.42513-15.96306-.06185-.34907.16968-.62736.41854-.51642.60669A14.48637,14.48637,0,0,0,397.6469,9.69841Z" fill="#f8b63b"/>
    <path d="M363.792,8.27149A38.44428,38.44428,0,0,0,367.68564,10.75s3.13975-2.39607,4.0063-3.28133a25.85474,25.85474,0,0,0,3.83861-5.05981c-5.873.13606-6.68521.42317-12.64257-.11149-1.20476.11214-2.40814.20035-3.60988.197-.2876.24511-.4587.52083-.32931.71728A24.65153,24.65153,0,0,0,363.792,8.27149Z" fill="#005574"/>
    <path d="M282.119,8.06568c1.80363.43538,4.87089-2.74447,5.288-3.07146,1.384-1.08471,2.7772-2.16821,4.13968-3.25691-6.64056-.24626-5.4331.28759-17.02888-.20362-.19445.01457-.3916.03247-.59323.05469C273.223,2.25651,278.67781,7.23454,282.119,8.06568Z" fill="#f8b63b"/>
    <path d="M306.54506,6.66187c.65177.51343,1.47832,1.7998,3.08252,1.56087,1.39121-.20719,2.40193-1.47135,3.05778-1.98747q2.548-2.00488,4.78942-4.09074c.19078-.17708.1271-.255-.0436-.2705-.05551-.35783-4.1783.6075-14.41461-.04428-.70875-.04516-2.01237.486-1.54322.84538C303.19616,3.99488,304.85677,5.332,306.54506,6.66187Z" fill="#005574"/>
    <path d="M253.23224,8.32316c.29258.21265.99154-.29834.9419-.60644,1.70094-.91122,8.08027-6.18807,7.99374-6.703.01722-.01229.034-.027.051-.04029-8.43611.62923-12.57629-.42676-15.97008-.12524-.21747.22778-.32948.49113-.17821.67846A38.57121,38.57121,0,0,0,253.23224,8.32316Z" fill="#005574"/>
    <path d="M225.25348,8.71436c1.55661-.90454,5.18379-5.76538,6.30823-7.57821-.05486-.00513-4.96379-.59725-5.01873-.604-5.06142.28141-6.02806-.448-9.85312-.4528C218.30638,2.68042,222.76681,6.8147,225.25348,8.71436Z" fill="#f8b63b"/>
    <path d="M173.99525,7.31755a50.7644,50.7644,0,0,0,5.51016-4.9856c.16556-.19368.50108-.53475.04147-.65942-.23869-.06478-8.002.18253-11.554.044-.601-.02335-1.8745.58155-1.56975.92058A20.76977,20.76977,0,0,0,173.99525,7.31755Z" fill="#f8b63b"/>
    <path d="M121.36008,7.94239c.47152.30957,1.07268-.2946,8.155-5.34774-4.95-.13965-9.88333-.39974-14.83422-.53166-.13837.10824-.2058.22355-.11062.32227A39.2966,39.2966,0,0,0,121.36008,7.94239Z" fill="#f8b63b"/>
    <path d="M98.78977,7.17253c.1227.11157.534-.07.60638-.11686,2.23295-1.44458,6.98384-5.22282,6.46-5.21159-2.38912.05094-4.77717.13761-7.16466.21-1.10329.03345-3.18929-.18246-4.0578.31063C93.72941,2.87809,94.48559,3.26229,98.78977,7.17253Z" fill="#005574"/>
    <path d="M194.93752,5.76717c.81267.69816,2.43916,2.878,4.1281,2.77214,1.1868-.07446,1.21676-.3606,6.91983-6.672.48711-.15193,1.0899-.76164.4876-.73584q-6.656.15588-13.31124.35978c-.45071.01319-.97545.36125-1.01194.639C191.95852,3.58472,193.65227,4.66317,194.93752,5.76717Z" fill="#005574"/>
    <path d="M147.111,7.62712a9.04571,9.04571,0,0,0,2.92178-1.713,60.16246,60.16246,0,0,0,4.8944-3.54672c.26433-.21427.16049-.30957-.04882-.31364.51356-.59562-.33429.254-14.17575.37753-.41536.00374-1.21228.42594-.90149.67138C145.89926,7.91935,145.64766,7.90845,147.111,7.62712Z" fill="#005574"/>
    <path d="M75.513,7.896c.17495.17261.64083-.15877.72378-.23462,2.13555-1.95247,4.30826-3.884,6.43337-5.84245l.0249-.01131c-3.78621-.15511-7.61961-.017-11.39651-.00342-.21584.13827-.38115.32243-.292.4681A29.57161,29.57161,0,0,0,75.513,7.896Z" fill="#f8b63b"/>
    <path d="M49.65771,7.51009c.34719.17741,1.08092-.15584,1.24639-.27994a34.88415,34.88415,0,0,0,6.353-5.88322A75.92889,75.92889,0,0,0,47.65113.591C45.98766.55119,44.10166.7749,42.404.60409c-.43054.15625-.81512.41626-.67095.61141A22.14767,22.14767,0,0,0,49.65771,7.51009Z" fill="#005574"/>
    <path d="M9.02233,1.09375C6.59182,1.45915,5.005,1.32349,0,1.20508v6.574s3.27681-1.935,3.9956-2.47828A61.50836,61.50836,0,0,0,9.02233,1.09375Z" fill="#005574"/>
    <path d="M512.57222,8.85824l4.96893-4.35669L521.282.51717s-17.309-.41691-16.5883,1.44865C505.911,5.11678,512.57222,8.85824,512.57222,8.85824Z" fill="#f8b63b"/>
    <path d="M525.93383,13.402c-.64115-.62565-4.35046,3.179-7.35021,5.13314a.90631.90631,0,0,0-.45209.71712c-1.1966,1.13233,1.13668.71208,13.28978.44808.47593-.01041,1.32411-.59489,1.14549-1.00146C531.74148,16.82032,527.52979,14.95915,525.93383,13.402Z" fill="#54754a"/>
    <path d="M531.92491,4.90056C532.6028,5.6709,535,7.77906,535,7.77906s3.27681-1.935,3.9956-2.47828a61.50836,61.50836,0,0,0,5.02673-4.207c-2.43051.3654-4.01732.22974-9.02233.11133-1.78682-.04232-4.00532-.08236-6.85893-.09668C529.3442,2.38705,530.76676,3.58456,531.92491,4.90056Z" fill="#005574"/>
    <polygon points="222.745 16.015 222.748 16.014 222.747 16.012 222.745 16.015" fill="#54754a"/>
    <path d="M548.71427,12.57333a4.15032,4.15032,0,0,0-.87153.33854,47.9271,47.9271,0,0,0-3.42579,3.67659,20.84752,20.84752,0,0,1-1.95155,2.45093c14.77037-.34513,13.88431-.37125,13.88431-.37125Z" fill="#a74624"/>
    <path d="M574.783,14.16024c-.50736-.61027-1.186-2.03629-2.33948-1.86637-.9512.14013-1.798,1.33146-2.33638,1.81071q-2.46263,2.19286-4.91938,4.38965a104.6306,104.6306,0,0,1,12.24461.21435c.23356-.171.40148-.387.29495-.54988A43.41728,43.41728,0,0,0,574.783,14.16024Z" fill="#54754a"/>
    <path d="M597.88364,10.97331a3.091,3.091,0,0,0-1.20631.59123c-.87251.75716-6.56342,5.7133-6.71811,5.86344,4.05536.14445,4.44492.80819,12.152.07162.71789-.44092,1.43317-1.17538.907-1.69955C597.89442,10.69637,598.42651,10.55689,597.88364,10.97331Z" fill="#a74624"/>
    <path d="M623.11581,12.09066c-.78679-.6818-5.75752,4.40145-6.41761,5.13851a1.62878,1.62878,0,0,0-.40181.26766c8.92461.12923,2.35459.09521,11.69031-.49137A36.72674,36.72674,0,0,0,623.11581,12.09066Z" fill="#54754a"/>
    <path d="M645.09836,12.03532c-1.292.09872-2.31369,1.30184-2.95476,1.81405a55.70131,55.70131,0,0,0-4.48345,3.96614c2.9417-.46744,4.49038-.06494,14.16489-.01383-1.07317-1.2054-2.34193-2.33431-3.37493-3.575C647.84552,13.50049,646.796,11.90568,645.09836,12.03532Z" fill="#a74624"/>
    <path d="M669.41426,12.65479a.88225.88225,0,0,0-.64181.05241,2.73992,2.73992,0,0,0-1.05341.33178c-2.06119,1.65007-4.31161,3.21664-6.55427,4.80372,3.38383.06241,7.00048-.44532,13.41606.22534l.567-.01156c.60785-.01237,1.78184-.54655,1.323-.8693A69.0466,69.0466,0,0,0,669.41426,12.65479Z" fill="#54754a"/>
    <path d="M695.40065,11.74667c-2.74888,1.26936-3.5542,2.53133-4.23659,2.83439-1.22729.95451-2.45246,1.9095-3.6609,2.86881,11.567-.32535,5.0122-.33154,15.96314.04826.34907-.1324.62737-.32641.51642-.47322A14.37031,14.37031,0,0,0,695.40065,11.74667Z" fill="#a74624"/>
    <path d="M723.85126,13.26717c-.75879-.58756-1.82878-1.77107-3.18587-1.3859a6.83751,6.83751,0,0,0-2.54038,1.925,17.523,17.523,0,0,0-2.78243,3.398,62.31427,62.31427,0,0,1,9.164.07487c.87325-.07528,1.74551-.13452,2.61655-.13233.2085-.16455.3325-.34969.23878-.48169A17.18541,17.18541,0,0,0,723.85126,13.26717Z" fill="#54754a"/>
    <path d="M747.11563,9.92155c-1.22109-.46549-3.29763,2.934-3.58,3.28353-.937,1.15967-1.88012,2.31795-2.80259,3.48185,4.49561.26327,3.6782-.30745,11.5285.2177.1316-.01563.26507-.03475.40156-.05852C753.13814,16.13184,749.44532,10.81006,747.11563,9.92155Z" fill="#a74624"/>
    <path d="M776.11344,11.684c-.62434-.54313-1.416-1.90421-2.95264-1.65136-1.3326.21915-2.30071,1.55672-2.92889,2.1027q-2.44057,2.12109-4.58761,4.32788c-.1827.18734-.12172.26986.0418.28621.05314.37858,4.00221-.64274,13.80709.04688.67887.04769,1.92763-.51424,1.47824-.89445C779.32118,14.50562,777.73054,13.0909,776.11344,11.684Z" fill="#54754a"/>
    <path d="M803.55055,10.42342c-.28743-.202-.97422.28345-.9254.57609-1.67131.86565-7.93953,5.87842-7.85455,6.36752-.017.01164-.03339.02563-.05021.03825,8.28925-.59774,12.35735.40543,15.69212.119.21364-.2163.32368-.46647.175-.64453A37.39229,37.39229,0,0,0,803.55055,10.42342Z" fill="#a74624"/>
    <path d="M830.56979,11.13461a36.12189,36.12189,0,0,0-7.202,5.70247c.05364.00374,4.85742.43563,4.91122.44051,4.953-.20524,5.89891.32674,9.6421.33024A33.943,33.943,0,0,0,830.56979,11.13461Z" fill="#54754a"/>
    <path d="M858.83215,11.61125a54.75454,54.75454,0,0,0-5.82242,5.54679c-.17486.2155-.5294.59489-.04376.73365.25217.072,8.45538-.20313,12.20869-.049.635.026,1.98062-.64706,1.65865-1.02417C865.07041,14.754,862.13,13.00163,858.83215,11.61125Z" fill="#a74624"/>
    <path d="M888.41266,12.543c-.45-.34977-1.02362.33285-7.78157,6.04183,4.7233.15764,9.43075.45158,14.15494.60059.132-.12232.19633-.25252.10555-.3641A39.65644,39.65644,0,0,0,888.41266,12.543Z" fill="#54754a"/>
    <path d="M918.59833,12.51408c-.17666-.1451-.76891.0909-.87324.15186-3.21567,1.8785-10.05746,6.79158-9.30316,6.777,3.44074-.06625,6.87975-.179,10.31795-.273,1.58886-.04346,4.59284.23722,5.84365-.40389C925.88576,18.09839,924.79676,17.59872,918.59833,12.51408Z" fill="#a74624"/>
    <path d="M951.28308,14.75285c-.90378-.68978-2.71272-2.84334-4.591-2.73869-1.31986.07357-1.35325.35629-7.696,6.59139-.54164.15015-1.21211.75245-.5423.727q7.40259-.15393,14.80426-.35538c.50124-.01311,1.08484-.35694,1.12541-.63135C954.59622,16.90894,952.7125,15.84351,951.28308,14.75285Z" fill="#54754a"/>
    <path d="M974.62263,11.016c-1.21913.30306-2.37181,1.7264-3.1715,2.40414a69.04333,69.04333,0,0,0-5.31277,4.97762c-.28687.3007-.17405.43449.05306.44019-.55756.836.36295-.35637,15.38729-.52979.45079-.00529,1.316-.59774.97847-.9423C975.93777,10.6058,976.21108,10.62118,974.62263,11.016Z" fill="#a74624"/>
    <path d="M1004.1696,10.86271c-.233-.2281-.85358.20972-.96395.31-2.84431,2.57943-5.73792,5.13119-8.56819,7.71851l-.03314.015c5.04256.20484,10.14815.02246,15.17814.00448.28752-.1827.50777-.42594.38907-.61841A39.12742,39.12742,0,0,0,1004.1696,10.86271Z" fill="#54754a"/>
    <path d="M1032.41155,11.11263c-.38679-.22461-1.20427.19727-1.38877.35441a41.353,41.353,0,0,0-7.07869,7.44841,74.71818,74.71818,0,0,0,10.70326.957c1.8536.05038,3.955-.23283,5.84667-.0166.47985-.19784.90843-.527.74777-.77409A25.55307,25.55307,0,0,0,1032.41155,11.11263Z" fill="#a74624"/>
    <path d="M560.53038,8.68465c.71365.77417,4.75872-3.68123,8.09782-6.09912a1.14579,1.14579,0,0,0,.50328-.88737c.34531-.36328.501-.7644-.05437-.79541-4.12247-.23079-8.36983.14128-12.5.241-.52989.01286-1.474.73608-1.27513,1.23918C556.22073,4.70736,558.75385,6.75781,560.53038,8.68465Z" fill="#f8b63b"/>
    <path d="M959.74376,9.4257a5.37918,5.37918,0,0,0,1.58567-.47689,57.49407,57.49407,0,0,0,4.34688-4.20426A24.45912,24.45912,0,0,1,968.15244,1.942c-18.74132.39469-17.3048.3365-17.617.42448.775.574,1.45644,1.18831,2.05654,1.70556C954.80014,5.97534,957.3855,7.623,959.74376,9.4257Z" fill="#005574"/>
    <path d="M1016.9885,9.002a4.63515,4.63515,0,0,0,1.73718-.775c1.25652-.99251,9.4523-7.48917,9.675-7.68595-5.84013-.18937-6.40129-1.05941-17.50048-.09391-1.03382.578-2.06389,1.54077-1.30615,2.22778C1016.973,9.36516,1016.20677,9.54794,1016.9885,9.002Z" fill="#005574"/>
    <path d="M988.5934,8.45451c1.12493.9104,8.23219-5.87785,9.17605-6.86206a2.34335,2.34335,0,0,0,.57438-.3575c-12.76046-.17253-3.36661-.1272-16.71483.65617A50.88554,50.88554,0,0,0,988.5934,8.45451Z" fill="#f8b63b"/>
    <path d="M875.02574,10.3746a.70749.70749,0,0,0,.65961-.071,2.37319,2.37319,0,0,0,1.0828-.45c2.11866-2.23828,4.43177-4.36336,6.737-6.51612-3.47812-.08471-7.19551.604-13.79-.30574l-.58287.01571c-.62475.01684-1.83147.74137-1.35987,1.17919A72.19292,72.19292,0,0,0,875.02574,10.3746Z" fill="#f8b63b"/>
    <path d="M932.6469,9.69841c2.74888-1.62769,3.5542-3.24585,4.23658-3.63444,1.2273-1.224,2.45239-2.44849,3.66082-3.67855-11.567.41715-5.01211.42513-15.96306-.06185-.34907.16968-.62736.41846-.51642.60669A14.48637,14.48637,0,0,0,932.6469,9.69841Z" fill="#f8b63b"/>
    <path d="M898.792,8.27149A38.44428,38.44428,0,0,0,902.68564,10.75s3.13975-2.39607,4.0063-3.28133a25.85474,25.85474,0,0,0,3.83861-5.05981c-5.873.13606-6.68521.42317-12.64257-.11149-1.20476.11214-2.40814.20035-3.60988.197-.2876.245-.4587.52083-.32931.71728A24.65153,24.65153,0,0,0,898.792,8.27149Z" fill="#005574"/>
    <path d="M817.119,8.06568c1.80363.43538,4.87089-2.74447,5.288-3.07146,1.384-1.08471,2.7772-2.16821,4.13968-3.25691-6.64056-.24634-5.4331.28759-17.02888-.2037-.19445.01465-.3916.03247-.59323.05477C808.223,2.25651,813.67781,7.23454,817.119,8.06568Z" fill="#f8b63b"/>
    <path d="M841.54506,6.66187c.65177.51343,1.47832,1.7998,3.08252,1.56087,1.39121-.20719,2.40193-1.47144,3.05778-1.98747q2.548-2.00488,4.78942-4.09074c.19078-.17708.1271-.255-.0436-.2705-.05551-.35791-4.1783.6075-14.41461-.04428-.70875-.04516-2.01237.486-1.54322.84538C838.19616,3.99488,839.85677,5.332,841.54506,6.66187Z" fill="#005574"/>
    <path d="M788.23224,8.32308c.29258.21273.99154-.29826.9419-.60636,1.70094-.91122,8.08027-6.18807,7.99374-6.703.01722-.01229.034-.027.051-.04029-8.43611.62923-12.57629-.42676-15.97008-.12524-.21747.2277-.32948.49113-.17821.67846A38.57084,38.57084,0,0,0,788.23224,8.32308Z" fill="#005574"/>
    <path d="M760.25348,8.71436c1.55661-.90454,5.18379-5.76538,6.30823-7.57821-.05486-.00513-4.96379-.59725-5.01873-.604-5.06142.28141-6.02806-.448-9.85312-.4528C753.30638,2.68042,757.76681,6.8147,760.25348,8.71436Z" fill="#f8b63b"/>
    <path d="M708.99525,7.31747A50.75629,50.75629,0,0,0,714.50541,2.332c.16556-.19368.50108-.53475.04147-.65942-.23869-.06478-8.002.18253-11.554.044-.601-.02335-1.8745.58155-1.56975.9205A20.76764,20.76764,0,0,0,708.99525,7.31747Z" fill="#f8b63b"/>
    <path d="M656.36008,7.94239c.47152.30957,1.07268-.2946,8.155-5.34774-4.95-.13965-9.88333-.39974-14.83422-.53166-.13837.10824-.2058.22355-.11062.32227A39.30028,39.30028,0,0,0,656.36008,7.94239Z" fill="#f8b63b"/>
    <path d="M633.78977,7.17253c.1227.11149.534-.07.60638-.11686,2.23295-1.44458,6.98384-5.22282,6.46-5.21159-2.38912.05094-4.77717.13761-7.16466.21-1.10329.03345-3.18929-.18246-4.0578.31063C628.72941,2.87809,629.48559,3.26229,633.78977,7.17253Z" fill="#005574"/>
    <path d="M729.93752,5.76717c.81267.69816,2.43916,2.878,4.1281,2.77214,1.1868-.07446,1.21676-.36068,6.91983-6.672.48711-.15193,1.0899-.76164.4876-.73584q-6.656.15588-13.31124.35978c-.45071.01319-.97545.36125-1.01194.639C726.95852,3.58472,728.65227,4.66317,729.93752,5.76717Z" fill="#005574"/>
    <path d="M682.111,7.627a9.04268,9.04268,0,0,0,2.92178-1.713,60.15943,60.15943,0,0,0,4.8944-3.54663c.26433-.21427.16049-.30957-.04882-.31364.51356-.5957-.33429.25391-14.17575.37753-.41536.00374-1.21228.42586-.90149.67138C680.89926,7.91935,680.64766,7.90845,682.111,7.627Z" fill="#005574"/>
    <path d="M610.513,7.896c.175.17261.64083-.15877.72378-.23462,2.13555-1.95256,4.30826-3.884,6.43337-5.84245l.0249-.01131c-3.78621-.15511-7.61961-.017-11.39651-.00342-.21584.13827-.38115.32243-.292.4681A29.57161,29.57161,0,0,0,610.513,7.896Z" fill="#f8b63b"/>
    <path d="M584.65771,7.51009c.34719.17741,1.08092-.15584,1.24639-.27994a34.88415,34.88415,0,0,0,6.353-5.88322A75.91259,75.91259,0,0,0,582.65113.591c-1.66347-.03979-3.54947.18392-5.24714.013-.43054.15633-.81512.41634-.671.61149A22.14767,22.14767,0,0,0,584.65771,7.51009Z" fill="#005574"/>
    <path d="M1047.57222,8.85824l4.96893-4.35669L1056.282.51717s-17.309-.41691-16.5883,1.44865C1040.911,5.11678,1047.57222,8.85824,1047.57222,8.85824Z" fill="#f8b63b"/>
    <path d="M1060.93383,13.402c-.64115-.62565-4.35046,3.179-7.35021,5.13314a.9061.9061,0,0,0-.45209.71712c-1.1966,1.13233,1.13668.71208,13.28978.44808.47593-.01041,1.32411-.59489,1.14549-1.00146C1066.74148,16.82032,1062.52979,14.95915,1060.93383,13.402Z" fill="#54754a"/>
    <path d="M1063.14107,1.1084c1.20313,1.27865,2.62569,2.47616,3.78392,3.79216.67789.77034,3.075,2.8785,3.075,2.8785v-6.574C1068.21318,1.16276,1065.99468,1.12272,1063.14107,1.1084Z" fill="#005574"/>
    <polygon points="757.745 16.015 757.748 16.014 757.747 16.012 757.745 16.015" fill="#54754a"/>
    <path d="M1047.15393,13.55738c-2.01589-1.991-4.06573-3.04159-6.12733-4.98788-1.043-.98454-8.03577-7.29386-8.75628-6.63281-5.0504,4.63346-10.34783,8.31771-15.40982,12.93913-4.03993-4.57455-8.92592-7.06592-12.65613-11.89828a1.2078,1.2078,0,0,0-1.84151-.242c-4.50933,4.46671-9.22715,7.18815-13.68586,11.70076C984.33388,9.93205,975.41432,1.6919,974.28614,2.54753c-5.07441,3.84912-9.52185,8.41585-14.168,12.74422-4.42818-4.14062-9.84741-8.25415-14.24376-12.428-.43258-.41064-9.04135,8.06161-13.05368,12.57259C928.4828,11.11068,918.268,2.8676,917.84158,3.15674a139.49251,139.49251,0,0,0-16.03294,13.24431c-2.06748-1.89633-3.94417-4.12842-6.0141-6.02214-1.1957-1.09375-6.93273-7.95866-9.33458-5.30583.07927-.08756-8.72559,7.76026-11.24507,9.60344-5.04567-4.457-16.21931-12.65585-16.21931-12.65585s-9.54732,7.86589-13.72709,12.05567c-4.72835-3.65316-9.4714-6.63949-13.71705-10.82569A1.24927,1.24927,0,0,0,830.0959,3.059,97.23722,97.23722,0,0,0,817.603,13.82235c-4.507-4.01278-10.27052-8.33228-15.087-11.98356-.54989-.41691-9.03058,8.81893-13.36676,12.6425a70.82614,70.82614,0,0,0-14.98524-12.6425,1.22228,1.22228,0,0,0-1.21423,0c-4.99668,3.48071-9.45646,6.58764-13.50357,11.11979C755.4559,9.07845,747.16575.56494,746.73105,1.05485c-3.79168,4.2736-8.40664,8.3947-12.12934,12.72136-4.64108-4.09294-9.60136-7.45329-14.20473-11.58789-.65528-.58855-8.11847,8.297-11.92811,11.77392A57.55944,57.55944,0,0,0,695.18236,2.39136c-.69846-.46208-9.32756,8.24146-13.01777,12.01009q-5.80311-4.9491-11.61047-9.89331a1.53119,1.53119,0,0,0-1.75489-.23112,96.13645,96.13645,0,0,0-12.188,9.04948c-.83528-.80729-4.18213-3.44255-5.10436-4.30965a53.74771,53.74771,0,0,1-5.40339-5.27442,1.14866,1.14866,0,0,0-1.60363-.28532,1.665,1.665,0,0,0-.4547.4148V3.74243c-3.38547,3.36833-6.638,6.19963-10.03133,9.56047-3.3969-3.59391-7.40646-7.26025-10.85584-10.8068-.65537-.67383-8.91425,7.52327-11.90428,11.11067-4.26662-3.514-13.29018-11.81966-13.78407-11.37337-4.49716,4.06348-9.15768,7.88688-13.68521,11.91756-3.14268-3.56437-10.59991-10.86165-11.0747-10.45662-3.87617,3.30615-7.58254,7.43888-11.624,10.39917-4.2183-3.72518-12.10158-12.66862-13.2941-11.6294-2.2941,1.99911-6.88236,6.91268-10.25771,10.62069-.69805-.65788-1.5726-1.40291-2.53385-2.1805-4.27732-3.46021-10.28848-7.571-10.28848-7.571s-8.06247,6.6486-12.55759,10.224c-2.01589-1.991-4.06573-3.04159-6.12741-4.98788-1.04288-.98454-8.03569-7.29386-8.7562-6.63281-5.05048,4.63346-10.34783,8.31771-15.40982,12.93913-4.03993-4.57455-8.92584-7.06592-12.65613-11.89828a1.20779,1.20779,0,0,0-1.84151-.242c-4.50933,4.46671-9.22715,7.18815-13.68586,11.70076C449.33388,9.93205,440.41424,1.6919,439.28614,2.54753c-5.07441,3.84912-9.52185,8.41585-14.168,12.74422-4.42818-4.14062-9.84741-8.25415-14.24376-12.428-.43258-.41064-9.04135,8.06161-13.05368,12.57259C393.4828,11.11068,383.268,2.8676,382.84158,3.15674a139.49251,139.49251,0,0,0-16.03294,13.24431c-2.06748-1.89633-3.94417-4.12842-6.0141-6.02214-1.1957-1.09375-6.93273-7.95866-9.33458-5.30583.07927-.08756-8.72559,7.76026-11.24507,9.60344-5.04567-4.457-16.21931-12.65585-16.21931-12.65585s-9.54732,7.86589-13.72709,12.05567c-4.72835-3.65316-9.4714-6.63949-13.717-10.82569A1.24927,1.24927,0,0,0,295.0959,3.059,97.23722,97.23722,0,0,0,282.603,13.82235c-4.507-4.01278-10.27052-8.33228-15.087-11.98356-.54989-.41691-9.03058,8.81893-13.36676,12.6425a70.82614,70.82614,0,0,0-14.98524-12.6425,1.22228,1.22228,0,0,0-1.21423,0c-4.99668,3.48071-9.45646,6.58764-13.50357,11.11979C220.4559,9.07845,212.16575.56494,211.73105,1.05485c-3.79168,4.2736-8.40664,8.3947-12.12934,12.72136-4.64108-4.09294-9.60136-7.45329-14.20473-11.58789-.65528-.58855-8.11847,8.297-11.92811,11.77392A57.55944,57.55944,0,0,0,160.18236,2.39136c-.69846-.46208-9.32756,8.24146-13.01777,12.01009q-5.80311-4.9491-11.61047-9.89331a1.53119,1.53119,0,0,0-1.75489-.23112,96.13645,96.13645,0,0,0-12.188,9.04948c-.83528-.80729-4.18213-3.44255-5.10436-4.30965a53.74771,53.74771,0,0,1-5.40339-5.27442,1.14866,1.14866,0,0,0-1.60363-.28532,1.665,1.665,0,0,0-.4547.4148V3.74243c-3.38547,3.36833-6.638,6.19963-10.03133,9.56047C95.61688,9.709,91.60732,6.04265,88.15794,2.4961c-.65537-.67383-8.91425,7.52327-11.90428,11.11067C71.987,10.09278,62.96348,1.78711,62.46959,2.2334,57.97243,6.29688,53.31191,10.12028,48.78438,14.151,45.6417,10.58659,38.18447,3.28931,37.70968,3.69434c-3.87617,3.30615-7.58254,7.43888-11.624,10.39917-4.2183-3.72518-12.10158-12.66862-13.2941-11.6294C10.49746,4.46322,5.9092,9.37679,2.53385,13.0848,1.8358,12.42692.96125,11.68189,0,10.9043v3.80762c2.15923,1.6276,3.84164,2.81,3.98572,2.6582,3.51225-3.69938,5.86291-6.99121,9.28038-10.831,4.071,3.65584,7.74761,6.313,11.89064,9.89624a1.253,1.253,0,0,0,1.44713.19059c4.139-2.925,7.71275-5.45606,11.10581-9.16423,3.10146,3.56039,7.0609,6.71094,10.12546,10.3029.46213.54183,10.17639-8.21989,14.71356-12.2251C66.30968,9.687,76.92209,17.07325,77.417,16.474A78.17411,78.17411,0,0,1,87.94471,5.91032c3.2275,3.68164,11.3636,11.40951,11.87888,10.89942,3.37289-3.339,6.78383-6.64161,10.165-9.97282,1.64681,1.79541,3.63078,3.40706,5.379,5.052,1.22623,1.15389,6.43745,5.93416,6.851,5.51229.00457.03288,7.84769-7.335,12.17742-10.11035q5.91039,5.04271,11.82574,10.07975a1.52,1.52,0,0,0,2.06821,0c3.96736-3.97087,8.28836-7.42586,12.11767-11.69515,4.36353,3.16536,8.53064,6.27449,11.73749,10.5804a1.22972,1.22972,0,0,0,2.008.41822l.04971-.05022.00009-.00016.00049-.00049A102.56,102.56,0,0,0,185.397,5.5092a115.69847,115.69847,0,0,0,14.748,11.70369c.51528.3584,8.11635-8.79769,11.80574-13.10189,3.808,4.00782,11.80117,12.66423,11.87137,12.71436.8641.48975,5.68128-4.22021,7.95667-6.06559,1.53073-1.24138,6.4746-5.00407,6.4746-5.00407s11.11675,6.91553,14.79487,11.3654a1.26894,1.26894,0,0,0,1.73188,0c4.4819-3.79362,8.26517-7.10531,12.67588-10.96957,5.22093,3.92025,10.253,6.40007,14.32727,10.14356a1.25957,1.25957,0,0,0,1.71955,0A87.77863,87.77863,0,0,1,295.65256,6.19987c4.34141,4.18124,14.266,12.1906,14.266,12.1906l1.3113-.57805s8.423-8.25464,12.58551-12.42895c5.04632,4.4532,16.454,13.32536,16.454,13.32536S346.1147,13.3807,348.8,10.80827c.71161-.68172,2.68537-2.17668,3.851-3.40617,1.38126,1.3986,3.29061,3.09709,4.12426,3.85938,2.95231,2.69962,10.07492,8.24682,10.07492,8.24682S377.53631,11.24658,383.18812,7.348c4.62606,4.31316,9.57728,7.3309,13.84995,11.67457a1.21649,1.21649,0,0,0,1.67448,0c4.00622-4.53492,7.82165-8.42994,11.86036-12.93612,4.40508,4.11068,9.33882,7.443,13.70945,11.5896a1.21735,1.21735,0,0,0,1.66.00643c4.59717-4.354,9.49083-8.39665,14.12441-12.71249,4.3543,4.52035,9.291,8.47681,13.57059,13.06967.41993.45068,10.34465-7.55363,14.80965-12.019,3.90923,4.78841,8.626,7.42847,12.64837,12.12826a1.202,1.202,0,0,0,1.64559,0c5.06819-4.65544,14.4298-13.5035,15.01471-12.75749,1.27578,1.62712,10.99249,9.30339,13.91991,11.991.4814.442,12.93058-10.622,13.03132-10.71159,1.35831,1.08374,6.64831,5.2937,10.29313,8.0411,2.15923,1.6276,3.84164,2.81,3.98572,2.6582,3.51225-3.69938,5.86291-6.99121,9.28038-10.831,4.071,3.65584,7.74761,6.313,11.89064,9.89624a1.253,1.253,0,0,0,1.44713.19059c4.139-2.925,7.71275-5.45606,11.10581-9.16423,3.10146,3.56039,7.0609,6.71094,10.12546,10.3029.46213.54183,10.17639-8.21989,14.71356-12.2251,3.761,4.14746,14.37339,11.5337,14.86834,10.93449A78.17411,78.17411,0,0,1,622.94471,5.91032c3.2275,3.68164,11.3636,11.40951,11.87888,10.89942,3.37289-3.339,6.78383-6.64161,10.165-9.97282,1.64681,1.79541,3.63078,3.40706,5.379,5.052,1.22623,1.15389,6.43745,5.93416,6.851,5.51229.00457.03288,7.84769-7.335,12.17742-10.11035q5.91039,5.04271,11.82574,10.07975a1.52,1.52,0,0,0,2.06821,0c3.96736-3.97087,8.28836-7.42586,12.11767-11.69515,4.36353,3.16536,8.53064,6.27449,11.73749,10.5804a1.22972,1.22972,0,0,0,2.00805.41822l.04971-.05022.00009-.00016.00049-.00049A102.56,102.56,0,0,0,720.397,5.5092a115.69847,115.69847,0,0,0,14.748,11.70369c.51528.3584,8.11635-8.79769,11.80574-13.10189,3.808,4.00782,11.80117,12.66423,11.87137,12.71436.8641.48975,5.68128-4.22021,7.95667-6.06559,1.53073-1.24138,6.4746-5.00407,6.4746-5.00407s11.11675,6.91553,14.79487,11.3654a1.26894,1.26894,0,0,0,1.73188,0c4.4819-3.79362,8.26517-7.10531,12.67588-10.96957,5.22093,3.92025,10.253,6.40007,14.32727,10.14356a1.25957,1.25957,0,0,0,1.71955,0A87.77863,87.77863,0,0,1,830.65256,6.19987c4.34141,4.18124,14.266,12.1906,14.266,12.1906l1.3113-.57805s8.423-8.25464,12.58551-12.42895c5.04632,4.4532,16.454,13.32536,16.454,13.32536S881.1147,13.3807,883.8,10.80827c.71161-.68172,2.68537-2.17668,3.851-3.40617,1.38126,1.3986,3.29061,3.09709,4.12426,3.85938,2.95231,2.69962,10.07492,8.24682,10.07492,8.24682S912.53631,11.24658,918.18812,7.348c4.62606,4.31316,9.57728,7.3309,13.84995,11.67457a1.21649,1.21649,0,0,0,1.67448,0c4.00622-4.53492,7.82165-8.42994,11.86036-12.93612,4.40508,4.11068,9.33882,7.443,13.70945,11.5896a1.21735,1.21735,0,0,0,1.66.00643c4.59717-4.354,9.49083-8.39665,14.12441-12.71249,4.35422,4.52035,9.291,8.47681,13.57059,13.06967.41993.45068,10.34456-7.55363,14.80965-12.019,3.90931,4.78841,8.626,7.42847,12.64845,12.12826a1.20178,1.20178,0,0,0,1.64542,0c5.0682-4.65544,14.42989-13.5035,15.01488-12.75749,1.27578,1.62712,10.99241,9.30339,13.91983,11.991.48148.442,12.93058-10.622,13.03132-10.71159,1.35839,1.08374,6.64831,5.2937,10.29313,8.0411V10.9043c-4.27732-3.46021-10.28856-7.571-10.28856-7.571S1051.64905,9.98194,1047.15393,13.55738Z" fill="#8f653c"/>
  </g>
</svg>
