<svg xmlns="http://www.w3.org/2000/svg" width="190" height="200" viewBox="0 0 190 200">
  <title>btn-help</title>
  <g id="btn-help">
    <g>
      <path d="M21.4764,14.90792,13.78586,97.14286,110.7071,100,190,89.6784l-3.68863-65.39269s-32.0116,2.23495-54.48041,0C98.05877,20.92644,21.4764,14.90792,21.4764,14.90792Z" opacity="0.5"/>
      <path d="M7.69055,0,0,82.83625l96.92124,2.878,80.55158-6.12181-2.43-71.59557s-34.52895,3.70074-56.99775,1.44946C84.27292,6.06253,7.69055,0,7.69055,0Z" fill="#f8b63b"/>
      <g opacity="0.75">
        <polygon points="56.151 21.694 55.305 36.683 48.823 36.326 48.823 19.81 33.663 19.81 35.785 59.112 48.823 58.367 48.823 43.718 54.896 43.917 54.033 59.222 64.362 59.751 67.333 23.705 56.151 21.694" fill="#fff"/>
        <path d="M95.57262,53.34507c-8.60105.58087-18.15722-1.15923-18.08757-7.41132l20.0104.76717s3.97841-18.43577-12.23927-20.20758c-9.58115-1.04678-15.64988,4.46042-16.06177,13.594C68.00941,66.36441,95.9459,60.58481,95.9459,60.58481ZM85.25393,33.36274c6.55717.99422,5.82626,7.56617,5.82626,7.56617L77.95357,39.794S78.64766,32.36111,85.25393,33.36274Z" fill="#fff"/>
        <polygon points="111.668 20.791 102.101 18.787 99.873 63.112 110.13 63.112 111.668 20.791" fill="#fff"/>
        <path d="M117.665,65.69274l8.33735.094-.115-12.665s19.11879,3.97326,17.86313-13.884c-.97487-13.86413-18.85915-10.11388-18.85915-10.11388l-.35467-2.05174-9.7078.68368Zm17.90736-24.58907c.36269,6.66272-9.80281,6.28369-9.80281,6.28369l-.39106-11.18349S135.257,35.30919,135.57238,41.10367Z" fill="#fff"/>
      </g>
    </g>
    <g>
      <path d="M21.4764,114.90792l-7.69054,82.23494L110.7071,200,190,189.6784l-3.68863-65.39269s-32.0116,2.235-54.48041,0C98.05877,120.92644,21.4764,114.90792,21.4764,114.90792Z" opacity="0.5"/>
      <path d="M7.69055,100,0,182.83625l96.92124,2.878,80.55158-6.12181-2.43-71.59557s-34.52895,3.70074-56.99775,1.44946C84.27292,106.06253,7.69055,100,7.69055,100Z" fill="#fff"/>
      <g>
        <polygon points="56.151 121.694 55.305 136.683 48.823 136.326 48.823 119.81 33.663 119.81 35.785 159.112 48.823 158.367 48.823 143.718 54.896 143.917 54.033 159.222 64.362 159.751 67.333 123.705 56.151 121.694" fill="#231f20"/>
        <path d="M95.57262,153.34507c-8.60105.58087-18.15722-1.15924-18.08757-7.41132l20.0104.76717s3.97841-18.43577-12.23927-20.20758c-9.58115-1.04678-15.64988,4.46042-16.06177,13.594-1.185,26.27707,26.75149,20.49747,26.75149,20.49747ZM85.25393,133.36274c6.55717.99422,5.82626,7.56617,5.82626,7.56617L77.95357,139.794S78.64766,132.36111,85.25393,133.36274Z" fill="#231f20"/>
        <polygon points="111.668 120.791 102.101 118.787 99.873 163.112 110.13 163.112 111.668 120.791" fill="#231f20"/>
        <path d="M117.665,165.69274l8.33735.094-.115-12.665s19.11879,3.97326,17.86313-13.884c-.97487-13.86413-18.85915-10.11388-18.85915-10.11388l-.35467-2.05174-9.7078.68368Zm17.90736-24.58907c.36269,6.66272-9.80281,6.28369-9.80281,6.28369l-.39106-11.18349S135.257,135.30919,135.57238,141.10367Z" fill="#231f20"/>
      </g>
    </g>
  </g>
</svg>
