<svg xmlns="http://www.w3.org/2000/svg" width="240" height="200" viewBox="0 0 240 200">
  <title>btn-create</title>
  <g id="btn-help">
    <g>
      <path d="M240.0432,97.92958l-4.3007-79.28743S109.16688,10.651,80.37607,17.56024C69.712,20.11942,10.845,14.75531,10.845,14.75531l.1041,77.25275L83.22182,100Z" opacity="0.5"/>
      <path d="M225.75994,79.66411,221.78346,9.35479S98.36513-4.10433,69.57433,2.80493C58.91025,5.36411.0432,0,.0432,0L4.97968,80.074l67.4404,5.1707Z" fill="#f8b63b"/>
      <g opacity="0.75">
        <path d="M64.81032,60l8.96147-1.66438c-3.65927-22.02275-.38893-27.03472,9.36184-25.16582l1.38762-6.86308c-9.0989-3.66594-13.84073,1.18733-13.84073,1.18733l-.675-2.65067-9.25873.47012Z" fill="#fff"/>
        <path d="M172.27034,50.80132c-7.53462,1.0581-10.76375-4.17927-9.83006-16.8424l6.61145.212-.08013-8.90368-5.87369.1896L163.03145,18h-9.945l-.44879,7.79455-3.99672.129-1.08236,7.54934h4.1261c-.18411,7.73058-2.0182,31.08381,21.66206,24.24882Z" fill="#fff"/>
        <path d="M59.00162,20.70357,56.63729,30.3617C34.09066,24.18916,33.05913,51.00884,54.209,47.54677l1.04953,10.76247S26.9038,62.39612,26.889,39.78689C26.87,10.77932,59.00162,20.70357,59.00162,20.70357Z" fill="#fff"/>
        <path d="M146.17387,35.49567c-.98839-19.04971-24.39754-10.66625-24.39754-10.66625l-.27387,6.57181c6.6151-2.5141,14.94826-3.32713,14.98992,3.29082-8.72119-1.411-19.10479-1.33619-18.94759,10.63363.17132,13.0452,16.60393,11.53816,16.60393,11.53816l.00024,2.23869,9.985.5713S146.56489,43.03209,146.17387,35.49567Zm-20.495,9.13529c.647-7.91611,10.70265-3.43766,10.70265-3.43766L134.948,50.48082S125.081,51.94516,125.67886,44.631Z" fill="#fff"/>
        <path d="M114.43937,49.5362c-8.693,1.87282-18.70624,1.51868-19.56551-4.87342l20.5395-2.19464s1.31751-19.41008-15.50013-18.8053c-9.9356.35727-15.31065,6.88175-14.37193,16.266,2.7007,26.9983,30.35643,16.94165,30.35643,16.94165ZM100.93316,30.675c6.84109.03907,7.073,6.85607,7.073,6.85607L94.43844,38.326S94.04085,30.63569,100.93316,30.675Z" fill="#fff"/>
        <path d="M196.83671,51.3256c-8.0171.71477-16.26931-1.34828-15.57943-8.09061l16.58494,2.75748s6.00417-17.23264-8.40131-20.08586a14.53135,14.53135,0,0,0-17.12572,12.72392c-1.0559,8.44721,2.17135,13.63113,5.18666,16.63447,6.84967,6.82247,18.05444,2.73179,18.05444,2.73179Zm-8.0171-18.88423c4.12611,1.03153,4.01176,6.94249,4.01176,6.94249l-10.92049-1.78274S183.38279,31.08216,188.81961,32.44137Z" fill="#fff"/>
      </g>
    </g>
    <g>
      <path d="M240,197.92958l-4.3007-79.28743S109.12368,110.651,80.33287,117.56024c-10.66407,2.55918-69.53112-2.80493-69.53112-2.80493l.1041,77.25275L83.17862,200Z" opacity="0.5"/>
      <path d="M225.71674,179.66411l-3.97648-70.30932S98.32193,95.89567,69.53112,102.80493C58.86705,105.36411,0,100,0,100l4.93648,80.074,67.44039,5.1707Z" fill="#fff"/>
      <g>
        <path d="M64.76712,160l8.96147-1.66438c-3.65927-22.02275-.38893-27.03472,9.36183-25.16582l1.38763-6.86308c-9.0989-3.66594-13.84073,1.18733-13.84073,1.18733l-.675-2.65067-9.25873.47012Z" fill="#231f20"/>
        <path d="M172.22714,150.80132c-7.53463,1.0581-10.76375-4.17927-9.83006-16.8424l6.61145.21205-.08013-8.90368-5.87369.1896L162.98825,118h-9.945l-.44879,7.79455-3.99673.129-1.08235,7.54934h4.1261c-.18411,7.73058-2.0182,31.08381,21.66206,24.24882Z" fill="#231f20"/>
        <path d="M58.95842,120.70357l-2.36433,9.65813c-22.54664-6.17254-23.57816,20.64714-2.42828,17.18507l1.04953,10.76247s-28.35474,4.08688-28.36956-18.52235C26.82677,110.77932,58.95842,120.70357,58.95842,120.70357Z" fill="#231f20"/>
        <path d="M146.13066,135.49567c-.98839-19.04971-24.39753-10.66625-24.39753-10.66625l-.27387,6.57181c6.6151-2.5141,14.94826-3.32713,14.98992,3.29082-8.72119-1.411-19.10479-1.33619-18.94759,10.63363.17131,13.0452,16.60392,11.53816,16.60392,11.53816l.00024,2.23869,9.985.5713S146.52169,143.03209,146.13066,135.49567Zm-20.495,9.13529c.647-7.91611,10.70264-3.43766,10.70264-3.43766l-1.43355,9.28752S125.03784,151.94516,125.63566,144.631Z" fill="#231f20"/>
        <path d="M114.39617,149.5362c-8.693,1.87282-18.70624,1.51868-19.56551-4.87342l20.5395-2.19464s1.31751-19.41008-15.50013-18.8053c-9.9356.35727-15.31066,6.88175-14.37193,16.266,2.70069,26.9983,30.35643,16.94165,30.35643,16.94165ZM100.89,130.675c6.84108.03907,7.073,6.85607,7.073,6.85607l-13.56771.79489S93.99765,130.63569,100.89,130.675Z" fill="#231f20"/>
        <path d="M196.79351,151.3256c-8.0171.71477-16.26931-1.34828-15.57943-8.09061l16.58494,2.75748s6.00417-17.23264-8.40131-20.08586A14.53135,14.53135,0,0,0,172.272,138.63053c-1.0559,8.44721,2.17135,13.63113,5.18666,16.63447,6.84967,6.82247,18.05444,2.73179,18.05444,2.73179Zm-8.0171-18.88423c4.12611,1.03153,4.01176,6.94249,4.01176,6.94249l-10.9205-1.78274S183.33959,131.08216,188.77641,132.44137Z" fill="#231f20"/>
      </g>
    </g>
  </g>
</svg>
