<svg xmlns="http://www.w3.org/2000/svg" width="140" height="150" viewBox="0 0 140 150">
  <title>btn-art</title>
  <g id="btn-help">
    <g>
      <path d="M140,67.25866l-5.10576-54.878a199.09718,199.09718,0,0,0-54.31842.57593c-10.64689,1.66211-69.61611-2.64271-69.61611-2.64271l.88517,53.42844L84.2573,70Z" fill="#231f20" opacity="0.5"/>
      <path d="M129.04029,56.94481l-4.23076-52.503s-26.449-6.28644-55.19342-1.79907C58.96922,4.30482,0,0,0,0L5.75,55.42844l67.54759,4.25772Z" fill="#f8b63b"/>
      <g opacity="0.75">
        <path d="M60.92,49.0414l7.63582-1.843C65.49094,24.898,70.43848,22.54516,78.54142,25.44075l1.14537-6.69063C70.7635,15.462,66.30956,20.30247,66.30956,20.30247l-.731-2.54891-8.95808.72435Z" fill="#fff"/>
        <path d="M103.10142,38.74219c-6.28061,1.77757-10.2715-.10722-10.12124-11.231l5.625.18673L98.537,19.85778l-4.9973.16695c.26381-2.16626.62263-4.55039,1.08264-7.17065L85.8996,11.64193s-.74835,3.68713-1.25945,8.68012l-3.40038.11361L81.19652,27.12l2.99657.09948c-.15665,6.80717.63136,14.03957,4.06716,17.59344,2.62071,2.71077,7.17552,3.91027,15.8306,1.806Z" fill="#fff"/>
        <path d="M49.8996,47.81217l8.13995-2.52084L44.44369,13.79828l-10.59822-.47539-8.896,34.49961,8.92539-1.5176,3.16069-10.52058,8.20836-.15173ZM38.40823,30.48809l2.08641-7.27953,2.86455,7.4938Z" fill="#fff"/>
      </g>
    </g>
    <g>
      <path d="M140,147.25866l-5.10576-54.878a199.09718,199.09718,0,0,0-54.31842.57593c-10.64689,1.66211-69.61611-2.64271-69.61611-2.64271l.88517,53.42844L84.2573,150Z" fill="#231f20" opacity="0.5"/>
      <path d="M129.04029,136.94481l-4.23076-52.503s-26.449-6.28644-55.19342-1.79907C58.96922,84.30482,0,80,0,80l5.75,55.42844,67.54759,4.25772Z" fill="#fff"/>
      <g>
        <path d="M60.92,129.0414l7.63582-1.843c-3.06487-22.30038,1.88267-24.65324,9.98561-21.75765l1.14537-6.69063c-8.92329-3.28814-13.37723,1.55235-13.37723,1.55235l-.731-2.54891-8.95808.72435Z" fill="#231f20"/>
        <path d="M103.10142,118.74219c-6.28061,1.77757-10.2715-.10722-10.12124-11.231l5.625.18673L98.537,99.85778l-4.9973.16695c.26381-2.16626.62263-4.55039,1.08264-7.17065L85.8996,91.64193s-.74835,3.68713-1.25945,8.68012l-3.40038.11361L81.19652,107.12l2.99657.09948c-.15665,6.80717.63136,14.03957,4.06716,17.59344,2.62071,2.71077,7.17552,3.91027,15.8306,1.806Z" fill="#231f20"/>
        <path d="M49.8996,127.81217l8.13995-2.52084-13.59586-31.493-10.59822-.47539-8.896,34.49961,8.92539-1.5176,3.16069-10.52058,8.20836-.15173ZM38.40823,110.48809l2.08641-7.27953,2.86455,7.4938Z" fill="#231f20"/>
      </g>
    </g>
  </g>
</svg>
