<svg xmlns="http://www.w3.org/2000/svg" width="220" height="200" viewBox="0 0 220 200">
  <title>btn-learn</title>
  <g id="btn-help">
    <g>
      <path d="M11.76941,27.15653,18.95853,100S109.7573,83.81888,126.85214,80.90478s93.03754,5.0541,93.03754,5.0541L220,25.53037l-81.70221-14.2575Z" opacity="0.5"/>
      <path d="M0,12.13367,7.18912,84.97713S102.90516,72.9141,120,70s88.12027.936,88.12027.936L204.00519,11.25,126.52838,0Z" fill="#f8b63b"/>
      <g opacity="0.75">
        <polygon points="45.701 19.56 34.524 20.526 38.549 56.25 60.504 53.066 58.115 44.507 48.231 45.672 45.701 19.56" fill="#fff"/>
        <path d="M85.39055,43.28782c-7.01479,2.63166-15.01878,4.733-17.86581-.92911l16.817-3.878s-.91676-16.49947-14.88737-13.8281c-8.25362,1.57819-12.00561,8.46-9.95086,15.85421,5.64233,20.30453,27.17877,8.802,27.17877,8.802ZM70.12418,30.47116c5.32615-.82842,6.37762,4.61009,6.37762,4.61009L66.05008,37.42394S64.75814,31.30581,70.12418,30.47116Z" fill="#fff"/>
        <path d="M111.82731,28.10573c-3.35868-16.70721-24.972-5.94362-24.972-5.94362l.61426,5.84412c5.52961-3.08731,14.78079-5.188,15.68047.65564-7.90617-.10632-16.99959,4.38625-15.39092,11.87666,2.44735,11.39548,16.61023,8.20029,16.61023,8.20029l.33952,1.71269,8.46429-.70984S113.15607,34.71541,111.82731,28.10573ZM94.8709,38.86054c-.82411-5.53028,8.46558-5.39951,8.46558-5.39951l.50441,9.35727S95.83725,45.3453,94.8709,38.86054Z" fill="#fff"/>
        <path d="M117.44728,52.61605l7.93793-1.12369c-.63042-22.56781,4.52711-24.60837,12.15334-21.30513l2.041-7.059c-8.77777-4.266-14.01555.56434-14.01555.56434l-.46692-3.3144-9.12164,1.038Z" fill="#fff"/>
        <path d="M173.39963,48.35718s1.7417-19.39453-5.13349-25.10694c-7.35819-6.11371-17.53173-.287-17.53173-.287l-.45775-3.66205-8.07883.60788-.64177,29.59408L150.225,48.75s-1.2441-17.5,8.1578-18.08624C166.40838,30.16334,163.91008,50,163.91008,50Z" fill="#fff"/>
      </g>
    </g>
    <g>
      <path d="M11.76941,127.15653,18.95853,200s90.79877-16.18112,107.89361-19.09522,93.03754,5.0541,93.03754,5.0541L220,125.53037l-81.70221-14.25751Z" opacity="0.5"/>
      <path d="M0,112.13366l7.18912,72.84347S97.98789,168.796,115.08273,165.88192s93.03754,5.05409,93.03754,5.05409l-4.11508-59.686L126.52838,100Z" fill="#fff"/>
      <g>
        <polygon points="45.701 119.56 34.524 120.526 38.549 156.25 60.504 153.066 58.115 144.507 48.231 145.672 45.701 119.56" fill="#231f20"/>
        <path d="M85.39055,143.28782c-7.01479,2.63166-15.01878,4.733-17.86581-.92911l16.817-3.878s-.91676-16.49947-14.88736-13.8281c-8.25363,1.57819-12.00562,8.46-9.95087,15.85421,5.64233,20.30453,27.17877,8.802,27.17877,8.802ZM70.12418,130.47116c5.32615-.82842,6.37762,4.61009,6.37762,4.61009l-10.45172,2.34269S64.75815,131.30581,70.12418,130.47116Z" fill="#231f20"/>
        <path d="M111.82731,128.10573c-3.35868-16.70721-24.972-5.94362-24.972-5.94362l.61426,5.84412c5.52961-3.08731,14.78079-5.188,15.68047.65564-7.90617-.10632-16.99959,4.38624-15.39092,11.87666,2.44735,11.39548,16.61023,8.20029,16.61023,8.20029l.33952,1.71269,8.46429-.70984S113.15607,134.71541,111.82731,128.10573ZM94.8709,138.86054c-.82411-5.53028,8.46558-5.39951,8.46558-5.39951l.50441,9.35727S95.83725,145.3453,94.8709,138.86054Z" fill="#231f20"/>
        <path d="M117.44728,152.61605l7.93793-1.12369c-.63042-22.56781,4.52711-24.60837,12.15334-21.30513l2.041-7.059c-8.77777-4.26605-14.01555.56434-14.01555.56434l-.46692-3.3144-9.12164,1.03795Z" fill="#231f20"/>
        <path d="M173.39963,148.35718s1.7417-19.39453-5.13349-25.10694c-7.35819-6.11371-17.53173-.287-17.53173-.287l-.45775-3.662-8.07883.60788-.64176,29.59408L150.225,148.75s-1.2441-17.5,8.1578-18.08624c8.0256-.50042,5.5273,19.33624,5.5273,19.33624Z" fill="#231f20"/>
      </g>
    </g>
  </g>
</svg>
