<svg id="Layer_1" data-name="Layer 1" xmlns="http://www.w3.org/2000/svg" width="60" height="30" viewBox="0 0 60 30"><title>ccf-kids-logo</title><ellipse cx="22.68846" cy="3.56393" rx="2.84144" ry="2.96271" transform="translate(19.05094 26.2407) rotate(-89.81412)" fill="#fdba4d"/><polygon points="20.323 21.673 9.388 13.825 16.295 3.557 13.25 0 6.875 9.088 5.926 0.927 0 2.346 4.583 30 10.509 28.529 8.888 19.251 17.36 26.264 20.323 21.673" fill="#fdba4d"/><polygon points="20.72 8.256 25.756 8.173 29.003 23.319 22.221 24.845 20.72 8.256" fill="#fdba4d"/><path d="M39.82884,0l-.84962,6.39517S28.61445,3.75909,28.60945,12.072c-.00565,9.40185,13.07977,8.08714,13.07977,8.08714l3.126-18.43922ZM33.16007,11.94557c.66369-3.13114,5.40973-1.51034,5.40973-1.51034L37.85932,15.668S32.38184,15.61709,33.16007,11.94557Z" fill="#fdba4d"/><path d="M49.37507,12.545c.79147-2.60476,6.17321.62523,6.17321.62523L56.78893,9.3336s-9.94454-5.59325-11.93052,2.54477a5.30468,5.30468,0,0,0,3.13028,6.16681c2.63361,1.137,7.379,1.75814,6.48346,4.28231C53.00752,26.4559,43,17.9574,32.59329,24.84476l3.12546,4.12405c8.20244-4.747,13.94726-.50106,19.232-.92933,5.81628-.47133,6.82062-7.87026,1.89782-10.6365C52.3041,14.84934,48.53627,15.30557,49.37507,12.545Z" fill="#fdba4d"/><path d="M40.563,25.24126c-.18509-1.12617-1.413-.56938-1.955-1.08494-.3278-.31179-.19455-1.11249-.49788-1.507-.41493-.5396-2.91949.06255-3.0049.81519-.0356.31366,1.29913-.19776,1.71767.19836.35049.33172-.25256,1.05793.05556,1.32664.31726.27668,1.15506.19149,1.40715.49554.49591.59811-1.02031,1.86373-.17812,2.1495a2.11928,2.11928,0,0,0,2.06957-.28152C40.61079,26.95891,40.6291,25.84991,40.563,25.24126Z" fill="#231f20"/><path d="M43.07879,22.09542c-.66957-.49507-3.315-.12359-2.14706.67113.61678.4197,1.45778.34856.90226.93747-.78964.8371.28313,1.16073.80051,1.21009C43.47945,24.99472,43.85944,22.67261,43.07879,22.09542Z" fill="#231f20"/><path d="M44.39891,24.78833c-.62817.11566-.251.98048-1.5254,1.57414-1.07757.502.72741,1.00922,1.40117.72958C45.19025,26.712,45.11442,24.65659,44.39891,24.78833Z" fill="#231f20"/><path d="M45.69735,22.21149c-1.61581-.65776-.931.6493-.52464,1.19221.69268.9254,1.21316,1.00553,1.53533.47792C47.04244,23.33382,46.78248,21.75725,45.69735,22.21149Z" fill="#231f20"/><path d="M52.23131,24.68233c.1876.2525,1.57554.37619,1.56543-.24486C53.78389,23.64769,51.59669,23.82817,52.23131,24.68233Z" fill="#231f20"/><path d="M47.29724,24.68471c-.29515-.14175-.81114.38366-.371.83266-.02222.01445-.78472.81072-.15009.93078C48.39086,26.75363,48.90561,25.45712,47.29724,24.68471Z" fill="#231f20"/><path d="M48.75691,23.47942c-.44412.12076-.8818.77232-.41713.97565.277.12122,1.60243-.2618,1.57638-.71629C49.90406,23.52785,49.17325,23.36623,48.75691,23.47942Z" fill="#231f20"/><path d="M49.19945,27.55452c.35566.52733,1.13568.16448,1.51048-.32789C51.47252,26.22482,48.42667,26.40875,49.19945,27.55452Z" fill="#231f20"/><path d="M53.73582,25.91937l-.02071-.02914c-.3978-.55971-2.03668-.00314-1.23809.716l.02072.02914C52.51389,27.54616,53.93227,26.657,53.73582,25.91937Z" fill="#231f20"/><path d="M55.19213,26.47407c-.523.077-1.19369,1.09525-.05083.97332C56.08241,27.347,56.32862,26.3068,55.19213,26.47407Z" fill="#231f20"/><path d="M55.89508,24.32331c-.63866-.10971-.87427,1.04031-.11125.83851C56.40054,24.99871,56.51224,24.42933,55.89508,24.32331Z" fill="#231f20"/><path d="M51.22077,25.06459c-.17347-.4316-1.12359-.28381-1.26651.15259C49.63478,26.19266,51.45629,25.69919,51.22077,25.06459Z" fill="#231f20"/><path d="M33.53558,24.51152c-1.42618-.35541-2.19658,2.17712-2.65956,3.682-.18085.58781.52543.17758.64264.27777.28718.24548-.80461.84709-.42564,1.1256.307.2256,1.57534-.02262,1.57534-.02262a.54476.54476,0,0,0,.415.404c1.01389.12468,3.15278-.26321,3.31666-1.74213.0663-.59826-.70342-.07657-1.02533-.37866s.484-.51122.42867-1.4685c-.03648-.63068-1.2423-.49579-1.2423-.49579A1.24048,1.24048,0,0,0,33.53558,24.51152Z" fill="#231f20"/></svg>