<svg id="Artwork" xmlns="http://www.w3.org/2000/svg" width="215" height="110" viewBox="0 0 215 110">
  <title>ccf-kids-logo-large</title>
  <g>
    <g>
      <ellipse cx="81.3003" cy="13.06774" rx="10.41862" ry="10.6164" transform="translate(67.64655 94.27168) rotate(-89.58678)" fill="#fdba4d"/>
      <polygon points="72.824 79.467 33.642 50.691 58.392 13.041 47.479 0 24.634 33.321 21.233 3.398 0 8.602 16.424 110 37.657 104.605 31.85 70.588 62.207 96.301 72.824 79.467" fill="#fdba4d"/>
      <polygon points="74.246 30.271 92.292 29.966 103.926 85.502 79.625 91.097 74.246 30.271" fill="#fdba4d"/>
      <path d="M142.72,0l-3.04449,23.449s-37.14042-9.66562-37.15833,20.81492c-.02026,34.47347,46.86917,29.65286,46.86917,29.65286L160.58778,6.30626ZM118.82359,43.80041c2.3782-11.48082,19.38488-5.53789,19.38488-5.53789l-2.54591,19.18662S116.03494,57.26268,118.82359,43.80041Z" fill="#fdba4d"/>
      <path d="M176.92734,45.99845c2.83608-9.55079,22.12066,2.2925,22.12066,2.2925l4.44565-14.06774s-35.6346-20.5086-42.751,9.33081a19.5714,19.5714,0,0,0,11.21683,22.61163c9.43711,4.16916,26.44124,6.44654,23.23239,15.70183-5.24823,15.13748-41.10853-16.0237-78.39925,9.23L127.99218,106.219c29.39209-17.4057,49.97769-1.83724,68.91466-3.40753,20.84169-1.72823,24.44056-28.85763,6.80052-39.0005C187.423,54.44758,173.92165,56.12043,176.92734,45.99845Z" fill="#fdba4d"/>
    </g>
    <path d="M145.35091,92.55127c-.66322-4.12926-5.0632-2.08771-7.00547-3.97808-1.17463-1.14325-.69712-4.07916-1.78408-5.52559-1.48682-1.97853-10.4615.22938-10.76756,2.98906-.12754,1.15007,4.65524-.72513,6.155.72731,1.25593,1.2163-.905,3.87906.19911,4.86434,1.13686,1.01451,4.139.70212,5.04229,1.817,1.777,2.19308-3.6561,6.83369-.63827,7.88151,2.166.75207,5.31715.9195,7.416-1.03223C145.522,98.84935,145.58762,94.783,145.35091,92.55127Z" fill="#231f20"/>
    <path d="M154.36567,81.01654c-2.39931-1.81526-11.87877-.45317-7.69365,2.46082,2.21016,1.53887,5.22374,1.278,3.23312,3.43739-2.82955,3.06937,1.01453,4.256,2.86848,4.437C155.80135,91.64729,157.163,83.13291,154.36567,81.01654Z" fill="#231f20"/>
    <path d="M159.09609,90.89056c-2.25094.42407-.89944,3.59509-5.466,5.77182-3.86127,1.84054,2.60657,3.70048,5.02089,2.67512C161.93174,97.94415,161.66,90.40751,159.09609,90.89056Z" fill="#231f20"/>
    <path d="M163.74884,81.44211c-5.79-2.41175-3.33618,2.38079-1.88,4.37147,2.48212,3.39312,4.34715,3.68693,5.5016,1.75236C168.56873,85.55733,167.63722,79.77657,163.74884,81.44211Z" fill="#231f20"/>
    <path d="M187.1622,90.50189c.67224.92584,5.64567,1.37936,5.60947-.89782C192.72562,86.7082,184.88814,87.37,187.1622,90.50189Z" fill="#231f20"/>
    <path d="M169.48179,90.5106c-1.05762-.51973-2.90661,1.40675-1.32947,3.0531-.07961.053-2.81193,2.97262-.53781,3.41285C173.40059,98.09665,175.24509,93.34279,169.48179,90.5106Z" fill="#231f20"/>
    <path d="M174.71226,86.09122c-1.59142.44276-3.15977,2.83181-1.49472,3.57735.99266.44448,5.742-.95992,5.64869-2.62638C178.82289,86.26879,176.20413,85.67617,174.71226,86.09122Z" fill="#231f20"/>
    <path d="M176.298,101.03324c1.27445,1.93354,4.06951.60308,5.41256-1.20228C184.4432,96.15768,173.52892,96.83209,176.298,101.03324Z" fill="#231f20"/>
    <path d="M192.55336,95.03769l-.07422-.10686c-1.42544-2.05224-7.29811-.01148-4.43647,2.62529l.07422.10687C188.17477,101.00257,193.2573,97.74214,192.55336,95.03769Z" fill="#231f20"/>
    <path d="M197.7718,97.07158c-1.874.28222-4.2774,4.01593-.18213,3.56884C200.962,100.27227,201.84423,96.45826,197.7718,97.07158Z" fill="#231f20"/>
    <path d="M200.2907,89.18548C198.00217,88.7832,197.15789,93,199.89207,92.26,202.10192,91.66194,202.5022,89.57421,200.2907,89.18548Z" fill="#231f20"/>
    <path d="M183.5411,91.90351c-.62159-1.58256-4.02619-1.04065-4.53834.55949C177.858,96.03976,184.385,94.23035,183.5411,91.90351Z" fill="#231f20"/>
    <path d="M120.16917,89.87556c-5.11048-1.30314-7.87109,7.9828-9.53011,13.50058-.648,2.15528,1.88279.65111,2.30282,1.01849,1.02906.90008-2.88321,3.106-1.52522,4.12719,1.1.82719,5.645-.08294,5.645-.08294s.31975,1.33432,1.487,1.48119c3.6331.45715,11.29745-.9651,11.88469-6.38781.23756-2.19363-2.52058-.28074-3.6741-1.38842s1.73446-1.87446,1.53605-5.38449c-.13072-2.31251-4.45154-1.81791-4.45154-1.81791A4.55418,4.55418,0,0,0,120.16917,89.87556Z" fill="#231f20"/>
  </g>
</svg>
