<svg id="Layer_1" data-name="Layer 1" xmlns="http://www.w3.org/2000/svg" width="55" height="65" viewBox="0 0 55 65">
  <title>icon-resource-library-cheetah-strides</title>
  <g>
    <path d="M15.00544,11.87581c-1.40952-.73774-4.86955.53176-5.61206,4.02336-.59684,2.80658-.046,6.762,2.66245,11.28593,2.28067,3.80946,3.842,5.59744,9.1067,1.76269,1.97189-1.43631,2.597-2.99712,1.6629-6.72646C21.8425,18.297,18.4186,13.66224,15.00544,11.87581Z" fill="#212529"/>
    <path d="M43.76025,13.51725c1.45516-.61573,1.79357-1.88063,1.04523-2.94885-.49013-.69964-2.32611-2.401-3.44534-1.69062C40.332,9.53029,41.25307,14.57811,43.76025,13.51725Z" fill="#212529"/>
    <g id="lBlDq8">
      <path d="M53.45148,47.49038c1.28474,4.93415-.58123,8.84851-6.582,9.17038-5.31012.28482-9.68233-2.541-12.964,1.5178-1.66494,2.05925-2.52271,4.77516-7.02013,6.31856C18.55207,67.3569,13.181,57.526,20.19626,47.50153c2.28176-3.26053,1.23036-6.77989,1.761-9.84516A9.86668,9.86668,0,0,1,33.61936,29.711c4.17711.85486,4.89215,4.51743,7.30483,6.788C44.3453,39.71871,51.36667,39.48353,53.45148,47.49038Z" fill="#212529"/>
    </g>
    <path d="M1.49959,40.24815C.292,35.99311.1551,31.00161,2.79439,28.59629c2.03456-1.85422,6.93479,1.0994,9.47,6.69154,4.106,9.05677-2.67111,12.20725-5.50857,11.21225C3.68505,45.42323,2.06972,42.25706,1.49959,40.24815Z" fill="#212529"/>
    <path d="M31.48842,7.92958c-2.69991-2.07189-8.78079-1.45189-7.55676,4.289,2.0091,9.423,2.84692,13.94786,9.45677,12.07159C41.01688,22.12477,37.30712,12.3948,31.48842,7.92958Z" fill="#212529"/>
    <path d="M53.773,30.5123c-1.8963,2.70173-6.43058,3.11571-8.65344,1.41547-2.64946-2.02655-2.77294-5.6724-3.24891-13.22765-.17423-2.76566,3.836-3.63469,6.70284-1.75518C53.36629,20.08709,57.00183,25.91212,53.773,30.5123Z" fill="#212529"/>
    <path d="M25.54455,4.84637c1.47646-.62447,1.82236-1.901,1.0662-2.97657-.49525-.70447-2.35249-2.416-3.48864-1.69688C22.07846.83346,23.00069,5.92228,25.54455,4.84637Z" fill="#212529"/>
    <path d="M11.5525,9.88537a1.923,1.923,0,0,1-2.786-1.64228c-.11766-.92138.07041-3.62589,1.38007-3.85518C11.34962,4.17729,14.12357,8.941,11.5525,9.88537Z" fill="#212529"/>
    <path d="M2.94357,26.05376C1.33065,26.65033.16434,25.9061.017,24.50918c-.09653-.91492.19045-3.61835,1.598-3.89083C2.908,20.36805,5.72254,25.02591,2.94357,26.05376Z" fill="#212529"/>
  </g>
</svg>
