<svg id="Layer_1" data-name="Layer 1" xmlns="http://www.w3.org/2000/svg" width="85" height="65" viewBox="0 0 85 65">
  <title>icon-resource-library-progress-reports</title>
  <g>
    <path d="M23.23607,37.11862a1.90437,1.90437,0,0,0,1.281.619c3.55733-.00268,4.83982-4.50313,9.7576-8.16953L45.45343,41.20193a5.01531,5.01531,0,0,0,7.2946,0l14.51585-15.1068c1.21183,1.10249,6.34246,5.56878,7.95381,5.49051a3.9069,3.9069,0,0,0,4.83377-3.90082V7.87973A2.63031,2.63031,0,0,0,77.47379,5.1954h-19.032a4.04881,4.04881,0,0,0-2.73565,6.87352l.10928.11373a31.97187,31.97187,0,0,0,4.22042,6.25181l-10.93429,11.381L37.27387,17.50629a5.01533,5.01533,0,0,0-7.2946,0L18.906,29.03033a2.76221,2.76221,0,0,0,0,3.79657C22.6655,36.66044,22.50826,36.74348,23.23607,37.11862Z" fill="#212529"/>
    <path d="M84.65825,54.52809c-1.53677-2.05709-6.83133-2.46816-9.20347-2.301-7.02331-.67156-47.20074-1.10007-62.46338.18333C12.554,1.64517,14.0078,1.82605,11.86973.29819A13.66866,13.66866,0,0,0,2.73167,1.66877C-1.97874,7.49719.51931,15.42436,2.00549,55.35392c.16156,4.34082.27034,9.76715,5.769,9.5637C42.60584,63.6289,82.63235,64.25,82.63235,64.25a2.63269,2.63269,0,0,0,2.57932-2.68434S84.714,55.16464,84.65825,54.52809Z" fill="#212529"/>
  </g>
</svg>
