<svg id="Layer_1" data-name="Layer 1" xmlns="http://www.w3.org/2000/svg" width="65" height="65" viewBox="0 0 65 65">
  <title>icon-resource-library-international-studbooks</title>
  <path d="M32.5,0A32.45583,32.45583,0,0,0,0,32.41262C0,50.31405,14.67024,66.89117,32.5,64.82523,56.00423,62.10179,65,50.31405,65,32.41262S47.626,0,32.5,0ZM55.499,26.13921A2.02859,2.02859,0,0,0,53.46774,28.165c-.06392.3489.34647,1.98577-1.12308,2.71717-1.38583.51617-2.59157,1.85226-4.052.87959-1.86482-1.05813-2.68454-2.311-4.15554-1.82321l-.34728.115a2.02268,2.02268,0,0,0-1.04708,3.04522c1.40779,1.79337,1.72708,3.49742,3.4243,3.49742h1.0759A2.02859,2.02859,0,0,1,49.27419,38.622v1.48209c0,1.64126-2.96176,3.88832-3.233,5.32064-.59516,2.62285-.37923,3.3619-1.1873,4.10254-2.64049,2.41149-3.67381,4.53457-4.98377,6.36621-1.94729,2.91315-7.3705,2.28775-7.37016-5.00174v-3.9065a2.02859,2.02859,0,0,0-2.03125-2.02579c-2.04486-.21649-5.52519.82688-8.45393-2.09113-2.722-2.71594-1.97084-5.96053-2.09677-6.88638,0-5.03838,4.57179-6.60046,6.47772-8.41551a7.57769,7.57769,0,0,1,4.4124-1.42851c2.397,0,3.70649,1.108,5.13054,1.716a2.03426,2.03426,0,0,0,1.5503.10978l6.1999-2.06108a2.02634,2.02634,0,0,0-.64213-3.947H41.7245a2.03318,2.03318,0,0,1-1.43629-.59335l-.90686-.90442a2.03309,2.03309,0,0,0-1.43629-.59336H26.14415A2.0286,2.0286,0,0,1,24.1129,17.8387v-.57506c0-2.209,2.65335-2.09524,3.43216-2.43748,1.16469-.29194,1.37215-1.272,2.25665-2.42441.94281-1.412,2.53932-.72654,4.8619-.90181a2.02859,2.02859,0,0,0,2.03125-2.02578V6.63805A26.21855,26.21855,0,0,1,57.91421,26.13921Z" fill="#212529"/>
</svg>
