<svg id="Layer_1" data-name="Layer 1" xmlns="http://www.w3.org/2000/svg" width="60" height="65" viewBox="0 0 60 65">
  <title>icon-resource-library-scientific-papers</title>
  <g>
    <path d="M8.29,52.8915a116.90429,116.90429,0,0,0,26.09721.208,3.419,3.419,0,0,0,2.8-2.65555c.4435-1.19718.11271-2.41622-1.60667-2.44142-8.69609-.1274-17.42148.13058-26.11616.32939C6.64076,48.39651,4.65173,52.48148,8.29,52.8915Z" fill="#212529"/>
    <path d="M16.68236,40.6188c.37244.92631.01333,1.89681.62276,2.8314,1.99757,3.06319,10.12882,2.16926,10.4976-2.8252.08-.03665,3.60477.27776,4.11175-3.87926,1.13685-9.32238.45926-18.6.10157-27.97983-.0922-2.41746-1.288-4.70341-4.01384-4.70341V2.03125A2.01532,2.01532,0,0,0,26.002,0H18.00141a2.01531,2.01531,0,0,0-2.00015,2.03125V4.0625a4.03227,4.03227,0,0,0-4.00032,4.0619C11.99728,35.05389,9.9856,40.69993,16.68236,40.6188Z" fill="#212529"/>
    <path d="M54.00424,56.875H53.843C67.63748,41.269,56.6752,15.85511,36.34074,16.87981c-2.04308,1.27459-1.03118,6.09672-.20133,6.88874.554.52869,9.98232,4.19159,10.53193,4.73664C57.88481,39.62544,49.97262,56.875,36.00282,56.875H3.60028C.28625,56.875,0,59.6032,0,62.96875,0,64.091,12.496,65,13.60107,65H58.00455C61.84074,65,59.95109,56.875,54.00424,56.875Z" fill="#212529"/>
  </g>
</svg>
