<svg id="Layer_1" data-name="Layer 1" xmlns="http://www.w3.org/2000/svg" width="70" height="65" viewBox="0 0 70 65">
  <title>icon-resource-library-fact-sheets</title>
  <g>
    <path d="M46.89538,55.38177a102.82436,102.82436,0,0,0-9.079-10.29316c-2.87366-2.995-5.91011-6.71662-9.476-9.01492V6.43743a2.0168,2.0168,0,0,0-2.2332-2.03888C24.4545,4.63539,13.92107,7.30944,7.67,14.57166a30.46242,30.46242,0,0,0-6.1079,11.20951A30.59125,30.59125,0,0,0,.78525,42.28483,28.73169,28.73169,0,0,0,14.50857,60.89521,30.29507,30.29507,0,0,0,22.787,63.9707a28.6453,28.6453,0,0,0,7.93555,1.027,29.53045,29.53045,0,0,0,16.93178-5.58981,1.84658,1.84658,0,0,0,.45084-.48172,1.31626,1.31626,0,0,0,.11061-.16316,2.08269,2.08269,0,0,0-.36493-2.41221Z" fill="#212529"/>
    <path d="M64.38705,28.3358A30.33042,30.33042,0,0,0,36.452.00463a2.02744,2.02744,0,0,0-2.103,2.05669l-.80114,28.40735H62.36039A2.02909,2.02909,0,0,0,64.38705,28.3358Z" fill="#212529"/>
    <path d="M67.9709,36.55944H66.74538c-9.02-.58736-17.5742-.8125-27.02313-1.01632a2.99288,2.99288,0,0,0-2.53681,1.62455c1.57093,1.82927,7.84059,6.67193,20.86374,19.45438a1.98852,1.98852,0,0,0,2.77773.08634,30.54887,30.54887,0,0,0,9.15437-17.88284A2.02439,2.02439,0,0,0,67.9709,36.55944Z" fill="#212529"/>
  </g>
</svg>
