<svg id="Layer_1" data-name="Layer 1" xmlns="http://www.w3.org/2000/svg" width="50" height="65" viewBox="0 0 50 65">
  <title>icon-resource-library-lectures</title>
  <g>
    <path d="M11.28254,32.5c0,5.85849,4.52971,10.74752,10.56531,11.91763,3.34679,1.25108,7.68724.38755,10.53984-1.47311,6.68022-4.35737,5.62827-12.94123,5.86284-14.02,0,0,1.18912-11.91961-.30269-17.3963C37.57039,5.10555,30.41879,0,24.63341,0A14.1094,14.1094,0,0,0,10.60087,12.44488a71.75322,71.75322,0,0,0,.68167,12.66467Z" fill="#212529"/>
    <path d="M49.72927,26.30048c-.368-2.54462-3.78889-1.83413-5.06954-1.92552a2.13424,2.13424,0,0,0-2.22515,2.03125V32.5c0,17.39218-26.312,22.909-34.07684,6.077C7.27728,32.5,6.8656,26.82223,6.83225,26.40621c-.15173-2.61-7.22428-2.53539-6.81516.25723.512,3.49443-.90571,8.526,2.88693,15.50192A17.8242,17.8242,0,0,0,5.86347,47.3023c3.61255,4.27658,9.52907,6.83528,15.43222,7.65319v3.7594q-3.73822.02655-7.4764.054c-1.42559.0115-2.72243.619-2.77991,2.0544q-.04017,1.00474-.08045,2.00948C10.89249,64.4917,14.55686,65.005,16.56829,65H35.75914a2.13428,2.13428,0,0,0,2.22515-2.03125l.00146-.65947c-.41191-2.88744-.34382-3.29151-3.64557-3.57927a57.75049,57.75049,0,0,0-6.369-.07459V55.12132C43.11663,53.68437,51.663,39.67167,49.72927,26.30048Z" fill="#212529"/>
  </g>
</svg>
