<svg id="ò__1" data-name="ò‡_1" xmlns="http://www.w3.org/2000/svg" width="800" height="40" viewBox="0 0 800 40"><title>pattern-01</title><path d="M15.38464,25.71429s12.056-8.5482,18.77771-13.1452c3.01441,2.55992,6.07959,3.91061,9.16248,6.413,1.55945,1.26584,12.016,9.37783,13.09338,8.5279,7.55213-5.95731,15.47339-10.69419,23.04273-16.636,6.041,5.88156,13.347,9.08476,18.92505,15.29779a1.99076,1.99076,0,0,0,2.75366.31117c6.74292-5.74292,13.79761-9.24191,20.46484-15.04384,6.49439,5.79115,19.83216,16.38564,21.519,15.28554,7.58789-4.94887,14.23828-10.82038,21.18579-16.38543,6.62158,5.32366,14.72509,10.61248,21.29907,15.97883.64685.528,13.51977-10.36492,19.51953-16.16476,6.48657,5.56159,21.76111,16.15984,22.39868,15.78809,8.61768-5.02536,16.31928-10.9608,23.97455-17.02839,3.09149,2.43812,5.89777,5.308,8.993,7.74274,1.7879,1.40625,10.36664,10.23256,13.95819,6.82178C274.33386,23.59005,287.5,13.5,291.26752,11.1302c7.54492,5.73036,24.25317,16.27179,24.25317,16.27179S329.797,17.28871,336.04718,11.90186c7.07037,4.69691,14.16278,8.53648,20.51141,13.91873a2.10563,2.10563,0,0,0,2.17652.24641c6.69293-3.94148,12.90478-8.99132,18.681-13.83859,6.73944,5.15929,15.35785,10.71293,22.56006,15.40744.82232.536,13.50372-11.33863,19.98773-16.25464A103.64954,103.64954,0,0,0,442.3717,27.63585a2.08914,2.08914,0,0,0,1.81568,0c7.47168-4.47521,14.1405-8.46983,20.19226-14.29688,5.96667,4.98874,18.36316,15.93468,19.01324,15.30479,5.6698-5.49462,12.57068-10.79317,18.13727-16.356,6.93994,5.26234,14.35718,9.5828,21.24079,14.89871.97979.7567,12.13977-10.66762,17.83636-15.1379,5.32214,5.76709,12.64227,10.76754,19.86774,14.87685,1.04437.5941,13.94775-10.59616,19.46582-15.44155q8.67745,6.36312,17.36145,12.72a2.583,2.583,0,0,0,2.62408.29716,144.4599,144.4599,0,0,0,18.22516-11.635c1.249,1.03795,6.2536,4.42613,7.63269,5.541,2.69666,2.18,5.785,4.30256,8.07977,6.78139a1.90392,1.90392,0,0,0,2.398.36684,2.39754,2.39754,0,0,0,.67994-.53331v.16647c5.06231-4.3307,9.926-7.971,15.00006-12.292,5.07946,4.62074,11.07507,9.33461,16.23309,13.89446.97992.86635,13.32971-9.67279,17.80078-14.28516,6.38,4.518,19.87317,15.19671,20.6117,14.62291,6.72473-5.22447,13.69366-10.14028,20.4638-15.32258,4.6994,4.58276,15.8504,13.965,16.56037,13.44423,5.79608-4.25077,11.33837-9.56428,17.38165-13.37036,6.30774,4.78951,18.09588,16.28822,19.87909,14.95208,3.43036-2.57028,10.29132-8.88773,15.33856-13.65517,1.04388.84584,2.35156,1.80374,3.78894,2.8035V0H0V15.98019C6.396,20.429,15.38464,25.71429,15.38464,25.71429ZM788.83679,5.52079A27.91582,27.91582,0,0,0,785.91864,8.672,66.55153,66.55153,0,0,1,780.7959,13.399a6.83123,6.83123,0,0,1-1.30329.43516L768.0752,5.99812S766.75024,5.96453,788.83679,5.52079ZM736.54962,8.19611a181.867,181.867,0,0,0,18.30975.2756q-3.66962,2.82679-7.35614,5.64384c-.80493.61617-2.07122,2.14788-3.49359,2.328-1.72485.21858-2.73962-1.615-3.49829-2.39962a57.19036,57.19036,0,0,1-4.40271-5.14087C735.94934,8.69374,736.20038,8.416,736.54962,8.19611Zm-36.90271.483c11.52448-.947,12.10706-.09364,18.17108.09219-.23132.19294-8.74115,6.56511-10.04583,7.5386a4.95059,4.95059,0,0,1-1.80372.76015c-.81182.53551-.01611.35617-7.67791-6.20591C697.50385,10.19029,698.57343,9.246,699.64691,8.67909Zm-21.21155-1.1749a2.49413,2.49413,0,0,1-.60083.344c-.98712.94765-8.41992,7.48326-9.59643,6.60666a51.66677,51.66677,0,0,1-7.28363-6.31913C674.91449,7.38156,665.09009,7.33793,678.43536,7.50419Zm-31.9458-.40985a80.74277,80.74277,0,0,1-6.70428,5.09933c-.95862.65856-2.48627,2.20543-4.41834,2.33235-2.53863.16678-4.10785-1.88379-5.012-2.81742-1.54468-1.59521-3.44189-3.04667-5.04657-4.59657C639.7749,7.17784,642.0907,7.69524,646.48956,7.09434Zm-56.05645-.30769q.424-.00861.848-.017c9.59338.98555,15.00146.23942,20.06134.33115-3.35352,2.33214-6.71863,4.63439-9.80085,7.05934a4.14735,4.14735,0,0,1-1.57519.48745,1.33978,1.33978,0,0,1-.95966.077,103.49659,103.49659,0,0,1-10.55194-6.66051C587.76868,7.58983,589.52417,6.80483,590.43311,6.78665Zm-42.34534.71586c16.37518.48821,6.57355.48026,23.87.06194-1.807,1.2334-3.639,2.46125-5.47412,3.68848-1.02044.38965-2.22461,2.01217-6.33514,3.64422-6.23242-1.22262-10.27142-3.87295-12.833-6.78631C547.14966,7.92208,547.5658,7.67264,548.08777,7.50251Zm-35.37464.45159c1.30243.00283,2.60682-.07335,3.91266-.17013,6.45716.46164,7.33741.21366,13.70313.09626a23.51558,23.51558,0,0,1-4.16065,4.36879c-.93921.76434-2.18841,2.08217-3.79876,2.47507-2.02936.49522-3.62921-1.02655-4.76386-1.78188a24.39068,24.39068,0,0,1-5.24957-4.3689C512.21594,8.4037,512.40137,8.16567,512.71313,7.9541Zm-38.19067.38662c.204-.03066.40363-.05515.60046-.07523,11.73871.67518,10.51642-.0586,17.23884.27989-1.37928,1.49633-2.78962,2.98566-4.19074,4.47666-.42224.4494-3.52734,4.82018-5.35327,4.22168C479.33417,16.10135,473.81213,9.25907,474.52246,8.34072Zm-40.11975.064c14.6615.88665,20.56665-.42658,20.64612.06037.2445.02093.33569.127.0625.36789q-3.2178,2.837-6.85993,5.56452c-.93939.70187-2.387,2.4216-4.3797,2.70347-2.29779.325-3.48162-1.42487-4.41516-2.12318-2.41809-1.809-4.79657-3.628-7.26422-5.42306C431.52032,9.06592,433.38757,8.34333,434.40271,8.40475ZM388.54327,9.71882c4.98645-.3683,11.06965.92139,23.46473.153-.02515.01611-.04969.03411-.075.04918.12708.62883-9.246,7.07394-11.74511,8.1868.07287.37626-.9541,1.00049-1.38391.74069a53.72815,53.72815,0,0,1-10.52253-8.301C388.0592,10.31857,388.22375,9.99693,388.54327,9.71882ZM360.9519,9.07157c.08045.00649,7.26362.56166,7.34388.56647-1.64545,1.7-8.49152,6.48361-10.76923,7.33176a49.19629,49.19629,0,0,1-10.99274-8.32272C352.1311,8.65158,353.54553,9.33555,360.9519,9.07157Zm-54.671-1.26217c5.61243.19806,17.87885-.15559,18.25592-.0631.72632.1785.196.6663-.06543.94336a77.98208,77.98208,0,0,1-8.70636,7.13159c-4.93139-1.78763-9.3283-4.04066-11.96429-6.69506C303.31915,8.64132,305.33142,7.776,306.28088,7.8094ZM262.0022,7.333c7.06415.19158,14.10345.56951,21.16632.77229-10.10541,7.34012-10.9632,8.21767-11.636,7.768A56.29434,56.29434,0,0,1,261.84436,7.801C261.70862,7.65765,261.80475,7.49023,262.0022,7.333Zm-44.557,1.03938c1.87036-.8245,6.36243-.46352,8.73816-.51939,5.14136-.121,10.28375-.26587,15.42871-.351,1.128-.01873-9.10278,6.29809-13.91113,8.71331-.156.07837-1.04175.3818-1.30591.19534C217.12634,9.87308,215.49792,9.23075,217.44519,8.37235ZM173.88464,7.28746c.06067-.35272.93348-.79478,1.68274-.81163q11.06506-.24782,22.13721-.45693c1.00171-.03285-.00073.74163-.81079.93457-9.48438,8.01668-9.53443,8.38017-11.50806,8.47475-2.80871.13456-5.51367-2.63441-6.86523-3.52117C176.38306,10.50488,173.56641,9.13494,173.88464,7.28746Zm-41.56213.728c22.46631-.22287,23.84253-1.756,23.009-.68116.3396.00733.5083.17934.0791.566A98.76745,98.76745,0,0,1,147.46655,14.3c-1.1958.87138-2.91943,2.70139-4.74243,3.091-2.37524.50768-1.9668.52745-11.86487-8.16409C130.35474,8.784,131.64844,8.02211,132.32251,8.01542ZM90.9198,6.32907c7.52173-.02313,15.15613-.25761,22.69653.00575-.017.00607-.03235.01329-.04968.01925-4.23218,3.32666-8.55908,6.6075-12.81226,9.9239-.16528.12891-1.093.69183-1.4414.39865a52.58485,52.58485,0,0,1-8.97486-9.55246C90.16077,6.87671,90.49,6.564,90.9198,6.32907ZM44.121,8.60052c2.82874.27811,5.97107-.086,8.7428-.02114a129.36583,129.36583,0,0,1,16.005,1.23047,57.61487,57.61487,0,0,1-10.58508,9.57652c-.27588.20194-1.49829.74435-2.07678.45557-5.89832-2.94225-10.28259-6.38568-13.20374-10.246C42.76282,9.27832,43.40356,8.855,44.121,8.60052ZM5.35132,8.95668c18.17285-.33942,21.66186-.87974,19.87256.5761a1.1532,1.1532,0,0,1-.676.922c-4.48559,2.51242-10.03223,7.40416-10.991,6.59975-2.38647-2.002-8.68432-4.39495-9.91845-6.81027C3.37134,9.72154,4.63965,8.97008,5.35132,8.95668Z" fill="#ac9857" opacity="0.39"/><path d="M769.64178,25.807c-1.37373-2.47581-5.1616-4.65972-7.81812-6.712-1.06714-.82456-7.11579,3.92088-12.10893,6.49622-.505.26055-.782.6763-.75251.94516-.51636.38686-.74916.81413.08123.84717,6.16449.24582,12.51569-.15048,18.6916-.25668C768.52736,27.11314,769.9391,26.34282,769.64178,25.807Z" fill="#ac9857" opacity="0.39"/><path d="M175.56338,24.76458c-3.302-2.44712-7.168-4.56554-10.69427-6.88336a9.04317,9.04317,0,0,0-2.37121.61314c-2.1156,1.80886-4.69207,3.4734-6.4999,5.4055a33.50729,33.50729,0,0,1-3.70275,3.60331c28.02452-.5074,25.87656-.43268,26.34331-.54577C177.47965,26.21944,176.46066,25.42955,175.56338,24.76458Z" fill="#ac9857" opacity="0.39"/><path d="M88.37333,28.11c1.546-.65619,3.08633-1.74936,1.95334-2.52943-11.034-7.59608-9.88807-7.80368-11.05718-7.18381a8.11963,8.11963,0,0,0-2.59764.87994C74.79293,20.40359,62.5377,27.78,62.20449,28.00339,70.93757,28.21845,71.77656,29.20624,88.37333,28.11Z" fill="#ac9857" opacity="0.39"/><path d="M132.1435,27.5686A72.676,72.676,0,0,0,121.72936,19.13c-1.68216-1.17058-12.30962,7.55719-13.721,8.82265a3.624,3.624,0,0,0-.85906.45957C126.23035,28.63408,112.18343,28.57577,132.1435,27.5686Z" fill="#ac9857" opacity="0.39"/><path d="M299.49133,26.10215l.87157-.02019c.93428-.02161,2.73871-.9532,2.03349-1.51608a105.56492,105.56492,0,0,0-10.84608-7.90466,1.2086,1.2086,0,0,0-.9864.09132,3.87152,3.87152,0,0,0-1.6191.57865c-3.16811,2.87782-6.627,5.61005-10.074,8.3779C284.07175,25.818,289.63054,24.93249,299.49133,26.10215Z" fill="#ac9857" opacity="0.39"/><path d="M205.38784,17.53067c-4.11052,2.09269-5.31468,4.17317-6.33514,4.67282-1.83512,1.57364-3.66712,3.14808-5.47413,4.72955,17.29649-.53635,7.49485-.54654,23.87006.07955.522-.21817.93813-.53809.77224-.78006A21.36272,21.36272,0,0,0,205.38784,17.53067Z" fill="#ac9857" opacity="0.39"/><path d="M257.36378,27.04626c1.80152-.14421,3.601-.25758,5.39789-.25334.4301-.31507.68592-.66958.49254-.92218A34.40689,34.40689,0,0,0,256.012,19.3652a59.57583,59.57583,0,0,0-5.82222-3.18663s-4.695,3.08071-5.99076,4.2189a34.123,34.123,0,0,0-5.74,6.50546C247.24106,26.728,248.45551,26.35886,257.36378,27.04626Z" fill="#ac9857" opacity="0.39"/><path d="M389.506,28.02817c.29075-.01879.58557-.04174.887-.07039,1.04924-.859-7.10748-7.25934-12.25321-8.32788-2.697-.5598-7.28365,3.52861-7.9074,3.94893-2.06962,1.3947-4.15284,2.78778-6.19023,4.18753C373.972,28.083,372.16654,27.39658,389.506,28.02817Z" fill="#ac9857" opacity="0.39"/><path d="M349.19876,26.56053c-2.57624-1.69674-5.05941-3.416-7.58388-5.12582-.97461-.66-2.21053-2.314-4.6094-2.00682-2.08037.2664-3.59167,1.89183-4.57239,2.55534q-3.81,2.57771-7.16176,5.25954c-.2852.22768-.19.32788.06526.34776.083.46015,6.24789-.78108,21.55448.057C347.95089,27.70552,349.90032,27.0226,349.19876,26.56053Z" fill="#ac9857" opacity="0.39"/><path d="M431.77751,28.90942c.32519-.29279.49266-.63141.26643-.87233a55.01278,55.01278,0,0,0-10.709-8.73823c-.43744-.27343-1.48261.38355-1.40843.77966-2.54341,1.17155-12.0826,7.95608-11.95326,8.61807-.02576.01581-.0507.03473-.0763.0518C420.51167,27.93941,426.70267,29.29709,431.77751,28.90942Z" fill="#ac9857" opacity="0.39"/><path d="M462.78718,21.40414c-2.23256.88975-7.43494,5.67106-9.04781,7.45427.07868.00505,7.11948.5875,7.19829.59416,7.25958-.27686,8.646.44062,14.13225.44534C472.75128,27.33942,466.35384,23.27273,462.78718,21.40414Z" fill="#ac9857" opacity="0.39"/><path d="M551.14292,26.60948c-2.49467-2.38584-6.65582-4.4109-11.32273-6.01769a73.14368,73.14368,0,0,0-8.23954,6.41c-.24747.24906-.74926.68755-.06193.84787.35687.08323,11.96554-.23471,17.277-.05665C549.69429,27.82309,551.59864,27.04532,551.14292,26.60948Z" fill="#ac9857" opacity="0.39"/><path d="M628.51469,28.42c.20691-.15866.30772-.32768.16542-.47241a58.53981,58.53981,0,0,0-10.153-8.14714c-.70509-.45388-1.60406.43187-12.19435,7.84017C613.73452,27.8453,621.11156,28.22667,628.51469,28.42Z" fill="#ac9857" opacity="0.39"/><path d="M652.277,20.7782c-.18349-.1434-.79847.08994-.90678.15021-3.339,1.85731-10.44313,6.71505-9.65986,6.70066,3.57263-.06552,7.14352-.177,10.71361-.26994,1.64972-.043,4.769.23457,6.06768-.3994C659.84385,26.29961,658.71309,25.8056,652.277,20.7782Z" fill="#ac9857" opacity="0.39"/><path d="M508.50466,23.30707c-1.21521-.78895-3.64736-3.25221-6.17282-3.13252-1.77466.08415-1.81954.40751-10.34748,7.53928-.72834.1717-1.62972.86063-.72914.8315q9.95289-.17616,19.90474-.40652c.67385-.01495,1.45853-.40827,1.51314-.72209C512.95927,25.77319,510.42655,24.55453,508.50466,23.30707Z" fill="#ac9857" opacity="0.39"/><path d="M590.95165,26.63252c-9.11878-6.84041-8.74251-6.82488-10.93063-6.4253-1.6795.30667-3.26749,1.74689-4.36909,2.43268-2.59209,1.6137-5.04692,3.2885-7.31864,5.03681-.39531.30429-.24.43963.07295.44542-.76794.84594.49992-.36064,21.19734-.53614C590.2247,27.58071,591.41643,26.98115,590.95165,26.63252Z" fill="#ac9857" opacity="0.39"/><path d="M693.38532,27.68033c.32276-.17774.57-.41451.43673-.6018a39.67167,39.67167,0,0,0-6.73869-7.23047c-.26158-.222-.9582.20409-1.08225.30166-3.19343,2.51033-6.44226,4.99368-9.62,7.51166l-.03725.01459C682.00548,27.87533,687.73773,27.69784,693.38532,27.68033Z" fill="#ac9857" opacity="0.39"/><path d="M728.74589,28.41435c2.48746.0464,5.30762-.21469,7.84622-.01528.64383-.1824,1.21893-.486,1.00325-.71371-2.62175-2.7682-6.55646-5.23734-11.84989-7.34722a3.08723,3.08723,0,0,0-1.86375.32672,49.50147,49.50147,0,0,0-9.4998,6.86712C717.87522,27.77917,719.37771,28.23975,728.74589,28.41435Z" fill="#ac9857" opacity="0.39"/><path d="M466.9237,9.40962l-.004.003-.00069-.00147Z" fill="#ac9857" opacity="0.39"/><path d="M800,28.45061V19.99836s-4.8999,2.48783-5.97468,3.18635a90.175,90.175,0,0,0-7.51659,5.409C790.1431,28.124,792.51584,28.29837,800,28.45061Z" fill="#ac9857" opacity="0.39"/><path d="M33.53687,18.61083,26.10669,24.2123l-5.59375,5.12277s25.88257.536,24.80493-1.86255C43.49756,23.42128,33.53687,18.61083,33.53687,18.61083Z" fill="#ac9857" opacity="0.39"/><path d="M10.25635,28.57492c-1.79907-1.644-3.92627-3.18363-5.65808-4.87563C3.58459,22.70884,0,19.99836,0,19.99836v8.45225C2.67188,28.505,5.98926,28.5565,10.25635,28.57492Z" fill="#ac9857" opacity="0.39"/><polygon points="466.924 9.41 466.919 9.411 466.92 9.413 466.924 9.41" fill="#ac9857" opacity="0.39"/><path d="M15,38.23059c48.06714.11585,54.35364-1.30017,78.698-1.40649q64.50494-.28181,129.00989-.047c49.33154.16943,98.65472.45886,147.983,1.13013,74.94482,1.01989,149.87732,2.80761,224.83172,1.78943,64.58326-.87732,129.15882-3.09852,193.75428-2.02454q5.36187.08917,10.72308.21167V33.40613c-59.65869-1.23865-119.30334.34094-178.9588,1.39856-74.67389,1.324-149.27557.07055-223.94306-1.01343q-81.3661-1.1814-162.73193-1.46558c-41.3009-.11718-82.60156-.69995-123.90222-.53186C80.7937,31.91455,38.87109,33.734,15,33.76221c-2.26.00268-10.69385-.27332-15-.35608v4.47766C5.00037,37.9856,15,38.23059,15,38.23059Z" fill="#ac9857" opacity="0.45"/></svg>