<svg id="Layer_1" data-name="Layer 1" xmlns="http://www.w3.org/2000/svg" width="800" height="30" viewBox="0 0 800 30"><title>pattern-03</title><g opacity="0.39"><path d="M20.50738,18.86a6.19189,6.19189,0,0,0-1.30329.50779,71.811,71.811,0,0,0-5.12272,5.5149,31.24986,31.24986,0,0,1-2.91816,3.67633c22.08654-.51769,20.76157-.55679,20.76157-.55679Z" fill="#ac9857"/><path d="M63.45037,28.06286c.34923-.25649.60032-.58053.441-.82484a65.11178,65.11178,0,0,0-4.40268-5.99762c-.75866-.91546-1.77343-3.05451-3.49833-2.79956-1.42234.21021-2.68862,1.99712-3.49357,2.716q-3.68253,3.28932-7.35614,6.58448A155.98464,155.98464,0,0,1,63.45037,28.06286Z" fill="#ac9857"/><path d="M100.35309,26.24939c1.07351-.66133,2.14309-1.76307,1.35636-2.54926-7.66177-7.65562-6.86607-7.86485-7.67788-7.24012a4.61465,4.61465,0,0,0-1.80374.88683c-1.30469,1.13573-9.81447,8.56991-10.04584,8.7951C88.24606,26.35869,88.82863,27.35423,100.35309,26.24939Z" fill="#ac9857"/><path d="M139.04552,25.50824a55.00815,55.00815,0,0,0-7.28361-7.37229c-1.1765-1.02266-8.60932,6.60222-9.59643,7.70778a2.44142,2.44142,0,0,0-.60082.40149C134.90988,26.43908,125.08551,26.38814,139.04552,25.50824Z" fill="#ac9857"/><path d="M174.69161,26.70259c-1.60472-1.80815-3.50189-3.50151-5.0466-5.36258-.90409-1.0893-2.47333-3.4815-5.01192-3.287-1.93208.14805-3.45974,1.95272-4.41838,2.721a83.39969,83.39969,0,0,0-6.70427,5.94926C157.90932,26.02216,160.22511,26.62588,174.69161,26.70259Z" fill="#ac9857"/><path d="M208.719,27.1021l.84793-.01737c.909-.01858,2.66445-.81981,1.97836-1.30393a103.19936,103.19936,0,0,0-10.552-6.79856,1.31493,1.31493,0,0,0-.95966.07854,4.08773,4.08773,0,0,0-1.57519.49768c-3.0822,2.47513-6.44728,4.825-9.80081,7.20558C193.71749,26.85772,199.12555,26.09611,208.719,27.1021Z" fill="#ac9857"/><path d="M239.85143,17.62c-4.11052,1.904-5.31467,3.797-6.33513,4.2516-1.83513,1.43178-3.66712,2.8643-5.47414,4.30321,17.29649-.488,7.49486-.49728,23.87007.07238.522-.19851.93813-.48959.77224-.70975A21.4808,21.4808,0,0,0,239.85143,17.62Z" fill="#ac9857"/><path d="M283.37424,25.91877c1.30582-.113,2.61017-.2018,3.91265-.19849.31176-.24684.49719-.5246.357-.72251a25.73385,25.73385,0,0,0-5.24954-5.097c-1.13464-.88128-2.73454-2.65656-4.76387-2.07884-1.61037.45844-2.85955,1.99585-3.79877,2.88761a26.27086,26.27086,0,0,0-4.16064,5.097C276.03678,25.66943,276.91708,25.38021,283.37424,25.91877Z" fill="#ac9857"/><path d="M324.87706,25.357c.19683-.02345.39642-.05207.60049-.0878.71033-1.07136-4.81171-9.0541-8.29532-10.38683-1.82588-.6982-4.931,4.401-5.35326,4.92524-1.40111,1.73952-2.81143,3.477-4.19073,5.22284C314.36064,25.42536,313.13836,24.56922,324.87706,25.357Z" fill="#ac9857"/><path d="M367.8077,23.85279c-2.46767-2.0943-4.84618-4.21642-7.26426-6.32685-.93353-.81469-2.11737-2.85621-4.41514-2.477-1.99269.32882-3.44029,2.3351-4.37968,3.15408q-3.64943,3.18168-6.85993,6.4919c-.27319.281-.182.40471.0625.42924.07948.568,5.98458-.96409,20.64608.07033C366.61242,25.26606,368.47969,24.42312,367.8077,23.85279Z" fill="#ac9857"/><path d="M411.83174,26.28644c.31952-.32451.48408-.69979.26178-.9668A55.97858,55.97858,0,0,0,401.571,15.63518c-.42982-.30305-1.45679.42508-1.38391.86408-2.49911,1.29842-11.87219,8.81762-11.7451,9.55129-.02531.01753-.04982.0385-.075.05742C400.76207,25.21139,406.84526,26.71608,411.83174,26.28644Z" fill="#ac9857"/><path d="M441.97347,16.70184c-2.27772.98959-9.12378,6.5705-10.76927,8.55378.08027.00562,7.26347.65341,7.34388.66083,7.40642-.30793,8.82084.49005,14.41809.4953C450.60065,23.5662,445.61227,18.78008,441.97347,16.70184Z" fill="#ac9857"/><path d="M496.1993,25.2278c-2.636-3.0968-7.03294-5.72531-11.96429-7.81092a81.976,81.976,0,0,0-8.70639,8.32016c-.26149.32327-.79172.89244-.06544,1.10053.37708.108,12.64351-.30465,18.25592-.07353C494.66859,26.80307,496.68084,25.79353,496.1993,25.2278Z" fill="#ac9857"/><path d="M537.99778,28.77821c.19744-.1834.29363-.37878.15785-.54608a59.38146,59.38146,0,0,0-9.68813-9.41753c-.67282-.52466-1.53062.49921-11.636,9.0627C523.89437,28.11385,530.93363,28.55469,537.99778,28.77821Z" fill="#ac9857"/><path d="M573.605,18.77108c-.26424-.21756-1.14988.13644-1.30587.22787C567.49069,21.81666,557.26,29.18629,558.388,29.16446c5.145-.0994,10.28742-.26846,15.42873-.40953,2.37577-.06524,6.86779.35587,8.7381-.60591C584.50205,27.14755,582.87363,26.3981,573.605,18.77108Z" fill="#ac9857"/><path d="M622.47942,22.12929c-1.35151-1.03463-4.05644-4.265-6.86515-4.108-1.9737.11035-2.02362.53442-11.508,9.88715-.81.22516-1.81251,1.12865-.81093,1.09044q11.06918-.231,22.13721-.53311c.74943-.01961,1.62211-.53542,1.68284-.947C627.43365,25.36341,624.61686,23.76524,622.47942,22.12929Z" fill="#ac9857"/><path d="M669.24442,26.04885c-9.89809-10.14013-9.48967-10.11711-11.8648-9.52478-1.823.45461-3.54673,2.58957-4.74248,3.60617a103.36058,103.36058,0,0,0-7.94412,7.4665c-.4291.45107-.26055.6517.07918.66028-.83356,1.254.54265-.5346,23.009-.79477C668.45535,27.45443,669.74893,26.56566,669.24442,26.04885Z" fill="#ac9857"/><path d="M709.95518,28.3661c.42987-.274.75908-.6389.58166-.92758A58.65437,58.65437,0,0,0,701.562,16.294c-.34838-.34214-1.27617.31458-1.44139.465-4.25313,3.86923-8.58006,7.69688-12.81229,11.5779-.01722.007-.03259.01539-.0496.0225C694.799,28.66665,702.43348,28.39307,709.95518,28.3661Z" fill="#ac9857"/><path d="M747.13632,29.80876c2.77167.07549,5.914-.3493,8.74269-.02487.71739-.29676,1.3582-.79063,1.11788-1.16118a38.25342,38.25342,0,0,0-13.2038-11.95377c-.57854-.33687-1.801.296-2.07669.53156a61.94968,61.94968,0,0,0-10.58519,11.17266C735.02363,28.77533,736.6978,29.52469,747.13632,29.80876Z" fill="#ac9857"/><path d="M30.35815,3.57437c1.37373,3.48671,5.16161,6.56235,7.81812,9.45265,1.06714,1.16124,7.11579-5.52184,12.10893-9.14873a1.71982,1.71982,0,0,0,.75251-1.33109c.51636-.54482.74917-1.14655-.08123-1.19308-6.16449-.3462-12.51568.21192-18.6916.36149C31.47258,1.73489,30.06084,2.81975,30.35815,3.57437Z" fill="#ac9857"/><path d="M624.43662,6.108c3.302,2.855,7.168,5.32646,10.69427,8.03058a8.02932,8.02932,0,0,0,2.37121-.71533c2.1156-2.11033,4.69207-4.05229,6.4999-6.30641A36.61931,36.61931,0,0,1,647.70475,2.913c-28.02452.592-25.87656.5048-26.34331.63673C622.52035,4.41067,623.53934,5.3322,624.43662,6.108Z" fill="#ac9857"/><path d="M711.62663.67082c-1.546.8669-3.08634,2.31109-1.95335,3.34165,11.034,10.03521,9.88807,10.30947,11.05719,9.49056a6.91892,6.91892,0,0,0,2.59763-1.16249C725.207,10.8518,737.46225,1.10685,737.79547.81167,729.06239.52755,728.2234-.77743,711.62663.67082Z" fill="#ac9857"/><path d="M667.8565,2.83664a76.17,76.17,0,0,0,10.41414,9.84508c1.68216,1.36568,12.30962-8.81672,13.721-10.29309a3.50933,3.50933,0,0,0,.85906-.53616C673.76965,1.59358,687.81657,1.66161,667.8565,2.83664Z" fill="#ac9857"/><path d="M500.50867,4.5475q-.43578.01174-.87157.02356c-.93428.02521-2.73871,1.11206-2.03349,1.76876a108.03459,108.03459,0,0,0,10.84608,9.2221,1.05547,1.05547,0,0,0,.9864-.10654,3.5432,3.5432,0,0,0,1.6191-.67509c3.16811-3.35747,6.627-6.54506,10.074-9.77422C515.92825,4.879,510.36946,5.9121,500.50867,4.5475Z" fill="#ac9857"/><path d="M594.61216,14.54756c4.11053-2.44147,5.31468-4.8687,6.33514-5.45162,1.83512-1.83592,3.66712-3.67276,5.47413-5.51781-17.29649.62574-7.49485.63763-23.87006-.09281-.522.25453-.93813.62777-.77224.91008A21.67471,21.67471,0,0,0,594.61216,14.54756Z" fill="#ac9857"/><path d="M542.63622,3.44605c-1.80152.16823-3.601.3005-5.39789.29556-.4301.36757-.68592.78117-.49254,1.07588a36.93132,36.93132,0,0,0,7.24225,7.58978,57.47979,57.47979,0,0,0,5.82222,3.71774s4.695-3.59416,5.99076-4.92205a38.7724,38.7724,0,0,0,5.74-7.5897C552.75894,3.81733,551.54449,4.248,542.63622,3.44605Z" fill="#ac9857"/><path d="M410.494,2.30047c-.29075.02194-.58557.04871-.887.08213-1.04924,1.00216,7.10748,8.46923,12.25321,9.71586,2.697.6531,7.28365-4.11671,7.9074-4.60708,2.06962-1.62715,4.15284-3.25241,6.19023-4.88546C426.028,2.2365,427.83346,3.03733,410.494,2.30047Z" fill="#ac9857"/><path d="M450.80124,4.01272c2.57624,1.97953,5.05941,3.98536,7.58388,5.98012.97461.77005,2.21053,2.69969,4.6094,2.3413,2.08037-.3108,3.59167-2.20714,4.57239-2.98123q3.81-3.00732,7.16176-6.13613c.2852-.26562.19-.38253-.06526-.40572-.083-.53684-6.24789.91126-21.55448-.06647C452.04911,2.6769,450.09968,3.47365,450.80124,4.01272Z" fill="#ac9857"/><path d="M368.22249,1.27235c-.32519.3416-.49266.73665-.26643,1.01772a57.75319,57.75319,0,0,0,10.709,10.1946c.43744.319,1.48261-.44747,1.40843-.9096,2.54341-1.36681,12.0826-9.28209,11.95326-10.05441.02576-.01845.0507-.04052.0763-.06044C379.48833,2.404,373.29733.82008,368.22249,1.27235Z" fill="#ac9857"/><path d="M336.82766,13.0715c2.32758-1.35682,7.75138-8.648,9.4329-11.36728-.082-.0077-7.4225-.89589-7.50466-.906-7.56856.4222-9.014-.67191-14.73374-.67912C326.43947,4.02059,333.1092,10.222,336.82766,13.0715Z" fill="#ac9857"/><path d="M248.85708,3.95562c2.49467,2.78347,6.65582,5.146,11.32273,7.02063a75.99963,75.99963,0,0,0,8.23954-7.47834c.24747-.29057.74926-.80214.06193-.98918-.35687-.0971-11.96554.27382-17.277.06609C250.30571,2.53974,248.40136,3.44713,248.85708,3.95562Z" fill="#ac9857"/><path d="M171.48537,3.09451c-.20692.16233-.30772.33526-.16543.48334a58.80338,58.80338,0,0,0,10.153,8.33568c.7051.46438,1.60406-.44187,12.19435-8.02161C186.26554,3.68254,178.8885,3.29235,171.48537,3.09451Z" fill="#ac9857"/><path d="M147.723,10.75877c.18349.1673.79847-.10493.90678-.17524,3.339-2.16686,10.44313-7.83422,9.65986-7.81743-3.57263.07644-7.14352.20645-10.71361.31493-1.64972.05017-4.76895-.27367-6.06768.466C140.15615,4.31713,141.28691,4.89347,147.723,10.75877Z" fill="#ac9857"/><path d="M291.49534,8.65072c1.21521,1.04728,3.64736,4.3171,6.17282,4.15822,1.77466-.1117,1.81954-.54094,10.34748-10.0079.72834-.22792,1.62972-1.14244.72914-1.10376q-9.95289.23382-19.90474.53962c-.67385.01985-1.45853.54195-1.51313.95852C287.04073,5.37711,289.57345,6.99479,291.49534,8.65072Z" fill="#ac9857"/><path d="M209.04835,4.654c9.11878,7.225,8.74251,7.20861,10.93063,6.78656,1.6795-.32392,3.26749-1.8451,4.36909-2.56945a89.98869,89.98869,0,0,0,7.31864-5.32c.39531-.32139.24-.46435-.07295-.47046.76794-.8935-.49992.38092-21.19734.56628C209.7753,3.65255,208.58357,4.28582,209.04835,4.654Z" fill="#ac9857"/><path d="M106.61468,2.70629c-.32276.20737-.57.4836-.43673.7021a44.33422,44.33422,0,0,0,6.73869,8.43555c.26158.259.9582-.23811,1.08225-.35193,3.19343-2.92872,6.44226-5.826,9.62-8.76361.01293-.0053.02447-.01164.03725-.017C117.99452,2.47879,112.26227,2.68587,106.61468,2.70629Z" fill="#ac9857"/><path d="M71.25408.88642c-2.48746-.05963-5.30762.2759-7.84622.01964-.64384.23441-1.21893.6245-1.00326.91719,2.62175,3.55739,6.55646,6.73047,11.84989,9.44187.51923.26608,1.6163-.23377,1.86376-.41987a52.22626,52.22626,0,0,0,9.4998-8.8249A113.18752,113.18752,0,0,0,71.25408.88642Z" fill="#ac9857"/><path d="M333.0763,24.02211l.004-.00354.00069.00171Z" fill="#ac9857"/><path d="M0,1.80763v9.861s4.8999-2.90246,5.97468-3.7174a92.02634,92.02634,0,0,0,7.51659-6.31055C9.8569,2.18873,7.48416,1.98524,0,1.80763Z" fill="#ac9857"/><path d="M766.46313,13.28737l7.43018-6.535L779.48706.77577s-25.88257-.62537-24.80493,2.173C756.50244,7.67518,766.46313,13.28737,766.46313,13.28737Z" fill="#ac9857"/><path d="M786.44312,20.103c-.95874-.93848-6.50538,4.76856-10.991,7.69971a1.3601,1.3601,0,0,0-.676,1.07568c-1.7893,1.69849,1.69971,1.06812,19.87256.67212.71167-.01562,1.98-.89233,1.71289-1.5022C795.12744,25.23048,788.82959,22.43873,786.44312,20.103Z" fill="#ac9857"/><path d="M789.74365,1.66261c1.79907,1.918,3.92627,3.71423,5.65808,5.68823C796.41541,8.50636,800,11.66859,800,11.66859v-9.861C797.32812,1.74415,794.01074,1.6841,789.74365,1.66261Z" fill="#ac9857"/><polygon points="333.076 24.022 333.081 24.02 333.08 24.019 333.076 24.022" fill="#ac9857"/><path d="M800,16.35646C793.604,11.16615,784.61536,5,784.61536,5s-12.056,9.9729-18.77771,15.33606c-3.01441-2.98657-6.07959-4.56238-9.16248-7.48181-1.55945-1.47681-12.016-10.94079-13.09338-9.94922-7.55213,6.9502-15.47339,12.47657-23.04273,19.40869-6.041-6.86181-13.347-10.59887-18.925-17.84741a1.80267,1.80267,0,0,0-2.75366-.363c-6.74292,6.70008-13.79761,10.78223-20.46484,17.55115-6.49439-6.75635-19.83216-19.11657-21.519-17.83313-7.58789,5.77368-14.23828,12.62378-21.18579,19.11634-6.62158-6.21094-14.72509-12.38123-21.29907-18.642-.64685-.616-13.51977,12.0924-19.51953,18.85888C588.3855,16.666,573.111,4.3014,572.47339,4.73512c-8.61768,5.86292-16.31928,12.7876-23.97455,19.86646-3.09149-2.84449-5.89777-6.19263-8.993-9.03321-1.7879-1.64062-10.36664-11.938-13.95819-7.95874C525.66614,7.47828,512.5,19.25,508.73248,22.01478,501.18756,15.32936,484.47931,3.031,484.47931,3.031S470.203,14.82985,463.95282,21.11452C456.88245,15.63478,449.79,11.15529,443.44141,4.876a1.86364,1.86364,0,0,0-2.17652-.28748c-6.69293,4.59839-12.90478,10.48987-18.681,16.145C415.84442,14.71437,407.226,8.23512,400.0238,2.75819c-.82232-.62536-13.50372,13.2284-19.98773,18.96375A105.98986,105.98986,0,0,0,357.6283,2.75819a1.82284,1.82284,0,0,0-1.81568,0c-7.47168,5.22107-14.1405,9.88147-20.19226,16.67969C329.65369,13.61769,317.2572.84743,316.60712,1.58229c-5.6698,6.4104-12.57068,12.592-18.13727,19.082-6.93994-6.1394-14.35718-11.17993-21.24079-17.38184-.97979-.88281-12.13977,12.44556-17.83636,17.66089C254.07056,14.2151,246.75043,8.38124,239.525,3.58705c-1.04437-.69312-13.94775,12.36218-19.46582,18.01514q-8.67746-7.42365-17.36145-14.84a2.284,2.284,0,0,0-2.62408-.34668,143.78434,143.78434,0,0,0-18.22516,13.57422c-1.249-1.21094-6.2536-5.16382-7.63269-6.46448-2.69666-2.54333-5.785-5.01965-8.07977-7.91162a1.71425,1.71425,0,0,0-2.398-.428,2.49444,2.49444,0,0,0-.67994.62219V5.61366c-5.06231,5.05249-9.926,9.29944-15.00006,14.3407C142.97852,14.56349,136.98291,9.064,131.82489,3.74415c-.97992-1.01074-13.32971,11.28492-17.80078,16.666-6.38-5.271-19.87317-17.72949-20.6117-17.06006-6.72473,6.09522-13.69366,11.83032-20.4638,17.87634C68.24921,15.8799,57.09821,4.934,56.38824,5.54152c-5.79608,4.95923-11.33837,11.15832-17.38165,15.59875C32.69885,15.5525,20.91071,2.13734,19.1275,3.69618c-3.43036,2.99866-10.29132,10.369-15.33856,15.931C2.74506,18.64039,1.43738,17.52284,0,16.35646v5.71142c3.2287,2.44141,5.74451,4.215,5.96,3.98731,5.25189-5.54907,8.767-10.48682,13.8772-16.24646,6.08752,5.48376,11.5852,9.46948,17.78033,14.84436a1.86923,1.86923,0,0,0,2.16394.28589c6.18915-4.38745,11.53315-8.18408,16.60681-13.74634C61.026,16.53322,66.94666,21.259,71.52911,26.647c.6911.81274,15.21711-12.32984,22.00159-18.33765,5.624,6.22119,21.49292,17.30054,22.23309,16.40173A117.07881,117.07881,0,0,1,131.5061,8.86549c4.82611,5.52246,16.99231,17.11426,17.76276,16.34912,5.04362-5.00854,10.144-9.9624,15.2-14.95923,2.46253,2.69312,5.42926,5.1106,8.04334,7.578,1.83368,1.73083,9.62616,8.90124,10.24456,8.26843.00684.04932,11.73481-11.00244,18.20923-15.16553q8.838,7.5641,17.68329,15.11963a2.26774,2.26774,0,0,0,3.09265,0c5.93256-5.9563,12.39386-11.13879,18.11994-17.54272,6.52484,4.748,12.7561,9.41174,17.55133,15.8706a1.8362,1.8362,0,0,0,3.00268.62732l.07434-.07532.00019-.00024.00067-.00073c5.95447-5.396,11.69415-10.47,16.738-16.671,7.06873,6.93261,15.45032,12.94824,22.05317,17.55554.77044.5376,12.13653-13.19653,17.65344-19.65283,5.69421,6.01172,17.64654,18.99634,17.75159,19.07153,1.29211.73462,8.49536-6.33032,11.89782-9.09839,2.28888-1.86206,9.68158-7.5061,9.68158-7.5061s16.62317,10.37329,22.12317,17.04809a1.8932,1.8932,0,0,0,2.58978,0c6.70185-5.69043,12.35907-10.658,18.95459-16.45434,7.807,5.88037,15.33155,9.6001,21.424,15.21533a1.8791,1.8791,0,0,0,2.57123,0A131.35113,131.35113,0,0,1,442.09729,9.29982c6.49176,6.27185,21.33234,18.28589,21.33234,18.28589l1.96081-.86707s12.59528-12.382,18.81946-18.64343c7.5459,6.67981,24.60419,19.988,24.60419,19.988s8.7406-7.99219,12.756-11.85083c1.06409-1.02259,4.0155-3.265,5.75854-5.10926,2.06543,2.0979,4.92054,4.64563,6.16712,5.78907,4.41461,4.04943,15.06524,12.37023,15.06524,12.37023S564.54028,16.86989,572.99158,11.022c6.91748,6.46972,14.32116,10.99633,20.7102,17.51184a1.81494,1.81494,0,0,0,2.50391,0c5.9906-6.80237,11.69592-12.6449,17.73511-19.40418,6.587,6.166,13.9646,11.16455,20.50012,17.3844a1.81617,1.81617,0,0,0,2.48218.00964c6.87426-6.531,14.19189-12.595,21.1206-19.06872,6.51111,6.78052,13.89307,12.71521,20.29248,19.60449.62793.676,15.46863-11.33044,22.14527-18.02844,5.84558,7.18262,12.89868,11.1427,18.91345,18.19238a1.79328,1.79328,0,0,0,2.46069,0c7.57861-6.98315,21.57727-20.25525,22.45191-19.13623,1.90771,2.44068,16.43737,13.95508,20.81481,17.98645.71985.663,19.33545-15.933,19.48609-16.06738,2.03113,1.62561,9.9414,7.94055,15.3916,12.06164Z" fill="#ac9857"/></g></svg>