<svg id="Layer_1" data-name="Layer 1" xmlns="http://www.w3.org/2000/svg" width="800" height="15" viewBox="0 0 800 15">
  <title>pattern-colored-angles</title>
  <path d="M10.25366,9.43005a3.09744,3.09744,0,0,0-.65161.25385,35.89744,35.89744,0,0,0-2.56134,2.75745A15.62741,15.62741,0,0,1,5.5816,14.27954c11.04328-.25885,10.3808-.27844,10.3808-.27844Z" fill="#a74624"/>
  <path d="M29.74432,10.62018c-.37933-.4577-.88672-1.52722-1.74914-1.39978-.71118.10516-1.3443.99859-1.74683,1.358q-1.84122,1.64466-3.678,3.29224a77.99742,77.99742,0,0,1,9.15485.16076c.17462-.12823.30017-.29028.22052-.41241A32.55578,32.55578,0,0,0,29.74432,10.62018Z" fill="#54754a"/>
  <path d="M47.01581,8.23a2.30748,2.30748,0,0,0-.90192.44336c-.65234.56787-4.90722,4.285-5.02289,4.39758,3.032.10834,3.32331.60614,9.08557.05371.53675-.33068,1.07154-.88153.67817-1.27465C47.02386,8.02228,47.42169,7.91766,47.01581,8.23Z" fill="#a74624"/>
  <path d="M65.881,9.068c-.58826-.51135-4.30469,3.30109-4.79822,3.85389a1.2176,1.2176,0,0,0-.30041.20074c6.67261.09692,1.76044.07147,8.74042-.36853A27.50459,27.50459,0,0,0,65.881,9.068Z" fill="#5b784a"/>
  <path d="M82.31653,9.02655c-.966.074-1.72986.97632-2.20917,1.36047a41.68946,41.68946,0,0,0-3.35211,2.97461c2.1994-.35058,3.3573-.0487,10.59058-.01037-.80237-.90406-1.751-1.75074-2.52332-2.68128C84.37048,10.12537,83.58582,8.92926,82.31653,9.02655Z" fill="#a74624"/>
  <path d="M100.49664,9.49115a.65737.65737,0,0,0-.47986.03925,2.04381,2.04381,0,0,0-.78759.24884c-1.54108,1.23754-3.22364,2.41247-4.90039,3.60278a78.03283,78.03283,0,0,1,10.0307.169l.424-.00867c.45447-.00928,1.33221-.40991.98919-.652A51.5933,51.5933,0,0,0,100.49664,9.49115Z" fill="#54754a"/>
  <path d="M119.92572,8.81a16.71579,16.71579,0,0,0-3.16754,2.12579c-.9176.71588-1.83362,1.43213-2.73712,2.15161a89.56966,89.56966,0,0,1,11.93506.0362c.261-.09925.469-.24482.3861-.35492A10.74052,10.74052,0,0,0,119.92572,8.81Z" fill="#a74624"/>
  <path d="M141.1972,9.95038c-.56732-.44061-1.3673-1.32825-2.382-1.03943a5.114,5.114,0,0,0-1.89936,1.44379,13.13522,13.13522,0,0,0-2.08032,2.54852,46.44532,46.44532,0,0,1,6.85156.05609c.6529-.05646,1.30506-.10089,1.9563-.09924.15589-.12342.2486-.26227.17853-.36121A12.86585,12.86585,0,0,0,141.1972,9.95038Z" fill="#54754a"/>
  <path d="M158.59113,7.44116c-.913-.34906-2.46552,2.2005-2.67664,2.46265-.70056.86975-1.4057,1.73846-2.0954,2.61139,3.36121.19745,2.75006-.23059,8.61945.16327.09839-.01172.19818-.026.30023-.04389C163.09393,12.09888,160.333,8.10754,158.59113,7.44116Z" fill="#a74624"/>
  <path d="M180.27173,8.763c-.4668-.40735-1.05872-1.4281-2.20758-1.23852-.99634.16436-1.72016,1.16754-2.18982,1.577q-1.82473,1.59083-3.43,3.24591c-.1366.14051-.091.20239.03125.21466.03973.28394,2.99231-.48205,10.32306.03516.50756.03577,1.44122-.38568,1.10522-.67084C182.67,10.87921,181.48077,9.81818,180.27173,8.763Z" fill="#54754a"/>
  <path d="M200.78546,7.81757c-.2149-.15149-.72839.21258-.69189.43206-1.24958.64923-5.9361,4.40882-5.87256,4.77564-.0127.00879-.025.01922-.03754.02869,6.19757-.44825,9.23914.30407,11.73242.08923.15973-.16223.242-.34986.13086-.4834A27.98941,27.98941,0,0,0,200.78546,7.81757Z" fill="#a74624"/>
  <path d="M220.98676,8.35095a27.0204,27.0204,0,0,0-5.38465,4.27686c.0401.00281,3.63172.32672,3.67194.33038,3.70318-.15393,4.4104.24506,7.209.24768A25.403,25.403,0,0,0,220.98676,8.35095Z" fill="#54754a"/>
  <path d="M242.11749,8.70844a40.99453,40.99453,0,0,0-4.35321,4.16009c-.13074.16162-.39581.44623-.03271.55023.18853.054,6.32177-.15228,9.128-.03674.47473.01953,1.48083-.48529,1.24011-.76813A16.30655,16.30655,0,0,0,242.11749,8.70844Z" fill="#a74624"/>
  <path d="M264.23376,9.40729c-.33642-.26233-.76532.24963-5.818,4.53137,3.53143.11829,7.051.33868,10.58313.45044.0987-.09168.14679-.18939.07892-.27307A29.69135,29.69135,0,0,0,264.23376,9.40729Z" fill="#54754a"/>
  <path d="M286.80249,9.38556c-.13208-.10877-.57489.06818-.65289.11389-2.40424,1.40888-7.5196,5.09369-6.95563,5.08276,2.57251-.04968,5.14374-.13421,7.71436-.20477,1.18792-.03259,3.43389.178,4.36907-.30292C292.251,13.57379,291.43683,13.199,286.80249,9.38556Z" fill="#a74624"/>
  <path d="M311.23969,11.06464c-.67573-.51734-2.0282-2.13251-3.43256-2.054-.98682.05518-1.01178.26721-5.754,4.94354-.405.11261-.90625.56433-.40546.54523q5.53464-.11545,11.06861-.26654c.37475-.00983.81109-.2677.84143-.47345C313.7168,12.6817,312.30841,11.88263,311.23969,11.06464Z" fill="#54754a"/>
  <path d="M328.68982,8.262c-.9115.2273-1.77338,1.2948-2.37128,1.8031a51.683,51.683,0,0,0-3.972,3.73322c-.21454.22559-.13025.32587.03961.33014-.41681.627.2713-.26727,11.50445-.39734.3371-.00391.98389-.4483.73163-.70673C329.67316,7.95435,329.87738,7.96588,328.68982,8.262Z" fill="#a74624"/>
  <path d="M350.781,8.147c-.1742-.17108-.63813.15729-.72071.23249-2.12658,1.93457-4.29,3.84839-6.40613,5.78894l-.02484.01123c3.77021.15362,7.58741.01684,11.34827.00335.2149-.137.37952-.31945.29083-.4638A29.32878,29.32878,0,0,0,350.781,8.147Z" fill="#54754a"/>
  <path d="M371.89655,8.33447c-.28925-.16845-.90046.148-1.03833.26581a30.97328,30.97328,0,0,0-5.29261,5.5863,55.69841,55.69841,0,0,0,8.00257.71778c1.3858.03778,2.957-.17462,4.37133-.01239.35871-.14844.67908-.39533.559-.58063A19.12749,19.12749,0,0,0,371.89655,8.33447Z" fill="#a74624"/>
  <path d="M19.08813,6.51349c.53357.58063,3.55793-2.76087,6.05445-4.57434a.85994.85994,0,0,0,.37628-.66553c.25818-.2724.37457-.5733-.04065-.59656C22.396.504,19.2204.783,16.13245.85779c-.39618.00964-1.102.55206-.95337.92938C15.866,3.53052,17.75989,5.06836,19.08813,6.51349Z" fill="#f8b63b"/>
  <path d="M317.56543,7.06927a4.01439,4.01439,0,0,0,1.18561-.35766,43.05723,43.05723,0,0,0,3.24994-3.1532,18.321,18.321,0,0,1,1.85138-2.10193c-14.01227.296-12.93824.25244-13.17163.31836.57946.43048,1.08892.89124,1.53759,1.27918C313.86926,4.48151,315.80231,5.71722,317.56543,7.06927Z" fill="#005574"/>
  <path d="M360.36523,6.75153a3.4601,3.4601,0,0,0,1.29883-.58124c.93946-.74439,7.06708-5.61688,7.23365-5.76447-4.36652-.142-4.786-.79455-13.08442-.07043-.773.43347-1.54315,1.15558-.97662,1.67084C360.35364,7.02386,359.7807,7.161,360.36523,6.75153Z" fill="#005574"/>
  <path d="M339.13531,6.34088c.84107.6828,6.15485-4.40838,6.86054-5.14654a1.75518,1.75518,0,0,0,.4295-.26807c-9.54052-.12946-2.51709-.09546-12.49713.49206A38.08818,38.08818,0,0,0,339.13531,6.34088Z" fill="#f8b63b"/>
  <path d="M254.22485,7.78094a.52764.52764,0,0,0,.49317-.05322,1.77146,1.77146,0,0,0,.80957-.33758c1.584-1.67871,3.31347-3.27253,5.037-4.88709-2.60047-.06354-5.37983.453-10.31025-.22931l-.43579.01178c-.4671.01264-1.36932.556-1.01672.8844A54.01832,54.01832,0,0,0,254.22485,7.78094Z" fill="#f8b63b"/>
  <path d="M297.30609,7.2738A17.30364,17.30364,0,0,0,300.47363,4.548c.91761-.918,1.83356-1.83636,2.73706-2.75891-8.64819.31287-3.74737.31885-11.935-.04638-.261.12725-.46906.3139-.38611.455A10.83735,10.83735,0,0,0,297.30609,7.2738Z" fill="#f8b63b"/>
  <path d="M271.994,6.20361a28.7305,28.7305,0,0,0,2.91113,1.85889s2.34747-1.79706,2.99536-2.461a19.38706,19.38706,0,0,0,2.87-3.79486,59.36917,59.36917,0,0,1-9.45239-.08362c-.90076.08411-1.80048.15027-2.699.14777-.215.18384-.343.39062-.24622.538A18.46356,18.46356,0,0,0,271.994,6.20361Z" fill="#005574"/>
  <path d="M210.93011,6.04926c1.34852.32653,3.64179-2.05835,3.95368-2.30359,1.03479-.81354,2.07642-1.62616,3.09509-2.44269-4.9649-.18469-4.06213.2157-12.73187-.15271-.14539.01092-.29279.02435-.44354.041C204.27887,1.69238,208.35724,5.4259,210.93011,6.04926Z" fill="#f8b63b"/>
  <path d="M229.19257,4.9964c.4873.38507,1.10528,1.34985,2.30468,1.17065a5.0742,5.0742,0,0,0,2.2862-1.4906q1.905-1.50366,3.58087-3.068c.14264-.13281.095-.19129-.03259-.20288-.04151-.26837-3.124.45563-10.77729-.03321-.5299-.03387-1.50457.36451-1.15381.634C226.68872,2.99615,227.9303,3.999,229.19257,4.9964Z" fill="#005574"/>
  <path d="M189.33252,6.24237c.21875.15949.74133-.22375.70422-.45483,1.27173-.68341,6.04132-4.64106,5.97663-5.02723.01288-.00921.02539-.02026.03814-.03021C189.74414,1.202,186.64868.41,184.11127.63617c-.1626.17084-.24634.36835-.13324.50885A28.87633,28.87633,0,0,0,189.33252,6.24237Z" fill="#005574"/>
  <path d="M168.41382,6.53577c1.16382-.67841,3.87573-4.324,4.71643-5.68366-.041-.00384-3.71124-.44794-3.75232-.453-3.78424.21106-4.507-.336-7.36682-.3396A33.363,33.363,0,0,0,168.41382,6.53577Z" fill="#f8b63b"/>
  <path d="M130.0899,5.48816a37.9973,37.9973,0,0,0,4.11976-3.7392c.12378-.14526.37463-.40106.031-.49457-.17847-.04858-5.98279.13691-8.63849.033-.44934-.01751-1.40149.43616-1.17364.69043A15.52174,15.52174,0,0,0,130.0899,5.48816Z" fill="#f8b63b"/>
  <path d="M90.73651,5.95679c.35254.23217.802-.221,6.09717-4.01081-3.70093-.10473-7.38941-.2998-11.091-.39874-.10346.08118-.15387.16766-.08271.2417A29.39966,29.39966,0,0,0,90.73651,5.95679Z" fill="#f8b63b"/>
  <path d="M73.86151,5.37939c.09174.08368.39923-.05249.45337-.08764,1.6695-1.08344,5.22156-3.91712,4.8299-3.90869-1.78626.0382-3.57172.10321-5.35676.15747-.82489.02508-2.38452-.13684-3.03387.233C70.07806,2.15857,70.64343,2.44672,73.86151,5.37939Z" fill="#005574"/>
  <path d="M145.74768,4.32538c.60761.52362,1.82367,2.15851,3.08643,2.0791.88733-.05585.90973-.27045,5.1737-5.004.3642-.11395.81488-.57123.36457-.55188q-4.97644.11691-9.95234.26984c-.337.00989-.72931.27093-.75659.47925C143.52039,2.68854,144.78674,3.49738,145.74768,4.32538Z" fill="#005574"/>
  <path d="M109.9895,5.72034A6.75877,6.75877,0,0,0,112.174,4.43561a44.98571,44.98571,0,0,0,3.65936-2.66c.19764-.1607.12-.23217-.03649-.23523.384-.44671-.24994.19049-10.5987.28315-.31055.0028-.90637.31945-.674.50354C109.08356,5.93951,108.89545,5.93134,109.9895,5.72034Z" fill="#005574"/>
  <path d="M56.45831,5.922c.1308.12945.47913-.11908.54114-.176,1.59668-1.46435,3.22113-2.913,4.81-4.38183l.01861-.00849c-2.83081-.11633-5.6969-.01275-8.52075-.00256-.16137.1037-.285.24182-.21832.35107A22.16667,22.16667,0,0,0,56.45831,5.922Z" fill="#f8b63b"/>
  <path d="M37.12726,5.63257c.25958.133.80816-.11688.93188-.21A26.11342,26.11342,0,0,0,42.809,1.01019,56.5983,56.5983,0,0,0,35.627.44324c-1.24371-.02985-2.6538.13794-3.92309.00982-.3219.11719-.60944.3122-.50165.45856A16.5686,16.5686,0,0,0,37.12726,5.63257Z" fill="#005574"/>
  <path d="M6.74567.82031A37.52694,37.52694,0,0,1,0,.90381V5.83429s2.45-1.45123,2.98737-1.8587A46.02331,46.02331,0,0,0,6.74567.82031Z" fill="#005574"/>
  <path d="M383.23157,6.64368l3.71509-3.26752L389.74353.38788S376.80225.0752,377.34106,1.47437C378.25122,3.83759,383.23157,6.64368,383.23157,6.64368Z" fill="#f8b63b"/>
  <path d="M393.22156,10.05151c-.47937-.46923-3.25269,2.38428-5.49549,3.84986a.68006.68006,0,0,0-.338.53784c-.89465.84924.84986.53406,9.93628.33606.35584-.00781.99-.44617.85645-.7511C397.56372,12.61523,394.41479,11.21936,393.22156,10.05151Z" fill="#54754a"/>
  <path d="M397.70087,3.67542C398.2077,4.25317,400,5.83429,400,5.83429s2.45-1.45123,2.98737-1.8587a46.02331,46.02331,0,0,0,3.7583-3.15528A37.52694,37.52694,0,0,1,400,.90381C398.66406.87207,397.00537.842,394.87183.8313,395.77136,1.79028,396.835,2.68842,397.70087,3.67542Z" fill="#005574"/>
  <polygon points="166.538 12.011 166.541 12.01 166.54 12.009 166.538 12.011" fill="#54754a"/>
  <path d="M410.25366,9.43a3.09758,3.09758,0,0,0-.65161.25391,35.89744,35.89744,0,0,0-2.56134,2.75745,15.62741,15.62741,0,0,1-1.45911,1.83819c11.04328-.25885,10.3808-.27844,10.3808-.27844Z" fill="#a74624"/>
  <path d="M429.74432,10.62018c-.37933-.4577-.88672-1.52722-1.74914-1.39978-.71118.1051-1.3443.99859-1.74683,1.358q-1.84122,1.64466-3.678,3.29224a77.98439,77.98439,0,0,1,9.15485.16076c.17462-.12823.30017-.29028.22052-.41241A32.55578,32.55578,0,0,0,429.74432,10.62018Z" fill="#54754a"/>
  <path d="M447.01581,8.23a2.30832,2.30832,0,0,0-.90192.44342c-.65234.56787-4.90722,4.285-5.02289,4.39758,3.032.10834,3.32331.60614,9.08557.05371.53675-.33068,1.07154-.88153.67817-1.27465C447.02386,8.02228,447.42169,7.91766,447.01581,8.23Z" fill="#a74624"/>
  <path d="M465.881,9.068c-.58826-.51135-4.30469,3.30109-4.79822,3.85389a1.2176,1.2176,0,0,0-.30041.20074c6.67261.09692,1.76044.07141,8.74042-.36853A27.50459,27.50459,0,0,0,465.881,9.068Z" fill="#54754a"/>
  <path d="M482.31653,9.02649c-.966.074-1.72986.97638-2.20917,1.36053a41.68946,41.68946,0,0,0-3.35211,2.97461c2.1994-.35058,3.3573-.0487,10.59058-.01037-.80237-.90406-1.751-1.75074-2.52332-2.68128C484.37048,10.12537,483.58582,8.92926,482.31653,9.02649Z" fill="#a74624"/>
  <path d="M500.49664,9.49109a.65774.65774,0,0,0-.47986.03931,2.04381,2.04381,0,0,0-.78759.24884c-1.54108,1.23754-3.22364,2.41247-4.90039,3.60278a78.03283,78.03283,0,0,1,10.0307.169l.42395-.00867c.45447-.00928,1.33221-.40991.98919-.652A51.60373,51.60373,0,0,0,500.49664,9.49109Z" fill="#54754a"/>
  <path d="M519.92572,8.81a16.71579,16.71579,0,0,0-3.16754,2.12579c-.9176.71588-1.83362,1.43213-2.73712,2.15161a89.56966,89.56966,0,0,1,11.93506.0362c.261-.09931.469-.24482.3861-.35492A10.74024,10.74024,0,0,0,519.92572,8.81Z" fill="#a74624"/>
  <path d="M541.1972,9.95038c-.56732-.44068-1.3673-1.32831-2.38195-1.03943a5.114,5.114,0,0,0-1.89936,1.44379,13.13548,13.13548,0,0,0-2.08032,2.54846,46.44539,46.44539,0,0,1,6.85156.05615c.6529-.05646,1.30506-.10089,1.9563-.09924.15589-.12342.2486-.26227.17853-.36127A12.86719,12.86719,0,0,0,541.1972,9.95038Z" fill="#54754a"/>
  <path d="M558.59113,7.44116c-.913-.34912-2.46552,2.2005-2.67664,2.46265-.70056.86975-1.4057,1.73846-2.0954,2.61139,3.36121.19745,2.75006-.23059,8.61945.16327.09839-.01172.19818-.02607.30023-.04389C563.09393,12.09888,560.333,8.10754,558.59113,7.44116Z" fill="#a74624"/>
  <path d="M580.27173,8.763c-.4668-.40735-1.05872-1.42816-2.20758-1.23852-.99634.16436-1.72016,1.16754-2.18982,1.577q-1.82474,1.59083-3.43,3.24591c-.1366.14051-.091.20239.03125.21466.03973.28394,2.99231-.48205,10.32306.03516.50756.03577,1.44122-.38568,1.10522-.67084C582.67,10.87921,581.48077,9.81818,580.27173,8.763Z" fill="#54754a"/>
  <path d="M600.78546,7.81757c-.2149-.15149-.72839.21258-.69189.43206-1.24958.64923-5.9361,4.40882-5.87256,4.77564-.0127.00873-.025.01922-.03754.02869,6.19757-.44831,9.23914.30407,11.73242.08923.15973-.16223.242-.34986.13086-.4834A27.98941,27.98941,0,0,0,600.78546,7.81757Z" fill="#a74624"/>
  <path d="M620.98676,8.35095a27.0204,27.0204,0,0,0-5.38465,4.27686c.0401.00281,3.63172.32672,3.67194.33038,3.70318-.15393,4.4104.24506,7.209.24768A25.403,25.403,0,0,0,620.98676,8.35095Z" fill="#54754a"/>
  <path d="M642.11749,8.70844a40.99453,40.99453,0,0,0-4.35321,4.16009c-.13074.16162-.39581.44617-.03271.55023.18853.054,6.32177-.15234,9.128-.03674.47473.01953,1.48083-.48529,1.24011-.76813A16.30655,16.30655,0,0,0,642.11749,8.70844Z" fill="#a74624"/>
  <path d="M664.23376,9.40729c-.33642-.26233-.76532.24963-5.818,4.53137,3.53143.11822,7.051.33868,10.58313.45044.0987-.09174.14679-.18939.07892-.27307A29.69135,29.69135,0,0,0,664.23376,9.40729Z" fill="#54754a"/>
  <path d="M686.80249,9.38556c-.13208-.10883-.57489.06818-.65289.11389-2.40424,1.40888-7.5196,5.09369-6.95563,5.08276,2.57251-.04968,5.14374-.13421,7.71436-.20477,1.18792-.03259,3.43389.17792,4.36907-.30292C692.251,13.57379,691.43683,13.199,686.80249,9.38556Z" fill="#a74624"/>
  <path d="M711.23969,11.06464c-.67573-.51734-2.0282-2.13251-3.43256-2.054-.98682.05518-1.01178.26721-5.754,4.94354-.405.11261-.90625.56433-.40546.54523q5.53464-.11545,11.06861-.26654c.37475-.00983.81109-.2677.84143-.47351C713.7168,12.6817,712.30841,11.88263,711.23969,11.06464Z" fill="#54754a"/>
  <path d="M728.68982,8.262c-.9115.2273-1.77332,1.2948-2.37122,1.8031a51.68494,51.68494,0,0,0-3.97216,3.73322c-.21448.22552-.13013.32587.03967.33014-.41687.627.27136-.26727,11.50451-.39734.337-.004.98389-.4483.73157-.70673C729.6731,7.95435,729.87744,7.96588,728.68982,8.262Z" fill="#a74624"/>
  <path d="M750.781,8.147c-.1742-.17108-.63819.15729-.72071.23249-2.12658,1.93457-4.29,3.84839-6.40613,5.78888l-.02478.01129c3.77015.15362,7.58741.01684,11.34815.00335.215-.137.37964-.31945.29089-.4638A29.32878,29.32878,0,0,0,750.781,8.147Z" fill="#54754a"/>
  <path d="M771.89648,8.33447c-.28918-.16845-.90039.14795-1.03833.26581a30.975,30.975,0,0,0-5.29248,5.5863,55.6959,55.6959,0,0,0,8.00245.71778c1.38586.03778,2.957-.17462,4.37133-.01245.35877-.14838.6792-.39527.55909-.58057A19.12694,19.12694,0,0,0,771.89648,8.33447Z" fill="#a74624"/>
  <path d="M419.08813,6.51349c.53357.58063,3.55793-2.76093,6.05445-4.57434a.86.86,0,0,0,.37628-.66553c.25818-.27246.37457-.5733-.04065-.59656C422.396.504,419.2204.783,416.13245.85779c-.39618.00964-1.10205.55206-.95337.92938C415.866,3.53052,417.75989,5.06836,419.08813,6.51349Z" fill="#f8b63b"/>
  <path d="M717.56543,7.06927a4.01292,4.01292,0,0,0,1.18555-.35766,43.04722,43.04722,0,0,0,3.25-3.1532,18.32761,18.32761,0,0,1,1.85131-2.10193c-14.0122.296-12.93817.25238-13.17156.31836.57946.43048,1.08892.89124,1.53759,1.27918C713.86926,4.48151,715.80225,5.71722,717.56543,7.06927Z" fill="#005574"/>
  <path d="M760.36523,6.75153a3.46055,3.46055,0,0,0,1.29883-.58124c.93946-.74439,7.06714-5.61688,7.23365-5.76447-4.36646-.142-4.786-.79455-13.08448-.07043-.77295.43347-1.54309,1.15558-.97656,1.67084C760.35364,7.02386,759.78076,7.161,760.36523,6.75153Z" fill="#005574"/>
  <path d="M739.13525,6.34088c.84107.6828,6.15491-4.40838,6.8606-5.14654a1.75126,1.75126,0,0,0,.42944-.26813c-9.54052-.1294-2.51709-.0954-12.49707.49212A38.09475,38.09475,0,0,0,739.13525,6.34088Z" fill="#f8b63b"/>
  <path d="M654.22485,7.78094a.5275.5275,0,0,0,.49317-.05328,1.77144,1.77144,0,0,0,.80957-.33752c1.584-1.67871,3.31347-3.27253,5.037-4.88709-2.60047-.06354-5.37983.453-10.31025-.22931l-.43579.01178c-.4671.01264-1.36932.556-1.01672.8844A54.01832,54.01832,0,0,0,654.22485,7.78094Z" fill="#f8b63b"/>
  <path d="M697.30609,7.2738A17.30364,17.30364,0,0,0,700.47363,4.548c.91761-.918,1.83356-1.83636,2.73706-2.75891-8.64819.31287-3.74737.31885-11.935-.04638-.261.12725-.46906.31384-.38611.455A10.83735,10.83735,0,0,0,697.30609,7.2738Z" fill="#f8b63b"/>
  <path d="M671.994,6.20361a28.7305,28.7305,0,0,0,2.91113,1.85889s2.34747-1.79706,2.99536-2.461a19.38706,19.38706,0,0,0,2.87-3.79486,59.36917,59.36917,0,0,1-9.45239-.08362c-.90076.08411-1.80048.15027-2.699.14777-.215.18378-.343.39062-.24622.538A18.46356,18.46356,0,0,0,671.994,6.20361Z" fill="#005574"/>
  <path d="M610.93011,6.04926c1.34852.32653,3.64179-2.05835,3.95368-2.30359,1.03479-.81354,2.07642-1.62616,3.09509-2.44269-4.9649-.18475-4.06213.2157-12.73187-.15277-.14539.011-.29279.02435-.44354.04107C604.27887,1.69238,608.35724,5.4259,610.93011,6.04926Z" fill="#f8b63b"/>
  <path d="M629.19257,4.9964c.4873.38507,1.10528,1.34985,2.30468,1.17065a5.07469,5.07469,0,0,0,2.2862-1.4906q1.905-1.50366,3.58087-3.068c.14264-.13281.095-.19129-.03259-.20288-.04151-.26844-3.124.45563-10.77729-.03321-.5299-.03387-1.50457.36451-1.15381.634C626.68872,2.99615,627.9303,3.999,629.19257,4.9964Z" fill="#005574"/>
  <path d="M589.33252,6.24231c.21875.15955.74133-.22369.70422-.45477,1.27173-.68341,6.04132-4.64106,5.97663-5.02723.01288-.00921.02539-.02026.03814-.03021C589.74414,1.202,586.64868.41,584.11127.63617c-.1626.17078-.24634.36835-.13324.50885A28.876,28.876,0,0,0,589.33252,6.24231Z" fill="#005574"/>
  <path d="M568.41382,6.53577c1.16382-.67841,3.87573-4.324,4.71643-5.68366-.041-.00384-3.71124-.44794-3.75232-.453-3.78424.21106-4.507-.336-7.36682-.3396A33.363,33.363,0,0,0,568.41382,6.53577Z" fill="#f8b63b"/>
  <path d="M530.0899,5.4881A37.99123,37.99123,0,0,0,534.20966,1.749c.12378-.14526.37463-.40106.031-.49457-.17847-.04858-5.98279.13691-8.63849.033-.44934-.01751-1.40149.43616-1.17364.69037A15.52014,15.52014,0,0,0,530.0899,5.4881Z" fill="#f8b63b"/>
  <path d="M490.73651,5.95679c.35254.23217.802-.221,6.09717-4.01081-3.70093-.10473-7.38941-.2998-11.091-.39874-.10346.08118-.15387.16766-.08271.2417A29.40242,29.40242,0,0,0,490.73651,5.95679Z" fill="#f8b63b"/>
  <path d="M473.86151,5.37939c.09174.08362.39923-.05249.45337-.08764,1.6695-1.08344,5.22156-3.91712,4.8299-3.90869-1.78626.0382-3.57172.10321-5.35676.15747-.82489.02508-2.38452-.13684-3.03387.233C470.07806,2.15857,470.64343,2.44672,473.86151,5.37939Z" fill="#005574"/>
  <path d="M545.74768,4.32538c.60761.52362,1.82367,2.15851,3.08643,2.0791.88733-.05585.90973-.27051,5.1737-5.004.3642-.11395.81488-.57123.36457-.55188q-4.97645.11691-9.95234.26984c-.337.00989-.72931.27093-.75659.47925C543.52039,2.68854,544.78674,3.49738,545.74768,4.32538Z" fill="#005574"/>
  <path d="M509.9895,5.72028A6.75663,6.75663,0,0,0,512.174,4.43555a44.98529,44.98529,0,0,0,3.65936-2.66c.19764-.1607.12-.23217-.03649-.23523.384-.44677-.24994.19043-10.5987.28315-.31055.0028-.90637.31939-.674.50354C509.08356,5.93951,508.89545,5.93134,509.9895,5.72028Z" fill="#005574"/>
  <path d="M456.45831,5.922c.1308.12945.47913-.11908.54114-.176,1.59668-1.46441,3.22113-2.913,4.81-4.38183l.01861-.00849c-2.83081-.11633-5.6969-.01275-8.52075-.00256-.16137.1037-.285.24182-.21832.35107A22.16667,22.16667,0,0,0,456.45831,5.922Z" fill="#f8b63b"/>
  <path d="M437.12726,5.63257c.25958.133.80816-.11688.93188-.21A26.11342,26.11342,0,0,0,442.809,1.01019a56.58616,56.58616,0,0,0-7.182-.56695c-1.24371-.02985-2.6538.13794-3.92309.00976-.3219.11725-.60944.31226-.50165.45862A16.5686,16.5686,0,0,0,437.12726,5.63257Z" fill="#005574"/>
  <path d="M783.23157,6.64368l3.71509-3.26752L789.74353.38788S776.80225.0752,777.34106,1.47437C778.25122,3.83759,783.23157,6.64368,783.23157,6.64368Z" fill="#f8b63b"/>
  <path d="M793.22156,10.05151c-.47937-.46923-3.25269,2.38428-5.49549,3.84986a.6799.6799,0,0,0-.338.53784c-.89465.84924.84986.53406,9.93628.33606.35584-.00781.99-.44617.85645-.7511C797.56372,12.61523,794.41479,11.21936,793.22156,10.05151Z" fill="#54754a"/>
  <path d="M794.87183.8313c.89953.959,1.96313,1.85712,2.8291,2.84412C798.20776,4.25317,800,5.83429,800,5.83429V.90381C798.66406.87207,797.00537.842,794.87183.8313Z" fill="#005574"/>
  <polygon points="566.538 12.011 566.541 12.01 566.54 12.009 566.538 12.011" fill="#54754a"/>
  <path d="M782.91882,10.168c-1.5072-1.49329-3.03979-2.28119-4.58117-3.74091-.77979-.7384-6.00806-5.47039-6.54676-4.97461-3.776,3.4751-7.73669,6.23829-11.52136,9.70435C757.249,7.726,753.596,5.85742,750.807,2.23315a.90134.90134,0,0,0-1.37683-.18151c-3.37146,3.35-6.89881,5.39111-10.23243,8.77557-3.24719-3.37817-9.916-9.55829-10.75952-8.91657a141.05907,141.05907,0,0,0-10.59289,9.55817c-3.31079-3.10547-7.36255-6.19061-10.64954-9.321-.32342-.308-6.75989,6.0462-9.75976,9.42944C694.19275,8.333,686.55548,2.1507,686.23669,2.36755a104.3663,104.3663,0,0,0-11.98724,9.93323c-1.54578-1.42224-2.94891-3.09631-4.49652-4.5166-.894-.82031-5.18335-5.969-6.97913-3.97937.05927-.06567-6.5238,5.82019-8.40753,7.20258-3.77246-3.34272-12.12658-9.49189-12.12658-9.49189s-7.13819,5.89942-10.26325,9.04175C628.44122,7.81738,624.895,5.57764,621.7207,2.438a.93179.93179,0,0,0-1.08825-.14374,72.76317,72.76317,0,0,0-9.34052,8.07251c-3.36969-3.00958-7.67889-6.24921-11.28-8.98767-.41113-.31268-6.75183,6.6142-9.99383,9.48187a52.996,52.996,0,0,0-11.20392-9.48187.9114.9114,0,0,0-.90784,0c-3.73584,2.61053-7.07025,4.94073-10.09613,8.33984C564.82684,6.80884,558.6286.42371,558.30359.79114c-2.8349,3.2052-6.28534,6.296-9.06867,9.541-3.47-3.0697-7.17858-5.59-10.62036-8.69091-.48993-.44141-6.06988,6.22277-8.91821,8.83044a43.07477,43.07477,0,0,0-9.93384-8.67816c-.52221-.34656-6.97387,6.18109-9.73291,9.00757q-4.33878-3.71183-8.68072-7.42a1.14209,1.14209,0,0,0-1.31208-.17334,71.89507,71.89507,0,0,0-9.11254,6.78711c-.62452-.60547-3.12684-2.58191-3.81635-3.23224A40.24177,40.24177,0,0,1,483.068,2.80682a.85709.85709,0,0,0-1.199-.214,1.24637,1.24637,0,0,0-.34.3111V2.80682c-2.53119,2.52625-4.963,4.64972-7.50006,7.17035-2.53973-2.69543-5.53753-5.44519-8.11651-8.1051-.49-.50537-6.66486,5.64246-8.9004,8.333-3.19-2.6355-9.93658-8.86475-10.30584-8.53-3.36237,3.04761-6.84686,5.91516-10.23194,8.93817-2.34967-2.67328-7.92517-8.14624-8.28015-7.84247-2.89807,2.47962-5.66919,5.57916-8.69085,7.79938-3.15387-2.79388-9.04792-9.50147-9.93952-8.72205-1.71521,1.49933-5.14569,5.18451-7.66931,7.96552-.52191-.49341-1.17578-1.05219-1.89447-1.63538C396.802,5.58307,392.30768,2.5,392.30768,2.5s-6.028,4.98645-9.38886,7.668c-1.5072-1.49329-3.03979-2.28119-4.58123-3.74091-.77973-.7384-6.008-5.47039-6.5467-4.97461-3.77606,3.4751-7.73669,6.23829-11.52136,9.70435C357.249,7.726,353.596,5.85742,350.807,2.23315a.90133.90133,0,0,0-1.37683-.18151c-3.37146,3.35-6.89881,5.39111-10.23243,8.77557-3.24719-3.37817-9.91607-9.55829-10.75952-8.91657a141.05907,141.05907,0,0,0-10.59289,9.55817c-3.31079-3.10547-7.36255-6.19061-10.64954-9.321-.32342-.308-6.75989,6.0462-9.75976,9.42944C294.19275,8.333,286.55548,2.1507,286.23669,2.36755a104.3663,104.3663,0,0,0-11.98724,9.93323c-1.54578-1.42224-2.94891-3.09631-4.49652-4.5166-.894-.82031-5.18335-5.969-6.97913-3.97937.05927-.06567-6.5238,5.82019-8.40753,7.20258-3.77246-3.34272-12.12658-9.49189-12.12658-9.49189s-7.13819,5.89942-10.26325,9.04175C228.44122,7.81738,224.895,5.57764,221.7207,2.438a.93179.93179,0,0,0-1.08825-.14374,72.76317,72.76317,0,0,0-9.34052,8.07251c-3.36969-3.00958-7.67889-6.24921-11.28-8.98767-.41113-.31268-6.75183,6.6142-9.99383,9.48187a52.996,52.996,0,0,0-11.20392-9.48187.9114.9114,0,0,0-.90784,0c-3.73584,2.61053-7.07025,4.94073-10.09613,8.33984C164.82684,6.80884,158.6286.42371,158.30359.79114c-2.8349,3.2052-6.28534,6.296-9.06867,9.541-3.47-3.0697-7.17858-5.59-10.62036-8.69091-.48993-.44141-6.06988,6.22277-8.91821,8.83044a43.07477,43.07477,0,0,0-9.93384-8.67816c-.52221-.34656-6.97387,6.18109-9.73291,9.00757q-4.33878-3.71183-8.68072-7.42a1.14209,1.14209,0,0,0-1.31208-.17334,71.89507,71.89507,0,0,0-9.11254,6.78711c-.62452-.60547-3.12684-2.58191-3.81635-3.23224A40.24177,40.24177,0,0,1,83.068,2.80682a.85709.85709,0,0,0-1.199-.214,1.24637,1.24637,0,0,0-.34.3111V2.80682C78.99786,5.33307,76.566,7.45654,74.029,9.97717c-2.53973-2.69543-5.53753-5.44519-8.11651-8.1051-.49-.50537-6.66486,5.64246-8.9004,8.333-3.19-2.6355-9.93658-8.86475-10.30584-8.53-3.36237,3.04761-6.84686,5.91516-10.23194,8.93817C34.12463,7.93994,28.54913,2.467,28.19415,2.77075,25.29608,5.25037,22.525,8.34991,19.5033,10.57013c-3.15387-2.79388-9.04792-9.50147-9.93952-8.72205C7.84857,3.34741,4.41809,7.03259,1.89447,9.8136,1.37256,9.32019.71869,8.76141,0,8.17822v2.85572a13.112,13.112,0,0,0,2.98,1.99365c2.626-2.77454,4.38348-5.24341,6.9386-8.12323,3.04376,2.74188,5.7926,4.73474,8.8902,7.42218a.93462.93462,0,0,0,1.082.14294,48.07669,48.07669,0,0,0,8.3034-6.87317c2.31885,2.67029,5.27918,5.03321,7.57044,7.72718.34552.40637,7.60852-6.16492,11.00079-9.16883,2.812,3.1106,10.74646,8.65027,11.11652,8.20087a58.54082,58.54082,0,0,1,7.87115-7.92279c2.41309,2.76123,8.49616,8.55713,8.88141,8.17456,2.52179-2.50427,5.072-4.9812,7.6-7.47961C83.4657,6.47424,84.949,7.683,86.2561,8.91669c.91681.86541,4.813,4.45062,5.12226,4.13421.00341.02466,5.86743-5.50122,9.10461-7.58276q4.419,3.782,8.84168,7.55981a1.13386,1.13386,0,0,0,1.54632,0c2.96625-2.97815,6.1969-5.56939,9.05994-8.77136,3.26245,2.374,6.37805,4.70587,8.77569,7.9353a.91811.91811,0,0,0,1.50135.31366l.03717-.03765.00006-.00013.00036-.00036a76.79774,76.79774,0,0,0,8.369-8.33551,86.54667,86.54667,0,0,0,11.02655,8.77777c.38526.2688,6.0683-6.59827,8.82672-9.82642,2.84711,3.00586,8.82331,9.49817,8.8758,9.53577.64606.36731,4.24768-3.16516,5.94891-4.5492,1.14447-.931,4.84082-3.753,4.84082-3.753S186.445,9.50342,189.195,12.84082a.94657.94657,0,0,0,1.29486,0c3.35095-2.84521,6.17956-5.329,9.47729-8.22717,3.90351,2.94018,7.66577,4.80005,10.712,7.60766a.93957.93957,0,0,0,1.28564,0,65.6767,65.6767,0,0,1,9.08393-7.57141c3.24591,3.13593,10.66619,9.14295,10.66619,9.14295l.98041-.43354s6.29761-6.191,9.40973-9.32171c3.77295,3.3399,12.30206,9.994,12.30206,9.994s4.3703-3.9961,6.378-5.92542c.532-.51129,2.00776-1.63251,2.87928-2.55463,1.03271,1.049,2.46026,2.32282,3.08355,2.89454,2.20734,2.02472,7.53266,6.18512,7.53266,6.18512s7.98962-6.19629,12.21527-9.12024c3.45874,3.23486,7.16058,5.49817,10.3551,8.75592a.90747.90747,0,0,0,1.252,0c2.9953-3.40119,5.848-6.32245,8.86756-9.70209,3.29352,3.083,6.9823,5.58227,10.25006,8.6922a.90809.90809,0,0,0,1.24109.00482c3.43713-3.2655,7.096-6.29748,10.5603-9.53436,3.25555,3.39026,6.94653,6.3576,10.14624,9.80224.314.338,7.73431-5.66522,11.07263-9.01422,2.92279,3.59131,6.44934,5.57135,9.45673,9.09619a.89664.89664,0,0,0,1.23035,0c3.7893-3.49157,10.78863-10.12762,11.226-9.56811.95385,1.22034,8.21869,6.97754,10.40741,8.99322.35992.33149,9.66772-7.96649,9.743-8.03369,1.01556.81281,4.9707,3.97028,7.6958,6.03083a13.112,13.112,0,0,0,2.98,1.99365c2.626-2.77454,4.38348-5.24341,6.9386-8.12323,3.04376,2.74188,5.7926,4.73474,8.8902,7.42218a.93462.93462,0,0,0,1.082.14294,48.07669,48.07669,0,0,0,8.3034-6.87317c2.31885,2.67029,5.27918,5.03321,7.57044,7.72718.34552.40637,7.60852-6.16492,11.00079-9.16883,2.812,3.1106,10.74646,8.65027,11.11652,8.20087a58.54082,58.54082,0,0,1,7.87115-7.92279c2.41309,2.76123,8.49616,8.55713,8.88141,8.17456,2.52179-2.50427,5.072-4.9812,7.6-7.47961,1.23126,1.34655,2.7146,2.55529,4.02166,3.789.91681.86541,4.813,4.45062,5.12226,4.13421.00341.02466,5.86743-5.50122,9.10461-7.58276q4.419,3.782,8.84168,7.55981a1.13386,1.13386,0,0,0,1.54632,0c2.96625-2.97815,6.1969-5.56939,9.05994-8.77136,3.26245,2.374,6.378,4.70587,8.77569,7.9353a.91811.91811,0,0,0,1.50135.31366l.03717-.03765.00006-.00013.00036-.00036a76.79774,76.79774,0,0,0,8.369-8.33551,86.54667,86.54667,0,0,0,11.02655,8.77777c.38526.2688,6.0683-6.59827,8.82672-9.82642,2.84711,3.00586,8.82331,9.49817,8.8758,9.53577.64606.36731,4.24768-3.16516,5.94891-4.5492,1.14447-.931,4.84082-3.753,4.84082-3.753s8.31159,5.18665,11.06159,8.52405a.94657.94657,0,0,0,1.29486,0c3.351-2.84521,6.17956-5.329,9.47729-8.22717,3.90351,2.94018,7.66577,4.80005,10.712,7.60766a.93957.93957,0,0,0,1.28564,0,65.6767,65.6767,0,0,1,9.08393-7.57141c3.24591,3.13593,10.66619,9.14295,10.66619,9.14295l.98041-.43354s6.29761-6.191,9.40973-9.32171c3.773,3.3399,12.30206,9.994,12.30206,9.994s4.3703-3.9961,6.378-5.92542c.53205-.51129,2.00776-1.63251,2.87928-2.55463,1.03271,1.049,2.46026,2.32282,3.08355,2.89454,2.20734,2.02472,7.53266,6.18512,7.53266,6.18512s7.98962-6.19629,12.21527-9.12024c3.45874,3.23486,7.16058,5.49817,10.3551,8.75592a.90747.90747,0,0,0,1.25195,0c2.9953-3.40119,5.848-6.32245,8.86756-9.70209,3.29352,3.083,6.9823,5.58227,10.25006,8.6922a.90809.90809,0,0,0,1.24109.00482c3.43713-3.2655,7.096-6.29748,10.5603-9.53436,3.25549,3.39026,6.94653,6.3576,10.14624,9.80224.314.338,7.73425-5.66522,11.07263-9.01422,2.92285,3.59131,6.44934,5.57135,9.45679,9.09619a.89647.89647,0,0,0,1.23022,0c3.78931-3.49157,10.7887-10.12762,11.22608-9.56811.95386,1.22034,8.21863,6.97754,10.40735,8.99322.36.33149,9.66772-7.96649,9.743-8.03369,1.01562.81281,4.9707,3.97028,7.6958,6.03083V8.17822C796.802,5.58307,792.30762,2.5,792.30762,2.5S786.27966,7.48645,782.91882,10.168Z" fill="#8f653c"/>
</svg>
