<svg id="ò__1" data-name="ò‡_1" xmlns="http://www.w3.org/2000/svg" width="800" height="40" viewBox="0 0 800 40"><title>pattern-02</title><path d="M784.61536,14.28571s-12.056,8.5482-18.77771,13.1452c-3.01441-2.55992-6.07959-3.91061-9.16248-6.413-1.55945-1.26584-12.016-9.37783-13.09338-8.5279-7.55213,5.95731-15.47339,10.69419-23.04273,16.636-6.041-5.88156-13.347-9.08476-18.925-15.29779a1.99076,1.99076,0,0,0-2.75366-.31117C692.11743,19.26,685.06274,22.759,678.39551,28.56093c-6.49439-5.79115-19.83216-16.38564-21.519-15.28554-7.58789,4.94887-14.23828,10.82038-21.18579,16.38543-6.62158-5.32366-14.72509-10.61248-21.29907-15.97883-.64685-.528-13.51977,10.36492-19.51953,16.16476-6.48657-5.56159-21.76111-16.15984-22.39868-15.78809-8.61768,5.02536-16.31928,10.9608-23.97455,17.02839-3.09149-2.43812-5.89777-5.308-8.993-7.74274-1.7879-1.40625-10.36664-10.23256-13.95819-6.82178C525.66614,16.40995,512.5,26.5,508.73248,28.8698,501.18756,23.13944,484.47931,12.598,484.47931,12.598S470.203,22.71129,463.95282,28.09814c-7.07037-4.69691-14.16278-8.53648-20.51141-13.91873a2.10563,2.10563,0,0,0-2.17652-.24641c-6.69293,3.94148-12.90478,8.99132-18.681,13.83859C415.84442,22.6123,407.226,17.05866,400.0238,12.36415c-.82232-.536-13.50372,11.33863-19.98773,16.25464A103.64954,103.64954,0,0,0,357.6283,12.36415a2.08914,2.08914,0,0,0-1.81568,0c-7.47168,4.47521-14.1405,8.46983-20.19226,14.29688-5.96667-4.98874-18.36316-15.93468-19.01324-15.30479-5.6698,5.49463-12.57068,10.79317-18.13727,16.356-6.93994-5.26234-14.35718-9.5828-21.24078-14.89871-.9798-.7567-12.13978,10.66762-17.83637,15.1379-5.32214-5.76709-12.64227-10.76754-19.86774-14.87685-1.04437-.5941-13.94775,10.59616-19.46582,15.44155q-8.67746-6.36312-17.36145-12.72a2.583,2.583,0,0,0-2.62408-.29716,144.4599,144.4599,0,0,0-18.22516,11.63505c-1.249-1.038-6.2536-4.42613-7.63269-5.541-2.69666-2.18-5.785-4.30256-8.07977-6.78139a1.90392,1.90392,0,0,0-2.398-.36684,2.39754,2.39754,0,0,0-.67994.53331V14.8117c-5.06231,4.3307-9.926,7.971-15.00006,12.292-5.07946-4.62074-11.07507-9.33461-16.23309-13.89446-.97992-.86635-13.32971,9.67279-17.80078,14.28516-6.38-4.518-19.87317-15.19671-20.6117-14.62291C86.68768,18.096,79.71875,23.01179,72.94861,28.19409c-4.6994-4.58276-15.8504-13.965-16.56037-13.44423-5.79608,4.25077-11.33837,9.56428-17.38165,13.37036C32.69885,23.33071,20.91071,11.832,19.1275,13.16814,15.69714,15.73842,8.83618,22.05587,3.78894,26.82331,2.74506,25.97747,1.43738,25.01957,0,24.01981V40H800V24.01981C793.604,19.571,784.61536,14.28571,784.61536,14.28571ZM11.16321,34.47921A27.91582,27.91582,0,0,0,14.08136,31.328a66.55153,66.55153,0,0,1,5.12274-4.727,6.83123,6.83123,0,0,1,1.30329-.43516L31.9248,34.00188S33.24976,34.03547,11.16321,34.47921Zm52.28717-2.67532a181.867,181.867,0,0,0-18.30975-.2756q3.66962-2.82679,7.35614-5.64384c.80493-.61617,2.07122-2.14788,3.49359-2.32805,1.72485-.21858,2.73962,1.615,3.49829,2.39962a57.19036,57.19036,0,0,1,4.40271,5.14087C64.05066,31.30626,63.79962,31.58405,63.45038,31.80389Zm36.90271-.483c-11.52448.947-12.10706.09364-18.17108-.09219.23132-.19294,8.74115-6.56511,10.04583-7.5386A4.95059,4.95059,0,0,1,94.03156,22.93c.81182-.53551.01611-.35617,7.67791,6.20591C102.49615,29.80971,101.42657,30.754,100.35309,31.32091Zm21.21155,1.1749a2.49413,2.49413,0,0,1,.60083-.344c.98712-.94765,8.41992-7.48326,9.59643-6.60666a51.66677,51.66677,0,0,1,7.28363,6.31913C125.08551,32.61844,134.90991,32.66207,121.56464,32.49581Zm31.9458.40985a80.74277,80.74277,0,0,1,6.70428-5.09933c.95862-.65856,2.48627-2.20543,4.41834-2.33235,2.53863-.16678,4.10785,1.88379,5.012,2.81742,1.54468,1.59521,3.44189,3.04667,5.04657,4.59657C160.2251,32.82216,157.9093,32.30476,153.51044,32.90566Zm56.05645.30769q-.424.00861-.848.017c-9.59338-.98555-15.00146-.23942-20.06134-.33115,3.35352-2.33214,6.71863-4.63439,9.80085-7.05934a4.14735,4.14735,0,0,1,1.57519-.48745,1.33978,1.33978,0,0,1,.95966-.077,103.49659,103.49659,0,0,1,10.55194,6.66051C212.23132,32.41017,210.47583,33.19517,209.56689,33.21335Zm42.34534-.71586c-16.37518-.48821-6.57355-.48026-23.87-.06194,1.807-1.2334,3.639-2.46125,5.47412-3.68848,1.02044-.38965,2.22461-2.01217,6.33514-3.64422,6.23242,1.22262,10.27142,3.87295,12.833,6.78631C252.85034,32.07792,252.4342,32.32736,251.91223,32.49749Zm35.37464-.45159c-1.30243-.00283-2.60682.07335-3.91266.17013-6.45716-.46164-7.33741-.21366-13.70313-.09626a23.51558,23.51558,0,0,1,4.16065-4.36879c.93921-.76434,2.18841-2.08217,3.79876-2.47507,2.02936-.49522,3.62921,1.02655,4.76386,1.78188a24.39068,24.39068,0,0,1,5.24957,4.3689C287.78406,31.5963,287.59863,31.83433,287.28687,32.0459Zm38.19067-.38662c-.204.03066-.40363.05515-.60046.07523-11.73871-.67518-10.51642.0586-17.23884-.27989,1.37928-1.49633,2.78962-2.98566,4.19074-4.47666.42224-.4494,3.52734-4.82018,5.35327-4.22168C320.66583,23.89865,326.18787,30.74093,325.47754,31.65928Zm40.11975-.064c-14.6615-.88665-20.56665.42658-20.64612-.06037-.2445-.02093-.33569-.127-.0625-.36789q3.2178-2.837,6.85993-5.56452c.93939-.70187,2.387-2.4216,4.3797-2.70347,2.29779-.325,3.48162,1.42487,4.41516,2.12318,2.41809,1.809,4.79657,3.628,7.26422,5.42306C368.47968,30.93408,366.61243,31.65667,365.59729,31.59525Zm45.85944-1.31407c-4.98645.3683-11.06964-.92139-23.46473-.153.02515-.01611.04969-.03411.075-.04918-.12708-.62883,9.246-7.07394,11.74511-8.1868-.07287-.37626.9541-1.00049,1.38391-.74069a53.72815,53.72815,0,0,1,10.52253,8.301C411.9408,29.68143,411.77625,30.00307,411.45673,30.28118Zm27.59137.64725c-.08045-.00649-7.26362-.56166-7.34388-.56647,1.64545-1.7,8.49152-6.48361,10.76923-7.33176a49.19629,49.19629,0,0,1,10.99274,8.32272C447.8689,31.34842,446.45447,30.66445,439.0481,30.92843Zm54.671,1.26217c-5.61243-.19806-17.87885.15559-18.25592.0631-.72632-.1785-.196-.6663.06543-.94336a77.98208,77.98208,0,0,1,8.70636-7.13159c4.93139,1.78763,9.3283,4.04066,11.96429,6.69506C496.68085,31.35868,494.66858,32.224,493.71912,32.1906Zm44.27868.47643c-7.06415-.19158-14.10345-.56951-21.16632-.77229,10.10541-7.34012,10.9632-8.21767,11.636-7.768a56.29434,56.29434,0,0,1,9.68817,8.07223C538.29138,32.34235,538.19525,32.50977,537.9978,32.667Zm44.557-1.03938c-1.87036.8245-6.36243.46352-8.73816.51939-5.14136.121-10.28375.26587-15.42871.351-1.128.01873,9.10278-6.29809,13.91113-8.71331.156-.07837,1.04175-.3818,1.30591-.19534C582.87366,30.12692,584.50208,30.76925,582.55481,31.62765Zm43.56055,1.08489c-.06067.35272-.93348.79478-1.68274.81163q-11.06507.24782-22.13721.45693c-1.00171.03285.00073-.74163.81079-.93457,9.48438-8.01668,9.53443-8.38017,11.50806-8.47475,2.80871-.13456,5.51367,2.63441,6.86523,3.52117C623.61694,29.49512,626.43359,30.86506,626.11536,32.71254Zm41.56213-.728c-22.46631.22287-23.84253,1.756-23.009.68116-.3396-.00733-.5083-.17934-.0791-.566A98.76745,98.76745,0,0,1,652.53345,25.7c1.1958-.87138,2.91943-2.70139,4.74243-3.091,2.37524-.50768,1.9668-.52745,11.86487,8.16409C669.64526,31.216,668.35156,31.97789,667.67749,31.98458Zm41.40271,1.68635c-7.52173.02313-15.15613.25761-22.69653-.00575.017-.00607.03235-.01329.04968-.01925,4.23218-3.32666,8.55908-6.6075,12.81226-9.9239.16528-.12891,1.093-.69183,1.4414-.39865a52.58485,52.58485,0,0,1,8.97486,9.55246C709.83923,33.12329,709.51,33.436,709.0802,33.67093ZM755.879,31.39948c-2.82874-.27811-5.97107.086-8.7428.02114a129.36583,129.36583,0,0,1-16.005-1.23047,57.61487,57.61487,0,0,1,10.58508-9.57652c.27588-.20194,1.49829-.74435,2.07678-.45557,5.89832,2.94225,10.28259,6.38568,13.20374,10.246C757.23718,30.72168,756.59644,31.145,755.879,31.39948Zm38.76965-.35616c-18.17285.33942-21.66186.87974-19.87256-.5761a1.1532,1.1532,0,0,1,.676-.922c4.48559-2.51242,10.03223-7.40416,10.991-6.59975,2.38647,2.002,8.68432,4.39495,9.91845,6.81027C796.62866,30.27846,795.36035,31.02992,794.64868,31.04332Z" fill="#ac9857" opacity="0.39"/><path d="M30.35822,14.193c1.37373,2.47581,5.1616,4.65972,7.81812,6.712,1.06714.82456,7.11579-3.92088,12.10893-6.49622.505-.26055.782-.6763.75251-.94516.51636-.38686.74916-.81413-.08123-.84717-6.16449-.24582-12.51569.15048-18.6916.25668C31.47264,12.88686,30.0609,13.65718,30.35822,14.193Z" fill="#ac9857" opacity="0.39"/><path d="M624.43662,15.23542c3.302,2.44712,7.168,4.56554,10.69427,6.88336a9.04317,9.04317,0,0,0,2.37121-.61314c2.1156-1.80886,4.69207-3.4734,6.4999-5.4055a33.50729,33.50729,0,0,1,3.70275-3.60331c-28.02452.5074-25.87656.43268-26.34331.54577C622.52035,13.78056,623.53934,14.57045,624.43662,15.23542Z" fill="#ac9857" opacity="0.39"/><path d="M711.62667,11.89c-1.546.65619-3.08633,1.74936-1.95334,2.52943,11.034,7.59608,9.88807,7.80368,11.05718,7.18381a8.11963,8.11963,0,0,0,2.59764-.87994c1.87892-1.12689,14.13415-8.50325,14.46736-8.72669C729.06243,11.78155,728.22344,10.79376,711.62667,11.89Z" fill="#ac9857" opacity="0.39"/><path d="M667.8565,12.4314A72.676,72.676,0,0,0,678.27064,20.87c1.68216,1.17058,12.30962-7.55719,13.721-8.82265a3.624,3.624,0,0,0,.85906-.45957C673.76965,11.36592,687.81657,11.42423,667.8565,12.4314Z" fill="#ac9857" opacity="0.39"/><path d="M500.50867,13.89785l-.87157.02019c-.93428.02161-2.73871.9532-2.03349,1.51608a105.56492,105.56492,0,0,0,10.84608,7.90466,1.2086,1.2086,0,0,0,.9864-.09132,3.87152,3.87152,0,0,0,1.6191-.57865c3.16811-2.87782,6.627-5.61005,10.074-8.3779C515.92825,14.182,510.36946,15.06751,500.50867,13.89785Z" fill="#ac9857" opacity="0.39"/><path d="M594.61216,22.46933c4.11053-2.09269,5.31468-4.17317,6.33514-4.67282,1.83512-1.57364,3.66712-3.14808,5.47413-4.72955-17.29649.53635-7.49485.54654-23.87006-.07955-.522.21817-.93813.53809-.77224.78006A21.36272,21.36272,0,0,0,594.61216,22.46933Z" fill="#ac9857" opacity="0.39"/><path d="M542.63622,12.95374c-1.80152.14421-3.601.25758-5.39789.25334-.4301.31507-.68592.66958-.49254.92218A34.40689,34.40689,0,0,0,543.988,20.6348a59.57583,59.57583,0,0,0,5.82222,3.18663s4.695-3.08071,5.99076-4.2189a34.123,34.123,0,0,0,5.74-6.50546C552.75894,13.272,551.54449,13.64114,542.63622,12.95374Z" fill="#ac9857" opacity="0.39"/><path d="M410.494,11.97183c-.29075.01879-.58557.04174-.887.07039-1.04924.859,7.10748,7.25934,12.25321,8.32788,2.697.5598,7.28365-3.52861,7.9074-3.94893,2.06962-1.3947,4.15284-2.78778,6.19023-4.18753C426.028,11.917,427.83346,12.60342,410.494,11.97183Z" fill="#ac9857" opacity="0.39"/><path d="M450.80124,13.43947c2.57624,1.69674,5.05941,3.416,7.58388,5.12582.97461.66,2.21053,2.314,4.6094,2.00682,2.08037-.2664,3.59167-1.89183,4.57239-2.55534q3.81-2.5777,7.16176-5.25954c.2852-.22768.19-.32788-.06526-.34776-.083-.46015-6.24789.78108-21.55448-.057C452.04911,12.29448,450.09968,12.9774,450.80124,13.43947Z" fill="#ac9857" opacity="0.39"/><path d="M368.22249,11.09058c-.32519.29279-.49266.63141-.26643.87233a55.01278,55.01278,0,0,0,10.709,8.73823c.43744.27343,1.48261-.38355,1.40843-.77966,2.54341-1.17155,12.0826-7.95608,11.95326-8.61807.02576-.01581.0507-.03473.0763-.0518C379.48833,12.06059,373.29733,10.70291,368.22249,11.09058Z" fill="#ac9857" opacity="0.39"/><path d="M337.21282,18.59586c2.23256-.88975,7.43494-5.67106,9.04781-7.45427-.07868-.00505-7.11948-.5875-7.19829-.59416-7.25958.27686-8.646-.44062-14.13225-.44534C327.24872,12.66058,333.64616,16.72727,337.21282,18.59586Z" fill="#ac9857" opacity="0.39"/><path d="M248.85708,13.39052c2.49467,2.38584,6.65582,4.4109,11.32273,6.01769a73.14368,73.14368,0,0,0,8.23954-6.41c.24747-.24906.74926-.68755.06193-.84787-.35687-.08323-11.96554.23471-17.277.05665C250.30571,12.17691,248.40136,12.95468,248.85708,13.39052Z" fill="#ac9857" opacity="0.39"/><path d="M171.48531,11.58c-.20691.15866-.30772.32768-.16542.47241a58.53981,58.53981,0,0,0,10.153,8.14714c.70509.45388,1.60406-.43187,12.19435-7.84017C186.26548,12.1547,178.88844,11.77333,171.48531,11.58Z" fill="#ac9857" opacity="0.39"/><path d="M147.723,19.2218c.18349.1434.79847-.08994.90678-.15021,3.339-1.85731,10.44313-6.715,9.65986-6.70066-3.57263.06552-7.14352.177-10.71361.26994-1.64972.043-4.76895-.23457-6.06768.3994C140.15615,13.70039,141.28691,14.1944,147.723,19.2218Z" fill="#ac9857" opacity="0.39"/><path d="M291.49534,16.69293c1.21521.78895,3.64736,3.25221,6.17282,3.13252,1.77466-.08415,1.81954-.40751,10.34748-7.53928.72834-.1717,1.62972-.86063.72914-.8315q-9.95289.17616-19.90474.40652c-.67385.01495-1.45853.40827-1.51313.72209C287.04073,14.22681,289.57345,15.44547,291.49534,16.69293Z" fill="#ac9857" opacity="0.39"/><path d="M209.04835,13.36748c9.11878,6.84041,8.74251,6.82488,10.93063,6.4253,1.6795-.30667,3.26749-1.74689,4.36909-2.43268,2.59209-1.6137,5.04692-3.2885,7.31864-5.03681.39531-.30429.24-.43963-.07295-.44542.76794-.84594-.49992.36064-21.19734.53614C209.7753,12.41929,208.58357,13.01885,209.04835,13.36748Z" fill="#ac9857" opacity="0.39"/><path d="M106.61468,12.31967c-.32276.17774-.57.41451-.43673.6018a39.67167,39.67167,0,0,0,6.73869,7.23047c.26158.222.9582-.20409,1.08225-.30165,3.19343-2.51034,6.44226-4.99369,9.62-7.51167l.03725-.01459C117.99452,12.12467,112.26227,12.30216,106.61468,12.31967Z" fill="#ac9857" opacity="0.39"/><path d="M71.25411,11.58565c-2.48746-.0464-5.30762.21469-7.84622.01528-.64383.1824-1.21893.486-1.00325.71371,2.62175,2.7682,6.55646,5.23734,11.84989,7.34722a3.08722,3.08722,0,0,0,1.86375-.32672,49.50147,49.50147,0,0,0,9.4998-6.86712C82.12478,12.22083,80.62229,11.76025,71.25411,11.58565Z" fill="#ac9857" opacity="0.39"/><path d="M333.0763,30.59038l.004-.003.00069.00147Z" fill="#ac9857" opacity="0.39"/><path d="M0,11.54939v8.45225s4.8999-2.48783,5.97468-3.18635a90.175,90.175,0,0,0,7.51659-5.409C9.8569,11.87605,7.48416,11.70163,0,11.54939Z" fill="#ac9857" opacity="0.39"/><path d="M766.46313,21.38917l7.43018-5.60147,5.59375-5.12277s-25.88257-.536-24.80493,1.86255C756.50244,16.57872,766.46313,21.38917,766.46313,21.38917Z" fill="#ac9857" opacity="0.39"/><path d="M789.74365,11.42508c1.79907,1.644,3.92627,3.18363,5.65808,4.87563C796.41541,17.29116,800,20.00164,800,20.00164V11.54939C797.32812,11.495,794.01074,11.4435,789.74365,11.42508Z" fill="#ac9857" opacity="0.39"/><polygon points="333.076 30.59 333.081 30.589 333.08 30.587 333.076 30.59" fill="#ac9857" opacity="0.39"/><path d="M785,1.76941c-48.06714-.11585-54.35364,1.30017-78.698,1.40649q-64.50494.28181-129.00989.047c-49.33154-.16943-98.65472-.45886-147.983-1.13013C354.36426,1.07288,279.43176-.71484,204.47736.30334,139.8941,1.18066,75.31854,3.40186,10.72308,2.32788Q5.36121,2.23871,0,2.11621V6.59387c59.65869,1.23865,119.30334-.34094,178.9588-1.39856,74.67389-1.324,149.27557-.07055,223.94306,1.01343Q484.268,7.39014,565.63379,7.67432c41.3009.11718,82.60156.69995,123.90222.53186C719.2063,8.08545,761.12891,6.266,785,6.23779c2.26-.00268,10.69385.27332,15,.35608V2.11621C794.99963,2.0144,785,1.76941,785,1.76941Z" fill="#ac9857" opacity="0.45"/></svg>