<svg id="Layer_1" data-name="Layer 1" xmlns="http://www.w3.org/2000/svg" width="40" height="40" viewBox="0 0 40 40"><title>share-twitter</title><rect width="40" height="40" fill="#4dc8f1"/><path d="M8.57143,27.18066A13.33656,13.33656,0,0,0,29.08872,15.338a9.50528,9.50528,0,0,0,2.33985-2.42759,9.3684,9.3684,0,0,1-2.6931.73823,4.69665,4.69665,0,0,0,2.06127-2.59425,9.398,9.398,0,0,1-2.97719,1.13859,4.69253,4.69253,0,0,0-7.99119,4.27712,13.30834,13.30834,0,0,1-9.66527-4.90015,4.695,4.695,0,0,0,1.45131,6.26141,4.67219,4.67219,0,0,1-2.12483-.58685,4.69466,4.69466,0,0,0,3.76137,4.65765,4.6932,4.6932,0,0,1-2.11709.08009A4.69219,4.69219,0,0,0,15.514,25.239,9.4244,9.4244,0,0,1,8.57143,27.18066Z" fill="#fff"/></svg>