<svg id="Artwork" xmlns="http://www.w3.org/2000/svg" width="800" height="400" viewBox="0 0 800 400">
  <title>wavy-background</title>
  <rect width="800" height="400" fill="#462b41"/>
  <g>
    <path d="M0,400V13.88345A120.45311,120.45311,0,0,0,32.1839,7.59066c89.58832-29.9776,101.14941,40,187.51282,18.24445,16.4309-4.139,31.9953-12.09387,48.14941-17.73309C310.789-6.88889,355.54544,27.18525,400,18.2034c60-12.12273,105-35,180.30322,7.63171,77.50325,43.87722,97.92456-48.222,187.51294-18.24445A120.45183,120.45183,0,0,0,800,13.88345V400Z" fill="#fff"/>
    <g opacity="0.39">
      <path d="M0,30.95148C31.743,30.009,58.08047,9.50772,102.38062,21.28554c32.11376,8.448,60.17689,31.55681,104.36914,22.40052,12.836-2.45849,18.46772-4.44265,18.36767-4.41363,40.90519-12.99754,47.58494-29.762,101.61121-12.74231,67.98972,21.79865,53.09409,17.56022,123.588,2.59044C561.0457,5.31934,582.598,60.24553,639.108,49.80039,675.79266,43.11831,700.82389,4.488,763.418,22.84673c12.57164,3.96233,21.93539,7.17375,36.95141,8.10475L800,37.94173c-20.995-.9419-34.55445-7.14141-41.69788-8.76082l-3.05395-.70909c-52.841-12.16524-71.206,18.02272-111.26135,28.37262-21.9192,5.02211-36.09709,1.45105-56.16724-5.04564-2.54773-.92239-12.2208-5.07132-12.1178-5.02754-75.51709-32.32466-107.874-12.75955-174.12011,1.5484-27.12442,5.48125-51.49729-5.2929-77.45527-13.65225-36.98289-11.85568-47.18376-7.43935-72.26873,2.62275-23.2527,9.3598-31.124,10.71027-31.02393,10.68348-13.39052,2.83539-27.51837,5.54566-46.07455,3.2216C145.39078,47.58867,124.8821,32.696,100.98883,26.54765,58.01916,15.23869,35.03539,35.3318.36938,37.94173Z" fill="#ac9857"/>
    </g>
  </g>
</svg>
