<svg xmlns="http://www.w3.org/2000/svg" width="800" height="400" viewBox="0 0 800 400">
  <title>wavy-background</title>
  <g id="Artwork">
    <rect width="800" height="400" fill="#462b41"/>
    <path d="M0,400V13.88345A120.45311,120.45311,0,0,0,32.1839,7.59066c89.58832-29.9776,101.14941,40,187.51282,18.24445,16.4309-4.139,31.9953-12.09387,48.14941-17.73309C310.789-6.88889,355.54544,27.18525,400,18.2034c60-12.12273,105-35,180.30322,7.63171,77.50325,43.87722,97.92456-48.222,187.51294-18.24445A120.45183,120.45183,0,0,0,800,13.88345V400Z" fill="#fff"/>
  </g>
  <g id="Layer_3" data-name="Layer 3">
    <path d="M658.83338,59.70164c-48.469,28.89975-104.64605-27.07092-159.19225-25.76848-35.04542.83681-65.7082,10.33146-100.638,13.08567-49.09994,3.87144-63.00478-14.4659-89.77542-16.56154-46.55606-3.64447-84.73734,15.60086-108.47866,18.59951-50.63726,6.39578-80.86474,4.99911-130.19882-10.64829C46.4528,30.76535,24.40407,31.35544,0,40V70c42.94632.27875,68.67782,33.39778,104.41087,34.70836,36.88322,1.35273,71.7541-16.02863,108.03963-22.71331,54.00187-9.94845,85.53823,11.84849,111.61536,18.34342,25.49719,6.35048,98.61953,17.206,142.52,1.74361C511.96082,86.10039,552.61764,102.58326,600,110c27.84617,4.35872,49,7,101.06709-6.65764C741.39191,92.76482,769,70,800,70V40C757.05368,55.2127,702.12235,33.89045,658.83338,59.70164Z" fill="#ac9857" opacity="0.39"/>
    <g>
      <path d="M17.14535,52.12376c.04072-.93687-1.545-2.49531-3.64692-2.055a9.42426,9.42426,0,0,0-5.4903,4.1504C6.51082,56.36457,5.93447,57.636,9.38872,59.54926c1.29379.71661,2.30888.67773,4.10912-.723A10.28158,10.28158,0,0,0,17.14535,52.12376Z" fill="#fff"/>
      <path d="M23.65212,68.00938a1.14586,1.14586,0,0,0,1.88285-.1466c.25665-.43242.71485-1.83092.03791-2.26292C24.951,65.203,22.42594,66.914,23.65212,68.00938Z" fill="#fff"/>
      <g id="lBlDq8">
        <path d="M7.55689,81.40624C5.18764,83.28581,2.56507,83.22262.84362,80.06742c-1.52335-2.79209-1.1029-5.82752-4.1691-6.61858-1.55562-.40133-3.26275-.20982-5.2655-2.26119-3.711-3.801.28555-9.06044,7.57779-7.69375,2.37186.44455,4.027-.96885,5.841-1.42066A6.10424,6.10424,0,0,1,12.179,66.44361c.60789,2.456-1.21221,3.72263-1.83342,5.56882C9.46469,74.63027,11.40154,78.35617,7.55689,81.40624Z" fill="#fff"/>
      </g>
      <path d="M-1.85877,51.67615c2.01748-1.67458,4.7137-2.94959,6.70963-2.10664,1.53862.6498,1.18425,4.00045-1.223,6.712-3.89871,4.39156-7.368,1.49887-7.5542-.26917A5.30118,5.30118,0,0,1-1.85877,51.67615Z" fill="#fff"/>
      <path d="M23.54956,60.05365c.43851-1.95311-1.46674-5.07975-4.29309-3.03872-4.63912,3.35009-6.89947,4.8904-4.17055,7.99966C18.23539,68.603,22.60453,64.26287,23.54956,60.05365Z" fill="#fff"/>
      <path d="M16.93052,77.49347a4.01581,4.01581,0,0,1-3.003-4.32106c.42669-1.915,2.39-2.859,6.40184-4.93364,1.46857-.75945,2.97685,1.19177,2.68661,3.1885C22.53071,74.76539,20.27934,78.12577,16.93052,77.49347Z" fill="#fff"/>
      <path d="M23.70609,56.10959a1.1572,1.1572,0,0,0,1.90342-.142c.258-.43634.71626-1.84875.03018-2.28775C25.00946,53.27661,22.46222,54.99811,23.70609,56.10959Z" fill="#fff"/>
      <path d="M17.34536,49.78459a1.11556,1.11556,0,0,1,.18124-1.89608c.4739-.28512,2.00231-.83469,2.46505-.18434C20.41671,48.30158,18.52427,50.94238,17.34536,49.78459Z" fill="#fff"/>
      <path d="M6.28061,49.038c-.74182-.72532-.63491-1.53274.09157-1.94832.47581-.27219,2.0291-.7682,2.54069-.0755C9.38281,47.65046,7.55873,50.28768,6.28061,49.038Z" fill="#fff"/>
    </g>
    <g>
      <g id="lBlDq8-2" data-name="lBlDq8">
        <path d="M807.55689,81.40624c-2.36925,1.87957-4.99182,1.81638-6.71327-1.33882-1.52335-2.79209-1.1029-5.82752-4.1691-6.61858-1.55562-.40133-3.26275-.20982-5.2655-2.26119-3.711-3.801.28555-9.06044,7.57779-7.69375,2.37186.44455,4.027-.96885,5.841-1.42066a6.10424,6.10424,0,0,1,7.35114,4.37037c.60789,2.456-1.21221,3.72263-1.83342,5.56882C809.46469,74.63027,811.40154,78.35617,807.55689,81.40624Z" fill="#fff"/>
      </g>
      <path d="M798.14123,51.67615c2.01748-1.67458,4.7137-2.94959,6.70963-2.10664,1.53862.6498,1.18425,4.00045-1.223,6.712-3.89871,4.39156-7.368,1.49887-7.5542-.26917A5.30118,5.30118,0,0,1,798.14123,51.67615Z" fill="#fff"/>
    </g>
    <g>
      <path d="M86.67458,62.16352c.77912-.52188,1.09618-2.72251-.50312-4.15572a9.42434,9.42434,0,0,0-6.59539-1.96723c-2.61548.06358-3.98134.35188-3.47806,4.2684.1885,1.46694.82085,2.262,3.01553,2.88343A10.28163,10.28163,0,0,0,86.67458,62.16352Z" fill="#fff"/>
      <path d="M77.725,76.81264c-.091.94993.46886,1.50568,1.23292,1.43057.50044-.0492,1.89876-.508,1.8461-1.30927C80.75569,76.19787,77.88177,75.176,77.725,76.81264Z" fill="#fff"/>
      <g id="lBlDq8-3" data-name="lBlDq8">
        <path d="M57.39919,71.77359c-2.91748-.79651-4.41931-2.94742-2.89579-6.20281,1.34818-2.88076,4.04332-4.33911,2.86543-7.27849-.59761-1.49127-1.76269-2.75362-1.29529-5.58217.866-5.2411,7.47075-5.1343,10.68687,1.55159,1.04606,2.17466,3.165,2.67166,4.60319,3.86608a6.10424,6.10424,0,0,1,.83037,8.51174c-1.61933,1.944-3.71774,1.22716-5.57336,1.81961C63.9894,69.29921,62.1335,73.06608,57.39919,71.77359Z" fill="#fff"/>
      </g>
      <path d="M75.78353,46.58334c2.544.63439,5.16788,2.05234,5.67029,4.15992.3873,1.62468-2.52275,3.32291-6.13326,2.98837-5.84741-.5418-5.57028-5.05032-4.2557-6.2472A5.3012,5.3012,0,0,1,75.78353,46.58334Z" fill="#fff"/>
      <path d="M84.07574,72.01963c1.8336-.803,3.22528-4.18959-.093-5.25888-5.44648-1.75511-8.02608-2.66473-8.91608,1.37538C74.03956,72.79883,80.12406,73.7502,84.07574,72.01963Z" fill="#fff"/>
      <path d="M66.10228,77.011a4.01581,4.01581,0,0,1,1.70428-4.97848c1.79592-.79,3.719.23335,7.76629,2.23809,1.48153.73385.80207,3.10461-.97891,4.05292C71.61651,79.90894,67.57546,80.08418,66.10228,77.011Z" fill="#fff"/>
      <path d="M87.34688,69.81062c-.09244.96375.47129,1.52692,1.24137,1.44988.50437-.05045,1.914-.51736,1.86153-1.33019C90.40163,69.18366,87.50614,68.15013,87.34688,69.81062Z" fill="#fff"/>
      <path d="M88.6781,60.93975a1.11557,1.11557,0,0,1,1.63534-.97655c.51036.21309,1.85817,1.11944,1.608,1.8774C91.6917,62.53687,88.44306,62.57531,88.6781,60.93975Z" fill="#fff"/>
      <path d="M82.72868,51.58077c.14532-1.02726.85931-1.41915,1.62434-1.07974.50107.22229,1.82046,1.18039,1.56512,2.0028C85.68358,53.25928,82.4783,53.3507,82.72868,51.58077Z" fill="#fff"/>
    </g>
    <g>
      <path d="M340.53376,67.62476c.53535-.76993.02859-2.93476-1.983-3.68655a9.42437,9.42437,0,0,0-6.85874.57172c-2.41243,1.0124-3.57928,1.77865-1.68326,5.2424.71016,1.29735,1.58875,1.80724,3.859,1.58613A10.28166,10.28166,0,0,0,340.53376,67.62476Z" fill="#fff"/>
      <path d="M337.53851,84.528c.26149.91775.98535,1.23126,1.66949.88285.44809-.22819,1.583-1.165,1.242-1.892C340.13668,82.851,337.088,82.94676,337.53851,84.528Z" fill="#fff"/>
      <g id="lBlDq8-4" data-name="lBlDq8">
        <path d="M316.77411,87.24315c-3.00711.32153-5.18954-1.13412-4.95721-4.72085.20558-3.174,2.18388-5.51426.01576-7.82221-1.1-1.17091-2.645-1.92184-3.2406-4.7262-1.1036-5.19627,5.08579-7.50386,10.51735-2.44988,1.76666,1.64386,3.921,1.33443,5.69558,1.92257a6.10427,6.10427,0,0,1,3.87532,7.62374c-.79948,2.40046-3.01482,2.49766-4.52691,3.72563C322.00931,82.53718,321.65387,86.72136,316.77411,87.24315Z" fill="#fff"/>
      </g>
      <path d="M324.71363,57.08529c2.60025-.33639,5.56043.02779,6.79638,1.80732.95277,1.37179-1.13823,4.01378-4.62235,5.01807-5.64272,1.62652-7.02775-2.67293-6.23977-4.26658A5.30118,5.30118,0,0,1,324.71363,57.08529Z" fill="#fff"/>
      <path d="M341.70566,77.75016c1.41485-1.416,1.47659-5.07689-2.00313-4.86333-5.71154.35054-8.44523.4436-7.80163,4.5302C332.64369,82.13339,338.65645,80.80187,341.70566,77.75016Z" fill="#fff"/>
      <path d="M326.78741,88.9486a4.0158,4.0158,0,0,1-.22731-5.2572c1.3845-1.39015,3.5483-1.13808,8.04782-.74621,1.64709.14345,1.87837,2.59878.56548,4.13094C332.97852,89.63758,329.27926,91.2735,326.78741,88.9486Z" fill="#fff"/>
      <path d="M343.94676,74.50093c.26515.93115.99536,1.25014,1.6844.89775.4513-.2308,1.59378-1.17932,1.24873-1.91713C346.56293,72.8038,343.48992,72.89659,343.94676,74.50093Z" fill="#fff"/>
      <path d="M341.9535,65.755a1.11557,1.11557,0,0,1,1.167-1.50539c.55293.01245,2.13835.36526,2.18166,1.16226C345.3419,66.144,342.33068,67.36372,341.9535,65.755Z" fill="#fff"/>
      <path d="M333.00242,59.2079c-.239-1.00957.283-1.63472,1.11912-1.59746.54762.02439,2.12544.43575,2.18738,1.29466C336.36582,59.69408,333.4143,60.94735,333.00242,59.2079Z" fill="#fff"/>
    </g>
    <g>
      <path d="M406.61359,68.5514c.71559-.60606.78354-2.82838-.96659-4.07294a9.42435,9.42435,0,0,0-6.77458-1.21418c-2.5918.35687-3.91664.79672-2.97676,4.632.352,1.43649,1.06965,2.15548,3.32024,2.52657A10.28167,10.28167,0,0,0,406.61359,68.5514Z" fill="#fff"/>
      <path d="M399.36562,84.11282c.01628.95414.635,1.44352,1.38577,1.28308.49174-.10508,1.82971-.718,1.6874-1.50829C402.30807,83.16163,399.33757,82.46889,399.36562,84.11282Z" fill="#fff"/>
      <g id="lBlDq8-5" data-name="lBlDq8">
        <path d="M378.60248,81.38806c-2.98847-.46386-4.72233-2.43252-3.574-5.8384,1.01617-3.01393,3.53051-4.7657,2.03-7.55422-.76129-1.41473-2.06075-2.53828-1.91393-5.40142.272-5.3052,6.847-5.94072,10.79351.34174,1.28364,2.04343,3.445,2.29935,5.00821,3.32472a6.10426,6.10426,0,0,1,1.78091,8.36467c-1.39079,2.11355-3.55642,1.63687-5.33378,2.43394C384.87316,78.18931,383.452,82.14076,378.60248,81.38806Z" fill="#fff"/>
      </g>
      <path d="M394.0419,54.29273c2.59916.34471,5.36565,1.45906,6.10155,3.49689.56729,1.57091-2.13366,3.58517-5.7589,3.65818-5.87127.11824-6.10216-4.39289-4.93029-5.72981A5.30117,5.30117,0,0,1,394.0419,54.29273Z" fill="#fff"/>
      <path d="M405.13794,78.637c1.73184-1.00382,2.73443-4.52527-.68289-5.21519-5.60912-1.13242-8.27454-1.74662-8.70524,2.36788C395.25274,80.53825,401.40558,80.80036,405.13794,78.637Z" fill="#fff"/>
      <path d="M387.83865,85.6151a4.01581,4.01581,0,0,1,1.13446-5.13837c1.69585-.98663,3.72172-.18574,7.96849,1.35185,1.55456.56285,1.14562,2.99492-.51761,4.13721C393.64341,87.87548,389.6476,88.50338,387.83865,85.6151Z" fill="#fff"/>
      <path d="M408.14034,76.07465c.01636.968.63977,1.46433,1.39633,1.30131.49551-.10677,1.84376-.729,1.70039-1.53081C411.10536,75.10863,408.11214,74.40677,408.14034,76.07465Z" fill="#fff"/>
      <path d="M408.467,67.11039a1.11557,1.11557,0,0,1,1.51534-1.154c.53106.15444,1.97212.9037,1.80868,1.685C411.6409,68.359,408.41712,68.762,408.467,67.11039Z" fill="#fff"/>
      <path d="M401.5043,58.47868c.029-1.03709.69451-1.50667,1.49281-1.25532.52287.16462,1.94149.96851,1.78012,1.81438C404.629,59.81476,401.45424,60.26552,401.5043,58.47868Z" fill="#fff"/>
    </g>
    <g>
      <path d="M574.67062,80.40354c.79205-.502,1.16458-2.694-.398-4.16709a9.42425,9.42425,0,0,0-6.54361-2.13314c-2.61625-.00249-3.98895.25123-3.58473,4.17921.1514,1.47123.76347,2.282,2.94176,2.95865A10.28161,10.28161,0,0,0,574.67062,80.40354Z" fill="#fff"/>
      <path d="M565.354,94.822c-.11492.94733.43069,1.517,1.1964,1.46124.50152-.03654,1.911-.45984,1.87857-1.26223C568.39924,94.284,565.552,93.1898,565.354,94.822Z" fill="#fff"/>
      <g id="lBlDq8-6" data-name="lBlDq8">
        <path d="M545.1619,89.27133c-2.89644-.86992-4.34347-3.05807-2.73824-6.27395,1.42049-2.8458,4.1516-4.23564,3.0483-7.20382-.55976-1.50588-1.69259-2.79726-1.15392-5.6131.99811-5.21756,7.598-4.944,10.64428,1.821.99082,2.20037,3.09657,2.75073,4.50411,3.98107a6.10426,6.10426,0,0,1,.61518,8.53c-1.66791,1.9025-3.74754,1.1329-5.61753,1.6783C551.81249,86.96414,549.86207,90.683,545.1619,89.27133Z" fill="#fff"/>
      </g>
      <path d="M564.17645,64.55332c2.52719.69843,5.11441,2.18219,5.56344,4.30178.34616,1.63394-2.60585,3.25815-6.20676,2.83255-5.83187-.68928-5.441-5.18937-4.0966-6.35267A5.3012,5.3012,0,0,1,564.17645,64.55332Z" fill="#fff"/>
      <path d="M571.82373,90.19089c1.8533-.75643,3.33005-4.10681.03988-5.25955-5.40043-1.89208-7.95624-2.86654-8.948,1.1498C561.77108,90.71642,567.82962,91.82112,571.82373,90.19089Z" fill="#fff"/>
      <path d="M553.73,94.72686a4.01581,4.01581,0,0,1,1.82945-4.93386c1.81529-.74436,3.712.32719,7.70729,2.43348,1.46253.771.72343,3.12388-1.08093,4.02692C559.16927,97.76308,555.12508,97.83622,553.73,94.72686Z" fill="#fff"/>
      <path d="M575.14961,88.06518c-.11675.96111.43259,1.53834,1.20436,1.48077.50549-.0377,1.92642-.46887,1.89453-1.28276C578.21921,87.51556,575.35075,86.40924,575.14961,88.06518Z" fill="#fff"/>
      <path d="M576.70441,79.23075a1.11556,1.11556,0,0,1,1.65947-.935c.50482.22592,1.82931,1.166,1.56012,1.91742C579.67672,80.90346,576.42813,80.85986,576.70441,79.23075Z" fill="#fff"/>
      <path d="M570.9932,69.72454c.17122-1.02327.89487-1.397,1.65109-1.03839.49529.23487,1.79007,1.226,1.514,2.04168C573.90478,71.47712,570.69821,71.48757,570.9932,69.72454Z" fill="#fff"/>
    </g>
    <g>
      <path d="M147.63753,73.6253c.5607-.75166.12636-2.93218-1.85912-3.75057a9.42429,9.42429,0,0,0-6.874.34287c-2.44482.93146-3.63655,1.6584-1.857,5.1834.66654,1.32029,1.52766,1.85918,3.804,1.71383A10.28167,10.28167,0,0,0,147.63753,73.6253Z" fill="#fff"/>
      <path d="M144.08074,90.41935c.23077.926.94378,1.26341,1.63915.938.45544-.21314,1.621-1.11162,1.30433-1.84959C146.73334,88.82986,143.68315,88.824,144.08074,90.41935Z" fill="#fff"/>
      <g id="lBlDq8-7" data-name="lBlDq8">
        <path d="M123.2374,92.44115c-3.01615.22116-5.14887-1.3064-4.79716-4.8834.31122-3.16537,2.3664-5.43844.27638-7.81734-1.06037-1.20692-2.5795-2.00891-3.08133-4.83155-.92985-5.23016,5.333-7.33024,10.59314-2.0981,1.7109,1.70182,3.8744,1.46434,5.62836,2.11128a6.10426,6.10426,0,0,1,3.61915,7.74862c-.879,2.3725-3.09636,2.39583-4.64853,3.57274C128.62649,87.91222,128.13184,92.08224,123.2374,92.44115Z" fill="#fff"/>
      </g>
      <path d="M132.17735,62.56457c2.61-.24957,5.55641.213,6.73238,2.03276.90654,1.40278-1.27133,3.97363-4.787,4.86128-5.69378,1.4376-6.93479-2.90561-6.09415-4.47212A5.30119,5.30119,0,0,1,132.17735,62.56457Z" fill="#fff"/>
      <path d="M148.47141,83.78412c1.46124-1.36808,1.64493-5.02487-1.84-4.92737-5.72006.16-8.45533.162-7.94824,4.26774C139.26843,87.863,145.32221,86.73254,148.47141,83.78412Z" fill="#fff"/>
      <path d="M133.18832,94.47928a4.01579,4.01579,0,0,1-.052-5.26185c1.43-1.34324,3.58425-1.01922,8.06821-.47765,1.6414.19824,1.79074,2.65993.42753,4.14748C139.353,95.37416,135.60132,96.88592,133.18832,94.47928Z" fill="#fff"/>
      <path d="M150.81953,80.61136c.234.93948.95315,1.28262,1.65355.95338.45873-.21563,1.63218-1.12555,1.31191-1.87446C153.49079,79.00235,150.41639,78.9927,150.81953,80.61136Z" fill="#fff"/>
      <path d="M149.11877,71.80387a1.11558,1.11558,0,0,1,1.21648-1.46567c.5522.03086,2.125.4363,2.14172,1.2343C152.49233,72.30554,149.44215,73.42428,149.11877,71.80387Z" fill="#fff"/>
      <path d="M140.39081,64.96218c-.20528-1.017.33731-1.62438,1.17172-1.55929.54651.04262,2.10974.50633,2.143,1.36682C143.73615,65.56015,140.7445,66.71439,140.39081,64.96218Z" fill="#fff"/>
    </g>
    <g>
      <path d="M213.23674,60.34649c.65325-.6728.50471-2.89119-1.35818-3.95961a9.42434,9.42434,0,0,0-6.86056-.54946c-2.5448.60728-3.82057,1.17391-2.51209,4.89954.49009,1.39544,1.27424,2.04121,3.55026,2.19163A10.28164,10.28164,0,0,0,213.23674,60.34649Z" fill="#fff"/>
      <path d="M207.5368,76.53913c.109.948.77237,1.3749,1.504,1.14219.47919-.15241,1.7512-.89252,1.53269-1.66526C210.37277,75.30623,207.349,74.90572,207.5368,76.53913Z" fill="#fff"/>
      <g id="lBlDq8-8" data-name="lBlDq8">
        <path d="M186.60708,75.84691c-3.01942-.171-4.93655-1.96165-4.12495-5.46307.71818-3.09848,3.05021-5.08652,1.28557-7.71586-.89529-1.334-2.29787-2.32579-2.43025-5.18964-.24528-5.3065,6.23665-6.57855,10.77558-.70976,1.47631,1.90889,3.65234,1.95335,5.30784,2.82181a6.10424,6.10424,0,0,1,2.5861,8.15178c-1.17861,2.2388-3.38034,1.975-5.07174,2.9412C192.53688,72.05338,191.50681,76.12433,186.60708,75.84691Z" fill="#fff"/>
      </g>
      <path d="M199.33773,47.37828c2.62036.09025,5.48213.93022,6.41276,2.8868.7174,1.50829-1.77481,3.77572-5.37576,4.201-5.83193.68877-6.50052-3.7785-5.46425-5.22307A5.30117,5.30117,0,0,1,199.33773,47.37828Z" fill="#fff"/>
      <path d="M212.74911,70.5278c1.626-1.1675,2.2813-4.76978-1.18692-5.124-5.69268-.58145-8.4052-.93348-8.43365,3.2034C203.09572,73.38157,209.24488,73.044,212.74911,70.5278Z" fill="#fff"/>
      <path d="M196.21061,79.15551a4.0158,4.0158,0,0,1,.62928-5.22435c1.59183-1.14691,3.686-.54687,8.06219.57034,1.60194.409,1.4315,2.86928-.11273,4.16794C202.20772,80.84054,198.29192,81.85414,196.21061,79.15551Z" fill="#fff"/>
      <path d="M215.488,67.68555c.11045.96186.77918,1.39517,1.51629,1.15933.48278-.15447,1.76411-.9049,1.54343-1.689C218.345,66.43571,215.29773,66.02833,215.488,67.68555Z" fill="#fff"/>
      <path d="M214.94122,58.732a1.11557,1.11557,0,0,1,1.3959-1.29594c.54356.10206,2.05067.70759,1.964,1.501C218.2215,59.666,215.0522,60.38066,214.94122,58.732Z" fill="#fff"/>
      <path d="M207.1719,50.81851c-.072-1.035.54467-1.56708,1.36364-1.39457.5364.113,2.02649.77506,1.94816,1.63263C210.41174,51.84432,207.2959,52.60175,207.1719,50.81851Z" fill="#fff"/>
    </g>
    <g>
      <path d="M289.66951,58.87515c.86507-.362,1.60013-2.46034.30688-4.1748a9.42436,9.42436,0,0,0-6.09288-3.20095c-2.57873-.44147-3.97454-.42169-4.23519,3.51842-.09762,1.47577.36972,2.37772,2.40357,3.41034A10.28158,10.28158,0,0,0,289.66951,58.87515Z" fill="#fff"/>
      <path d="M278.06554,71.52579c-.27226.91462.17,1.56781.93423,1.64129.50054.04813,1.96105-.13266,2.06374-.9291C281.15785,71.50637,278.53463,69.95,278.06554,71.52579Z" fill="#fff"/>
      <g id="lBlDq8-9" data-name="lBlDq8">
        <path d="M259.09116,62.66547c-2.70939-1.34363-3.76872-3.74357-1.64661-6.64448,1.87789-2.56708,4.80349-3.47891,4.21392-6.59014-.29914-1.57847-1.1992-3.04163-.19566-5.72715,1.8595-4.97608,8.31992-3.59892,10.18779,3.5813.60753,2.33544,2.59107,3.23134,3.77219,4.68043a6.10425,6.10425,0,0,1-.82493,8.51228c-1.9635,1.59564-3.8845.488-5.8195.71184C266.03461,61.507,263.4878,64.84579,259.09116,62.66547Z" fill="#fff"/>
      </g>
      <path d="M281.9839,41.48871c2.37415,1.1126,4.6757,3.00946,4.76269,5.17435.06706,1.66886-3.11563,2.77467-6.59407,1.75086-5.6335-1.65813-4.493-6.02882-2.97249-6.95A5.30115,5.30115,0,0,1,281.9839,41.48871Z" fill="#fff"/>
      <path d="M285.22062,68.046c1.954-.43471,3.972-3.48978.92189-5.17828-5.00635-2.77147-7.3624-4.161-9.014-.368C275.22233,66.87718,281.00958,68.98287,285.22062,68.046Z" fill="#fff"/>
      <path d="M266.62227,69.48141a4.01579,4.01579,0,0,1,2.63143-4.5569c1.91446-.4292,3.60442.94543,7.18966,3.6923,1.3124,1.00551.189,3.201-1.74135,3.78842C271.47494,73.38732,267.47582,72.78079,266.62227,69.48141Z" fill="#fff"/>
      <path d="M288.856,66.50853c-.27637.92789.16832,1.58911.93881,1.66187.50464.04765,1.97778-.139,2.08292-.94666C291.97435,66.48179,289.33221,64.90982,288.856,66.50853Z" fill="#fff"/>
      <path d="M291.87126,58.06027a1.11557,1.11557,0,0,1,1.79283-.64322c.45975.30742,1.60771,1.45644,1.21624,2.152C294.52073,60.208,291.32553,59.61991,291.87126,58.06027Z" fill="#fff"/>
      <path d="M287.83623,47.73048c.3405-.98,1.1166-1.227,1.80192-.7466.44886.31466,1.559,1.509,1.15,2.26679C290.41243,49.94679,287.24957,49.419,287.83623,47.73048Z" fill="#fff"/>
    </g>
    <g>
      <path d="M470.6431,80.9459c.87-.34995,1.63417-2.43786.36489-4.17013a9.42431,9.42431,0,0,0-6.04779-3.28535c-2.57234-.47728-3.96829-.47692-4.2837,3.4592-.11813,1.47427.33663,2.38263,2.35593,3.44343A10.28164,10.28164,0,0,0,470.6431,80.9459Z" fill="#fff"/>
      <path d="M458.86436,93.434c-.28495.91075.1482,1.57.91133,1.65412.49982.05509,1.9627-.10538,2.07646-.90032C461.95664,93.45756,459.35532,91.86483,458.86436,93.434Z" fill="#fff"/>
      <g id="lBlDq8-10" data-name="lBlDq8">
        <path d="M440.015,84.31072c-2.69044-1.38117-3.71631-3.7956-1.55407-6.66673,1.9134-2.54073,4.8514-3.41179,4.30513-6.53092-.27716-1.58247-1.15679-3.058-.116-5.72932,1.9285-4.94974,8.36915-3.4829,10.137,3.7226.575,2.34366,2.5459,3.267,3.70676,4.73243a6.10425,6.10425,0,0,1-.9432,8.5c-1.98549,1.56819-3.89091.43392-5.82883.63087C446.97388,83.2489,444.38091,86.552,440.015,84.31072Z" fill="#fff"/>
      </g>
      <path d="M463.2,63.45428c2.35845,1.1455,4.63341,3.07418,4.6903,5.24007.04385,1.66963-3.15392,2.73109-6.61778,1.659-5.60991-1.73629-4.40877-6.0907-2.87558-6.99067A5.30115,5.30115,0,0,1,463.2,63.45428Z" fill="#fff"/>
      <path d="M466.06714,90.054c1.9598-.40751,4.0201-3.43422.99379-5.165-4.96734-2.84081-7.30384-4.263-9.008-.49331C456.08606,88.7463,461.84348,90.93224,466.06714,90.054Z" fill="#fff"/>
      <path d="M447.45062,91.23071a4.0158,4.0158,0,0,1,2.69454-4.51988c1.92023-.40254,3.59092.99545,7.13762,3.7919,1.2983,1.02366.14444,3.20329-1.79384,3.76385C452.24852,95.20371,448.25822,94.54163,447.45062,91.23071Z" fill="#fff"/>
      <path d="M469.72358,88.56723c-.28924.924.14621,1.59129.91561,1.67475.50393.05467,1.97952-.11145,2.09588-.91761C472.842,88.58385,470.22193,86.9753,469.72358,88.56723Z" fill="#fff"/>
      <path d="M472.856,80.16171a1.11557,1.11557,0,0,1,1.8016-.61824c.45543.31379,1.58731,1.47865,1.18621,2.16872C475.47532,82.34609,472.2886,81.71361,472.856,80.16171Z" fill="#fff"/>
      <path d="M468.96494,69.77681c.35409-.9752,1.13355-1.21138,1.81212-.72147.44445.32086,1.53783,1.53051,1.11835,2.28256C471.51007,72.02873,468.35486,71.457,468.96494,69.77681Z" fill="#fff"/>
    </g>
    <g>
      <path d="M520.78489,49.14914c.44265-.82671-.31121-2.91835-2.39634-3.4323a9.42436,9.42436,0,0,0-6.7465,1.36159c-2.27906,1.28477-3.3494,2.1809-1.06528,5.402.85551,1.20645,1.78721,1.61125,4.01661,1.1289A10.28162,10.28162,0,0,0,520.78489,49.14914Z" fill="#fff"/>
      <path d="M519.76586,66.28543a1.14585,1.14585,0,0,0,1.76043.68372c.41867-.27851,1.4376-1.34037,1.01469-2.023C522.1525,64.319,519.13537,64.767,519.76586,66.28543Z" fill="#fff"/>
      <g id="lBlDq8-11" data-name="lBlDq8">
        <path d="M499.45516,71.38526c-2.9497.66736-5.28591-.526-5.47021-4.11548-.1631-3.17644,1.53109-5.72994-.88956-7.77148-1.2281-1.03575-2.84963-1.60284-3.76575-4.31944-1.69752-5.03364,4.18326-8.042,10.16319-3.65052,1.945,1.42838,4.04911.87172,5.87979,1.25056a6.10425,6.10425,0,0,1,4.73152,7.124c-.51632,2.47685-2.70552,2.82977-4.06535,4.22447C504.1106,66.10507,504.24175,70.30227,499.45516,71.38526Z" fill="#fff"/>
      </g>
      <path d="M503.8514,40.51122c2.54385-.635,5.52628-.61586,6.95986,1.00868,1.10512,1.25233-.6661,4.11854-4.01059,5.51928-5.41658,2.26858-7.28985-1.84171-6.69159-3.51584A5.30119,5.30119,0,0,1,503.8514,40.51122Z" fill="#fff"/>
      <path d="M523.12066,59.0709c1.24148-1.57023.87916-5.21366-2.55247-4.59885-5.6326,1.00913-8.33716,1.41792-7.225,5.40259C514.62681,64.47336,520.44508,62.455,523.12066,59.0709Z" fill="#fff"/>
      <path d="M509.59854,71.92048a4.0158,4.0158,0,0,1-.83415-5.19558c1.21433-1.541,3.39276-1.541,7.90739-1.67251,1.65263-.04812,2.16649,2.364,1.03973,4.03775C515.8278,71.88838,512.34269,73.94139,509.59854,71.92048Z" fill="#fff"/>
      <path d="M524.97069,55.58415a1.15721,1.15721,0,0,0,1.777.6968c.42155-.28148,1.44659-1.35583,1.01848-2.04876C527.37289,53.59567,524.33126,54.04346,524.97069,55.58415Z" fill="#fff"/>
      <path d="M521.97872,47.12763a1.11557,1.11557,0,0,1,.98492-1.63031c.55064-.05163,2.16625.11534,2.30149.902C525.38936,47.12189,522.53954,48.68191,521.97872,47.12763Z" fill="#fff"/>
      <path d="M512.33013,41.66038c-.35428-.97513.09193-1.65649.92674-1.71625.54676-.03914,2.16159.18687,2.32251,1.03284C515.7272,41.75406,512.94053,43.34048,512.33013,41.66038Z" fill="#fff"/>
    </g>
    <g>
      <path d="M636.73806,80.27637c.339-.87433-.66319-2.859-2.79528-3.116a9.42431,9.42431,0,0,0-6.53131,2.17051c-2.10625,1.55194-3.05988,2.57138-.40164,5.49134.99565,1.09367,1.9696,1.38237,4.124.63295A10.28159,10.28159,0,0,0,636.73806,80.27637Z" fill="#fff"/>
      <path d="M637.80683,97.40964a1.14586,1.14586,0,0,0,1.83042.465c.38177-.32728,1.26425-1.505.7616-2.13125C639.93711,95.16806,636.99667,95.97893,637.80683,97.40964Z" fill="#fff"/>
      <g id="lBlDq8-12" data-name="lBlDq8">
        <path d="M618.26545,104.93737c-2.84687,1.02051-5.31067.11963-5.92936-3.421-.5475-3.13315.82418-5.87343-1.8264-7.606-1.34476-.879-3.02314-1.24506-4.26226-3.83035-2.296-4.79034,3.17606-8.49033,9.64486-4.85729,2.104,1.1817,4.125.37373,5.98812.52753a6.10424,6.10424,0,0,1,5.56136,6.497c-.21182,2.52122-2.342,3.13729-3.52246,4.68675C622.24547,99.13108,622.88517,103.28132,618.26545,104.93737Z" fill="#fff"/>
      </g>
      <path d="M618.8812,73.758c2.44795-.93915,5.41064-1.28217,7.03084.15633,1.249,1.1089-.1612,4.16893-3.31092,5.96532-5.10112,2.90935-7.45951-.94313-7.0689-2.6775A5.3012,5.3012,0,0,1,618.8812,73.758Z" fill="#fff"/>
      <path d="M640.261,89.8412c1.04168-1.70933.23974-5.28182-3.09187-4.255-5.46844,1.68545-8.10337,2.41953-6.51568,6.23971C632.48582,96.23482,638.016,93.525,640.261,89.8412Z" fill="#fff"/>
      <path d="M628.39879,104.23728a4.0158,4.0158,0,0,1-1.45871-5.05589c1.01827-1.677,3.18059-1.94152,7.64588-2.62007,1.63456-.24839,2.43744,2.08347,1.5222,3.88167C634.57807,103.4492,631.368,105.91011,628.39879,104.23728Z" fill="#fff"/>
      <path d="M641.67409,86.15565a1.1572,1.1572,0,0,0,1.84842.47593c.38427-.33057,1.2713-1.52141.76224-2.15725C643.81712,83.89026,640.85235,84.704,641.67409,86.15565Z" fill="#fff"/>
      <path d="M637.67766,78.12489a1.11556,1.11556,0,0,1,.77972-1.73782c.54031-.11809,2.16423-.14848,2.394.61592C641.06238,77.70515,638.423,79.59959,637.67766,78.12489Z" fill="#fff"/>
      <path d="M627.43673,73.86937c-.47-.92491-.10984-1.6554.71153-1.81605.538-.10523,2.16829-.07693,2.43072.74325C630.82,73.55,628.24657,75.46294,627.43673,73.86937Z" fill="#fff"/>
    </g>
    <g>
      <path d="M693.34258,75.47744c.77752-.52424,1.08787-2.72583-.5158-4.15416a9.4243,9.4243,0,0,0-6.60136-1.9471c-2.61527.07155-3.98024.364-3.465,4.279.193,1.46635.82774,2.25944,3.02431,2.87421A10.2816,10.2816,0,0,0,693.34258,75.47744Z" fill="#fff"/>
      <path d="M684.43776,90.15379c-.08806.95021.47345,1.50425,1.23728,1.4268.50028-.05072,1.8972-.51374,1.8421-1.31488C687.46652,89.52978,684.5895,88.51664,684.43776,90.15379Z" fill="#fff"/>
      <g id="lBlDq8-13" data-name="lBlDq8">
        <path d="M664.09663,85.17677c-2.9199-.78761-4.42828-2.93393-2.9147-6.194,1.33939-2.88486,4.03008-4.35142,2.84322-7.2872-.60216-1.48944-1.77108-2.74823-1.31231-5.5782.85006-5.24371,7.45506-5.157,10.69156,1.519,1.05268,2.17145,3.17316,2.662,4.615,3.852a6.10426,6.10426,0,0,1,.85633,8.50918c-1.6134,1.94893-3.714,1.23849-5.56779,1.83659C670.67927,82.68229,668.83487,86.45481,664.09663,85.17677Z" fill="#fff"/>
      </g>
      <path d="M682.40405,59.93056c2.54594.62663,5.17412,2.03657,5.683,4.1426.39225,1.6235-2.51261,3.33059-6.12412,3.00707-5.849-.524-5.58566-5.03331-4.27474-6.23419A5.30118,5.30118,0,0,1,682.40405,59.93056Z" fill="#fff"/>
      <path d="M690.77381,85.34144c1.83115-.80858,3.21249-4.19941-.109-5.25857-5.45181-1.73849-8.03417-2.64024-8.91184,1.40256C680.74006,86.15125,686.82743,87.08405,690.77381,85.34144Z" fill="#fff"/>
      <path d="M672.81566,90.38764a4.0158,4.0158,0,0,1,1.68909-4.98365c1.79349-.79544,3.71972.222,7.77307,2.21439,1.48376.72933.81154,3.10215-.96654,4.05589C678.3387,93.26872,674.2982,93.45627,672.81566,90.38764Z" fill="#fff"/>
      <path d="M694.03819,83.12246c-.0895.964.476,1.52548,1.24579,1.44609.50422-.052,1.91238-.5232,1.85747-1.33586C697.091,82.48619,694.19239,81.4615,694.03819,83.12246Z" fill="#fff"/>
      <path d="M695.34236,74.24757a1.11557,1.11557,0,0,1,1.63235-.98154c.511.21154,1.86157,1.11377,1.61375,1.8725C698.36081,75.83549,695.1123,75.88384,695.34236,74.24757Z" fill="#fff"/>
      <path d="M689.36442,64.90679c.14219-1.02771.855-1.42177,1.621-1.0847.50175.22076,1.824,1.17483,1.57122,1.998C692.32443,66.57627,689.11943,66.67747,689.36442,64.90679Z" fill="#fff"/>
    </g>
    <g>
      <path d="M755.16392,56.34674c.31985-.88153-.72546-2.84383-2.86266-3.05423a9.42432,9.42432,0,0,0-6.48236,2.31261c-2.07185,1.59756-3.003,2.63757-.28163,5.4988,1.01929,1.07167,1.99931,1.339,4.13678.54275A10.2816,10.2816,0,0,0,755.16392,56.34674Z" fill="#fff"/>
      <path d="M756.60654,73.45258a1.14586,1.14586,0,0,0,1.84014.42487c.37452-.33553,1.23108-1.53223.71487-2.14737C758.68737,71.165,755.76533,72.0399,756.60654,73.45258Z" fill="#fff"/>
      <g id="lBlDq8-14" data-name="lBlDq8">
        <path d="M737.23419,81.40521c-2.82391,1.08242-5.3068.23555-6.00265-3.2907-.61578-3.12045.69573-5.89-1.992-7.56432-1.36363-.84943-3.0496-1.17875-4.34489-3.73636-2.40007-4.73907,2.98992-8.55767,9.53651-5.06673,2.12933,1.13547,4.13217.28357,5.99822.39665a6.10425,6.10425,0,0,1,5.70189,6.374c-.15672,2.52524-2.27294,3.18767-3.41928,4.76254C741.08647,75.5134,741.81665,79.64868,737.23419,81.40521Z" fill="#fff"/>
      </g>
      <path d="M737.169,50.21982c2.42686-.99238,5.38136-1.4,7.03258.00276,1.27288,1.08137-.07014,4.17146-3.17987,6.0362-5.03639,3.02-7.47833-.78-7.12569-2.52251A5.3012,5.3012,0,0,1,737.169,50.21982Z" fill="#fff"/>
      <path d="M758.89487,65.83236c1.00411-1.73167.12436-5.2858-3.184-4.18645-5.43034,1.80444-8.04861,2.59588-6.37789,6.38049C751.26114,72.39423,756.73087,69.56434,758.89487,65.83236Z" fill="#fff"/>
      <path d="M747.34982,80.484a4.01582,4.01582,0,0,1-1.56876-5.02284c.98142-1.69887,3.13745-2.0105,7.58685-2.78639,1.62875-.284,2.48235,2.02975,1.6066,3.84751C753.51042,79.56121,750.35483,82.09162,747.34982,80.484Z" fill="#fff"/>
      <path d="M760.22714,62.11683a1.1572,1.1572,0,0,0,1.85837.43546c.377-.33888,1.23778-1.54881.715-2.17338C762.3202,59.80519,759.3739,60.68345,760.22714,62.11683Z" fill="#fff"/>
      <path d="M756.05631,54.17525a1.11557,1.11557,0,0,1,.74159-1.75443c.5376-.12986,2.16047-.19571,2.40685.56349C759.43106,53.68171,756.83369,55.63333,756.05631,54.17525Z" fill="#fff"/>
      <path d="M745.7249,50.14435c-.49012-.91442-.146-1.6526.67172-1.83115.53554-.117,2.16609-.12425,2.44636.69C749.10044,49.75116,746.56935,51.71986,745.7249,50.14435Z" fill="#fff"/>
    </g>
  </g>
</svg>
